<svg width="100" height="100" viewBox="0 0 100 100" fill="none" xmlns="http://www.w3.org/2000/svg">
<g clip-path="url(#clip0_348_135)">
<path d="M32.3655 13.0041C30.8154 13.9866 29.2434 14.9035 28.8723 15.0782C28.523 15.2528 27.868 15.6022 27.4532 15.8423C24.4403 17.6326 22.9557 18.5495 22.8684 18.6587C22.8029 18.746 22.4972 18.9425 22.1697 19.1172C20.838 19.8158 14.4193 23.7675 13.9826 24.1823L13.4805 24.6189V30.6665V36.6922L13.7861 37.107L14.0699 37.5218L19.2879 37.4563L24.5058 37.4127L24.7896 37.0415L25.0735 36.6704L25.0516 34.5963C25.0298 33.461 25.0298 32.3476 25.0298 32.1293L25.0516 31.7363L26.8637 31.8018L28.654 31.8673L28.7195 35.4696L28.785 39.0719L28.9814 39.2684C29.0906 39.3776 29.6146 39.5304 30.1167 39.5959L31.0555 39.7269L31.1647 57.6949C31.2302 67.585 31.2083 75.8595 31.121 76.0996L30.9464 76.5363L28.392 76.4708C26.9729 76.4271 25.6848 76.4926 25.5538 76.5799L25.2699 76.7546V79.2435V81.7105L24.9206 81.8415C24.7241 81.907 23.6543 81.907 22.5627 81.8415L20.5323 81.6887L20.0738 82.2127C19.4844 82.824 19.4625 83.3261 19.9865 83.7846L20.4013 84.1558H53.9358H87.4703L87.7105 83.7409C87.8197 83.5008 87.9288 83.1078 87.9288 82.8677V82.4092L87.383 82.0599L86.859 81.7105L85.3744 81.7979L83.8898 81.8634L83.8462 66.6025L83.8025 51.3417L83.5187 51.1671C83.3659 51.0579 78.1698 50.9706 71.9694 50.9706H60.682L60.4419 51.2762L60.1799 51.5819L60.1362 66.7117L60.0926 81.8634L54.0887 81.8852C50.792 81.8852 47.9756 81.8634 47.8228 81.7979L47.5608 81.7105L47.6918 79.6146L47.8228 77.4969L47.3643 76.9511L46.9276 76.4053H44.3296H41.7534V58.0661V39.7269L42.6703 39.6614L43.5873 39.5959L45.0282 38.0458L46.491 36.5176L46.4473 34.509C46.4255 33.4174 46.4255 32.3694 46.4255 32.1947L46.4473 31.8673L58.3023 31.8891L70.1354 31.9109L70.2446 35.5133L70.3538 39.1156L70.6376 39.4649C70.8122 39.6614 71.2926 39.8361 71.7292 39.8797L72.537 39.9452L72.6025 40.5347L72.668 41.146H72.4497C72.3187 41.146 71.882 41.4298 71.489 41.801L70.7249 42.456L70.5066 43.3729L70.2664 44.3117L70.4411 45.0758C70.7031 46.233 71.0524 46.7569 71.9475 47.3682L72.7553 47.914H73.9124H75.0696L75.6809 47.5866C76.0302 47.4119 76.5542 46.9753 76.8816 46.6041L77.4493 45.9055V44.9667V44.0061L76.9908 43.7659L76.5323 43.5039L75.8992 43.7659L75.266 44.0279V44.4209C75.266 45.4688 74.0434 46.0146 73.1265 45.3815L72.6462 45.054V44.3117V43.5912L73.6941 43.0673L74.7202 42.5651L74.8294 41.3643L74.9386 40.1636L75.5499 40.0107C75.8774 39.9016 76.4013 39.7706 76.7506 39.6614L77.3401 39.5086L77.4056 35.9063L77.4711 32.3257L77.6894 32.0638L77.9296 31.7799L82.3834 31.9109L86.8154 32.0419L87.383 31.6708L87.9288 31.3215V30.8411C87.9288 30.339 87.3175 29.6185 83.9553 26.1254L81.5756 23.6801H78.0388H74.4801L72.6462 23.0252C71.62 22.6758 70.6594 22.3702 70.5066 22.3702C70.3319 22.3702 69.8953 22.2392 69.5241 22.0645C69.1312 21.9117 67.2099 21.2567 65.2232 20.6236C63.2364 20.0123 61.4243 19.4228 61.1842 19.3137C60.944 19.2263 60.0052 18.9425 59.1101 18.6587C58.215 18.3967 57.2762 18.1129 57.036 18.0037C56.5994 17.8291 50.3335 15.8205 48.3031 15.231C47.2551 14.9035 43.0633 13.5717 40.9674 12.8731C40.3998 12.6985 39.8321 12.5456 39.6793 12.5456C39.5265 12.5456 39.1117 12.4146 38.7405 12.2618C37.6707 11.8033 35.8368 11.2357 35.5093 11.2575C35.3347 11.2575 33.9374 12.0435 32.3655 13.0041ZM39.8976 14.969C40.3124 15.1 41.0111 15.362 41.4259 15.5148C41.8407 15.6677 42.8887 16.017 43.7183 16.279C44.5697 16.5409 46.3818 17.1086 47.7573 17.5671C49.1327 18.0255 51.0103 18.5932 51.9054 18.877C52.8005 19.139 53.7393 19.4228 53.9795 19.5101C54.2197 19.6193 55.1584 19.9031 56.0536 20.187C56.9487 20.4489 57.9312 20.7328 58.2368 20.8419C58.5425 20.9293 59.3721 21.1694 60.0926 21.3877C60.813 21.5842 61.7518 21.8899 62.1666 22.0427C63.1054 22.3702 65.1358 22.9597 65.9436 23.1343C66.5549 23.2653 66.7296 23.571 66.2711 23.7238C66.1183 23.7893 60.9222 23.7893 54.7218 23.7238L43.4781 23.6146L42.4957 22.392L41.5351 21.1694L40.4871 21.1039L39.461 21.0384L39.0243 20.187C38.7842 19.7066 38.5877 19.0953 38.5877 18.7897C38.5877 18.484 38.4567 17.9164 38.282 17.5234C37.8672 16.5409 37.4742 14.7289 37.6052 14.5105L37.7144 14.3359L38.413 14.5105C38.806 14.6197 39.4828 14.8162 39.8976 14.969ZM33.2824 15.9733C33.2388 16.4318 33.0859 17.0868 32.9549 17.4579C32.8239 17.8072 32.5401 18.746 32.3 19.532L31.8633 20.9511L30.6625 21.0166L29.4618 21.0821L29.1779 21.4314C29.0251 21.6061 28.8286 22.2174 28.7631 22.785L28.654 23.7893H24.2002H19.7464L19.659 23.5491L19.5717 23.2871L21.9296 21.8899C23.2177 21.1257 24.4403 20.4271 24.615 20.3398C24.9643 20.1651 25.3136 19.9468 26.689 19.0953C27.1694 18.7897 27.7588 18.4185 27.999 18.2657C30.859 16.5628 32.4965 15.5148 32.6056 15.362C32.6711 15.2528 32.8676 15.1655 33.0641 15.1655H33.3916L33.2824 15.9733ZM36.1206 17.6981C37.0376 20.9729 37.0158 21.0602 35.4002 21.0602H34.2212V20.8201C34.2212 19.9905 35.3783 16.4536 35.6185 16.5409C35.7276 16.5846 35.946 17.0868 36.1206 17.6981ZM40.1159 23.2435C40.3343 23.3745 40.9892 24.0513 41.5351 24.7717C42.1027 25.4922 42.845 26.4092 43.1943 26.8022C43.9366 27.61 44.1113 28.0903 44.0021 29.2692L43.9366 30.1207H41.3167H38.6968L38.6313 28.0466L38.5659 25.9725L38.2165 25.6887C37.7144 25.3394 37.1686 25.3612 36.7538 25.776L36.4044 26.1035V28.9199V31.7363L36.7538 32.0856L37.1249 32.4349L40.3124 32.3912C42.0809 32.3694 43.6528 32.4131 43.7838 32.5004L44.0458 32.6532V33.9413C44.0458 35.4478 43.8493 36.0154 43.0851 36.845L42.5393 37.4345L36.7974 37.3909L31.0774 37.3254L31.0119 30.47L30.9245 23.6365L31.1865 23.3308L31.4267 23.0252H35.5748H39.7011L40.1159 23.2435ZM22.8247 30.7538L22.7592 35.1421H19.3752H15.9912V30.6665V26.1909L19.1569 26.0817L22.3226 25.9725L22.6064 26.169L22.8684 26.3655L22.8247 30.7538ZM28.7195 27.7846L28.785 29.5967L26.8637 29.5312L24.9425 29.4657L24.877 28.1121L24.8115 26.7367L25.0516 26.3L25.2918 25.8415L26.9729 25.907L28.654 25.9725L28.7195 27.7846ZM82.2087 27.7191L83.8462 29.3565L83.5405 29.4657C83.3659 29.5312 74.9386 29.553 64.7865 29.5312L46.3382 29.4657L46.1853 28.3741C46.1198 27.7628 45.967 27.0205 45.9015 26.6712L45.7487 26.0817H63.1491H80.5713L82.2087 27.7191ZM75.1569 34.7055V37.5437H73.9561H72.7553L72.6462 35.0766C72.5807 33.7012 72.6025 32.4131 72.6898 32.1729L72.8645 31.7363L73.9998 31.8018L75.1569 31.8673V34.7055ZM37.7144 39.9452C37.7144 40.1199 37.1904 40.884 36.5791 41.6263C35.946 42.3905 35.0508 43.4821 34.5924 44.0497C34.1339 44.6174 33.6536 45.0322 33.5444 44.9667L33.3479 44.8357V42.5651C33.3479 41.3207 33.4134 40.1636 33.4789 39.9671L33.6099 39.6178H35.6621H37.7144V39.9452ZM39.2645 42.2813C39.33 43.5257 39.1772 54.8131 39.1117 54.9004C39.0462 54.9659 38.7842 54.7257 38.5222 54.3546C37.9327 53.5468 34.6579 49.4423 34.2867 49.0493C33.7846 48.5254 33.9811 48.1542 35.815 45.9273C36.7974 44.7047 37.889 43.3511 38.2384 42.8708C38.8933 41.9975 39.2208 41.801 39.2645 42.2813ZM35.5312 53.9616C36.4263 55.1187 37.2777 56.1667 37.3869 56.2977C39.0243 58.0879 39.0243 58.1098 37.9982 59.3324C37.5397 59.8563 36.4263 61.2318 35.5312 62.3889C34.636 63.546 33.7627 64.4848 33.6317 64.5066H33.3479V58.1753V51.8439L33.6317 51.8657C33.7627 51.8657 34.636 52.8045 35.5312 53.9616ZM81.2699 53.3285L81.4883 53.4813V67.6287V81.776L81.0516 81.8852C80.8115 81.9507 79.5889 81.9725 78.3226 81.9289L76.0302 81.8634V78.4139V74.9643L75.7027 74.7678L75.3752 74.5495H71.9912H68.6072L68.2797 74.7678L67.9522 74.9643V78.4139V81.8634L65.4633 81.9289L62.9744 81.9944L62.7779 81.7979L62.5596 81.5795L62.5814 67.5413L62.6033 53.5031L62.8871 53.3285C63.2146 53.1101 80.9861 53.1101 81.2699 53.3285ZM39.2863 67.716L39.3736 73.7854L39.1335 74.0692L38.8933 74.3312L37.8236 72.8684C37.2122 72.0606 36.5791 71.231 36.4044 71.0563C35.553 70.1831 34.0029 68.1526 34.0029 67.9125C34.0247 67.7815 34.505 67.0829 35.0945 66.3624C35.684 65.6419 36.7319 64.2883 37.4306 63.3714C38.1292 62.4326 38.806 61.6903 38.9588 61.6684H39.199L39.2863 67.716ZM34.4395 72.017C34.7452 72.41 35.5966 73.5016 36.3608 74.4404C37.1031 75.3792 37.7144 76.2306 37.7144 76.3398V76.5363L35.5966 76.4708L33.4571 76.4053L33.3916 73.8291L33.3261 71.2747H33.6099C33.7627 71.2747 34.1339 71.624 34.4395 72.017ZM73.8469 79.3526V81.8634H71.9912H70.1354L70.0699 79.7893C70.0263 78.654 70.0699 77.4969 70.1354 77.2131L70.2664 76.7109L72.0567 76.7764L73.8469 76.8419V79.3526ZM45.1811 80.0513C45.2247 80.8154 45.1811 81.5577 45.0719 81.7105L44.8536 81.9725L36.208 81.9289L27.5623 81.8634L27.4968 80.5753C27.4532 79.8766 27.475 79.1562 27.5405 79.0033L27.6497 78.6977H36.3826H45.0937L45.1811 80.0513Z" fill="black"/>
<path d="M65.4417 57.1057L65.1797 57.5642L65.3325 58.1319C65.5508 58.9615 65.7473 59.0488 68.0834 59.0488H70.2011L70.4413 58.7432L70.7033 58.4157L70.6378 57.5861L70.5723 56.7564L68.1271 56.6909L65.6818 56.6254L65.4417 57.1057Z" fill="black"/>
<path d="M73.5634 56.9089C73.214 57.2582 73.2359 58.5027 73.607 58.8083L73.9127 59.0703L76.1614 59.0048L78.3883 58.9393L78.6066 58.328L78.8031 57.6949L78.563 57.1709L78.3228 56.6469H76.0741H73.8253L73.5634 56.9089Z" fill="black"/>
<path d="M65.9445 62.6948C65.3769 62.8039 65.1367 63.4152 65.3332 64.3104L65.4861 64.9653L68.0186 64.8998L70.573 64.8343V63.8519V62.8913L70.0272 62.7384C69.4377 62.5638 66.7305 62.5419 65.9445 62.6948Z" fill="black"/>
<path d="M73.7814 62.7821L73.2793 62.9786L73.3448 63.8955L73.4103 64.8343L75.9647 64.8998L78.5191 64.9653L78.6719 64.3977C78.7374 64.092 78.7374 63.6117 78.6719 63.3279L78.5409 62.8039L78.0606 62.6729C77.2965 62.4764 74.3491 62.5419 73.7814 62.7821Z" fill="black"/>
<path d="M65.572 69.0044C65.3755 69.179 65.2227 69.6157 65.2227 69.965V70.5981L65.6375 70.8383C66.096 71.0784 69.3708 71.1439 70.2004 70.9256L70.6807 70.7946V69.8558V68.917L70.2004 68.786C69.9166 68.7205 68.8468 68.655 67.7989 68.655H65.8995L65.572 69.0044Z" fill="black"/>
<path d="M73.6938 68.8079L73.3008 68.8952V69.7685V70.62L73.8684 70.8383C74.1741 70.9693 75.1347 71.0566 76.0298 71.0566C76.925 71.0566 77.8856 70.9693 78.1912 70.8383L78.7589 70.62V69.8777V69.1136L78.3441 68.8734L77.9074 68.6551L75.9862 68.6769C74.9382 68.6987 73.8903 68.7424 73.6938 68.8079Z" fill="black"/>
</g>
<defs>
<clipPath id="clip0_348_135">
<rect width="100" height="100" fill="white"/>
</clipPath>
</defs>
</svg>
