<svg width="100" height="100" viewBox="0 0 100 100" fill="none" xmlns="http://www.w3.org/2000/svg">
<g clip-path="url(#clip0_348_154)">
<path d="M62.7942 15.5804C61.0912 16.279 60.5236 16.7157 59.1482 18.2876C57.4016 20.3398 56.31 21.6498 55.6768 22.4794C55.393 22.8287 54.6289 23.7675 53.9521 24.5535C53.2753 25.3395 52.402 26.4092 51.9872 26.955C51.5723 27.5009 51.0265 28.1777 50.7427 28.4833C50.4807 28.789 49.4109 30.0989 48.3411 31.4089C47.2932 32.7188 46.2452 33.8977 46.0488 34.0287L45.6776 34.2471L45.11 33.6576C44.7825 33.3519 44.324 33.0244 44.1057 32.9589L43.6909 32.828L43.276 33.1118C43.0359 33.2864 42.2936 34.0942 41.6168 34.9457C39.761 37.2163 38.8004 38.3515 38.5603 38.6135C38.4293 38.7445 37.9053 39.3995 37.3813 40.0545C36.8573 40.7094 36.1369 41.6046 35.7439 42.0194C35.3727 42.4342 34.5213 43.4603 33.8663 44.3118C33.2113 45.1414 32.6219 45.8837 32.5564 45.9492C32.4909 46.0147 32.0324 46.5387 31.5739 47.15C31.0936 47.7395 30.6133 48.3508 30.4823 48.4818C30.3731 48.6128 29.871 49.1804 29.3907 49.7699C28.9104 50.3593 27.7751 51.7348 26.8799 52.8046C25.9848 53.8962 24.8495 55.2716 24.3692 55.8829C23.9107 56.4724 23.4523 57.0182 23.3868 57.0837C23.2994 57.1492 22.8191 57.7387 22.317 58.3936C21.793 59.0486 21.0725 59.9437 20.6796 60.3586C20.3084 60.7734 19.5224 61.734 18.9548 62.4763L17.9287 63.8081V64.3539V64.8779L19.0421 65.8385C19.6534 66.3625 20.2866 66.8864 20.4612 66.9738C20.9415 67.2576 20.8105 67.8252 20.0901 68.6549C19.1076 69.7683 17.9723 71.5586 17.7977 72.279C17.7104 72.6283 17.5794 72.9995 17.4702 73.1305C17.3829 73.2397 17.2519 74.0256 17.1645 74.8771L17.0117 76.4053L17.2519 77.2786C17.361 77.759 17.5575 78.5231 17.6885 78.9816C18.1252 80.7282 19.3696 81.3613 20.3302 80.3352L20.8542 79.7675L20.5704 79.0689C20.4176 78.6759 20.1337 77.8681 19.9591 77.2786L19.6534 76.187L19.7626 74.8116C19.9154 73.065 21.0507 70.7508 22.448 69.3535L22.7536 69.0478L23.1248 69.3317C23.3213 69.4845 23.6051 69.7246 23.7143 69.8556C23.8452 69.9648 24.4129 70.4888 25.0024 71.0128L26.0721 71.9297H26.5306C27.1419 71.9079 27.4694 71.6241 28.692 70.0303C29.2597 69.288 29.8491 68.5457 30.002 68.3929C30.133 68.24 30.6569 67.6069 31.1373 67.0174C32.1634 65.7293 32.6655 65.1398 33.5388 64.0919C33.91 63.6552 34.5868 62.8038 35.0671 62.2143C35.5474 61.603 35.984 61.079 36.0495 61.0135C36.115 60.948 36.6608 60.2712 37.2503 59.4853C38.4511 57.8478 39.761 56.4287 40.0449 56.4287C40.2413 56.4287 42.0316 57.1929 42.6429 57.5204C42.8612 57.6513 43.145 57.7387 43.276 57.7387C43.407 57.7387 43.8437 57.8915 44.2367 58.088L44.9571 58.4373L45.4811 58.088L46.0051 57.7387L46.7256 55.9484C47.708 53.5032 48.1665 52.4989 49.2144 50.3157L50.1096 48.4599V47.5866C50.1096 47.1063 50.0659 46.0584 50.0222 45.2506L49.9349 43.8096L50.8737 42.849C51.3977 42.3469 51.9435 41.5827 52.1181 41.1897L52.4238 40.4911L52.1836 39.989C52.0308 39.727 51.6815 39.334 51.3977 39.1157C51.1357 38.8974 50.8955 38.6135 50.8955 38.4825C50.8955 38.286 53.1224 35.557 54.9564 33.5048C55.3493 33.0899 56.0698 32.1948 56.5938 31.5398C57.0959 30.8849 57.5762 30.2954 57.6636 30.2299C57.7291 30.1644 58.3185 29.4221 58.9735 28.5925C59.6285 27.741 60.5236 26.6931 60.9384 26.2346C61.3532 25.7761 61.7899 25.2303 61.899 25.0338C62.0082 24.8155 62.161 24.619 62.2484 24.5535C62.3139 24.488 62.8597 23.8549 63.4273 23.1344C65.1521 20.9948 65.7852 21.0603 68.3614 23.5274L70.1298 25.2303L69.8897 25.5359L69.6277 25.8416L69.7805 26.2782C70.0862 27.2607 74.3217 30.9504 77.6402 33.1336C81.832 35.8627 81.3735 35.8845 84.1899 32.7406L84.9758 31.8673L84.823 31.3215C84.7575 31.0159 84.3209 30.2299 83.8624 29.5749C83.4039 28.92 82.487 27.5882 81.832 26.6276L80.6312 24.881L78.2951 22.5886L75.9809 20.318L75.0858 20.3398L74.1907 20.3835L72.1166 18.4186L70.0643 16.4537L69.0382 15.9952C68.4924 15.755 67.8593 15.4494 67.6628 15.3621C67.4445 15.2529 66.462 15.1656 65.4795 15.1874L63.6675 15.2092L62.7942 15.5804ZM66.855 17.6326L67.8593 17.8946L69.0382 18.8116C69.6932 19.3137 70.8066 20.2525 71.5271 20.9075L72.8371 22.1083L72.5096 22.7414C72.3131 23.0689 71.9856 23.3745 71.7891 23.4182L71.3961 23.5055L69.4967 21.6716L67.5973 19.8377L66.7022 19.5757C65.4577 19.2046 65.0211 19.2482 63.864 19.7722L62.8815 20.2525L62.0737 21.2131C61.6371 21.7589 60.4363 23.1999 59.432 24.4225C58.4277 25.6233 57.4016 26.8677 57.1396 27.1734C56.8994 27.479 55.6987 28.9418 54.4979 30.4264C53.2971 31.911 51.8998 33.6358 51.3977 34.2471C50.8955 34.8584 50.1969 35.7317 49.8694 36.1683C49.1271 37.1508 48.9743 37.1726 48.2102 36.3866L47.6207 35.7753L50.6335 32.173C52.271 30.1862 53.9739 28.134 54.3887 27.61C54.8035 27.086 55.5022 26.2564 55.917 25.7543C56.3318 25.2521 57.7509 23.5492 59.039 21.9554C62.6195 17.6326 63.9731 16.8685 66.855 17.6326ZM76.7669 24.3133C78.055 25.5359 80.1509 28.0685 80.1509 28.396C80.1509 28.5051 80.3692 28.8545 80.653 29.1383C80.915 29.4439 81.3735 30.0334 81.6355 30.4264L82.1595 31.1469L82.0285 31.6053C81.963 31.8673 81.701 32.2166 81.4608 32.3695L80.9805 32.6533L79.8671 31.8237C79.2339 31.3652 78.055 30.5356 77.2035 29.9679C76.3739 29.4221 74.9548 28.2868 74.0597 27.4572L72.4441 25.9508L73.8195 24.488C75.4133 22.7851 75.1731 22.8069 76.7669 24.3133ZM45.1973 36.7359C45.5029 37.0416 46.2016 37.6311 46.7474 38.0677C47.2932 38.5044 48.101 39.1812 48.5595 39.596L49.3673 40.3383V40.8623C49.3673 41.1243 49.3018 41.3644 49.2144 41.3644C49.1053 41.3644 48.5595 41.9757 47.9482 42.718C47.3587 43.4385 46.5072 44.4646 46.0924 44.9667C45.6776 45.4471 44.9353 46.3422 44.455 46.9317C43.9747 47.5211 43.4289 48.1543 43.2542 48.3508C43.0796 48.5254 42.5774 49.1367 42.1626 49.6607C41.7478 50.2065 40.8745 51.2763 40.1977 52.0623C39.5209 52.8482 38.6476 53.918 38.2328 54.4638C37.818 55.0096 37.2503 55.6864 36.9665 55.9921C36.6608 56.2977 35.8749 57.2147 35.1981 58.0662C33.8226 59.8128 33.8663 59.7473 31.5521 62.5418C30.5914 63.6771 29.1505 65.4892 28.299 66.5808C26.1813 69.3317 26.618 69.2443 24.3256 67.3449C20.7451 64.3757 20.6141 64.1574 21.7057 62.9784C22.0768 62.5418 22.7973 61.7122 23.2776 61.1009C23.7579 60.4896 24.6094 59.4634 25.177 58.8085C25.7228 58.1535 27.3384 56.2104 28.7575 54.4638C30.1766 52.7172 31.3992 51.2545 31.4647 51.189C31.5302 51.1235 32.1415 50.3812 32.8183 49.5079C33.517 48.6564 34.4121 47.5648 34.8488 47.1063C35.2636 46.6478 35.6129 46.2112 35.6129 46.1457C35.6129 46.0802 35.8094 45.7745 36.0714 45.4907C36.3115 45.2069 36.7263 44.7266 36.9883 44.4209C37.2503 44.1153 38.4511 42.6307 39.6519 41.1461C40.8527 39.6397 42.2936 37.8494 42.8831 37.1726L43.931 35.9281L44.2803 36.0591C44.455 36.1246 44.8698 36.4303 45.1973 36.7359ZM47.0094 49.6825C45.9396 51.9531 45.0663 53.8089 44.6078 54.9441C44.3458 55.5991 44.1275 55.6646 43.5162 55.359C43.3197 55.2498 42.8612 55.0751 42.5119 54.9878C42.1626 54.8786 41.7696 54.6385 41.6604 54.442L41.4421 54.0708L42.6211 52.6954C43.276 51.9313 43.8437 51.2545 43.9092 51.189C43.9747 51.1235 44.3677 50.6432 44.7825 50.0974C45.1973 49.5515 46.0269 48.5473 46.6164 47.8486L47.708 46.5605L47.9045 46.9972L48.101 47.412L47.0094 49.6825Z" fill="black"/>
<path d="M88.2067 30.7102C85.9362 33.09 85.6742 34.1816 87.3334 34.3344L88.0321 34.3999L89.7568 32.7188L91.5034 31.0377V30.2081V29.3785L91.0886 29.1383C90.3026 28.7235 89.9533 28.92 88.2067 30.7102Z" fill="black"/>
<path d="M82.5529 36.7142C82.3782 36.7797 81.4176 37.6312 80.4351 38.5918L78.623 40.382V40.8624V41.3427L79.2125 41.7793L79.7802 42.2378L80.195 42.1068C80.4351 42.0413 81.3958 41.168 82.3564 40.2074L84.0811 38.4171V37.8277V37.2382L83.6008 36.9107C83.0768 36.5395 83.055 36.5395 82.5529 36.7142Z" fill="black"/>
<path d="M86.3942 36.9107C86.1977 37.0854 86.0449 37.5002 86.0449 37.784V38.3298L87.0929 39.4433C89.1015 41.6265 89.4508 41.954 89.8874 42.1068L90.3459 42.2378L90.9135 41.7793L91.503 41.3427V40.8624C91.503 40.3165 90.6734 39.3559 88.8176 37.6967C87.5077 36.5177 86.9619 36.3431 86.3942 36.9107Z" fill="black"/>
</g>
<defs>
<clipPath id="clip0_348_154">
<rect width="100" height="100" fill="white"/>
</clipPath>
</defs>
</svg>
