<svg width="88" height="88" viewBox="0 0 88 88" fill="none" xmlns="http://www.w3.org/2000/svg">
<g clip-path="url(#clip0_348_245)">
<path d="M28.8051 15.277C20.1102 19.041 12.9586 22.1274 12.8834 22.1651C12.6952 22.3533 23.1591 26.9077 23.799 26.9077C24.3636 26.9077 33.2466 23.1437 49.2436 16.105L55.7553 13.2444L50.1846 10.8731C47.1358 9.55567 44.6515 8.46411 44.6139 8.46411C44.6139 8.46411 37.4999 11.5506 28.8051 15.277Z" fill="#2E418E"/>
<path d="M61.9279 17.4978C60.3847 18.1753 37.349 28.2628 34.1496 29.6179C33.171 30.0696 32.4934 30.5589 32.644 30.7094C33.058 31.1235 44.1242 35.9414 44.6888 35.9414C45.2158 35.9414 75.7418 22.8427 76.1558 22.4286C76.3064 22.2781 74.9514 21.4876 73.1446 20.6972C71.3379 19.9068 68.5902 18.7023 67.047 17.9871C63.8476 16.5568 63.9228 16.5568 61.9279 17.4978Z" fill="#2E418E"/>
<path d="M10.9258 45.5018V65.9403L11.9797 66.4296C13.2595 67.0319 39.9462 78.7003 41.6777 79.4154L42.9198 79.9424L42.8445 59.3909L42.7316 38.8019L36.521 36.1294L30.3104 33.4193L30.1222 38.9524L29.934 44.5231L26.3582 42.9423L22.7824 41.3614L22.6695 35.7154L22.5565 30.0694L19.8465 28.9025C18.3785 28.2627 15.7437 27.1335 14.0499 26.4183L10.9258 25.0633V45.5018Z" fill="#161F4D"/>
<path d="M61.9292 32.1772L46.4968 38.8395L46.3839 59.4285L46.3086 79.98L47.5507 79.4907C48.2282 79.1895 55.5304 76.0278 63.7359 72.452L78.679 65.9403V45.6899C78.679 26.6065 78.6414 25.402 78.0391 25.4396C77.6627 25.4396 70.4358 28.4885 61.9292 32.1772Z" fill="#161F4D"/>
</g>
<defs>
<clipPath id="clip0_348_245">
<rect width="88" height="88" fill="white"/>
</clipPath>
</defs>
</svg>
