<svg width="100" height="100" viewBox="0 0 100 100" fill="none" xmlns="http://www.w3.org/2000/svg">
<g clip-path="url(#clip0_348_211)">
<path d="M82.9071 4.4337C82.6669 4.82668 82.4704 5.37249 82.4704 5.65631V6.13662L81.7718 6.92259L81.0513 7.68672L80.178 7.88321C79.6977 7.99237 78.7371 8.10154 78.0603 8.10154C76.5975 8.10154 74.6108 8.49452 74.6108 8.77834C74.6108 8.8875 74.4798 8.97483 74.3051 8.97483C73.3008 8.97483 71.3578 12.075 71.3359 13.6906C71.3359 14.1928 72.1874 15.0879 72.6677 15.0879C73.1699 15.0879 73.9558 14.1491 73.9558 13.5815C73.9558 13.2976 74.1741 12.7082 74.4143 12.2497L74.8728 11.4201L75.8116 10.9616L76.7285 10.5031H78.5188H80.309L81.4007 10.1538L82.4923 9.78263L83.4529 8.86567C84.5008 7.83955 85.3086 6.28945 85.3086 5.30699V4.67385L84.8065 4.21538C84.5227 3.95339 84.086 3.73506 83.824 3.73506H83.3437L82.9071 4.4337Z" fill="black"/>
<path d="M67.6031 17.8386L67.3192 18.1879L67.1446 20.7423C66.7516 26.4624 66.315 34.0382 66.0966 38.4483C65.9875 41.0246 65.8346 43.3388 65.7691 43.5789C65.7036 43.8191 65.5508 45.9805 65.4417 48.3821C65.3325 50.7836 65.1578 53.8183 65.0268 55.1501C64.743 57.9665 64.3937 63.8175 64.1536 69.3193L63.9789 73.2055L63.6732 73.4019C63.2584 73.6639 62.5161 73.6421 62.2323 73.3583L62.014 73.14L62.1231 55.9142L62.2323 38.6885L61.883 38.1645C61.6865 37.8807 61.3372 37.575 61.097 37.5096L60.6604 37.4004L58.7391 38.7103C57.6912 39.4526 56.4686 40.3259 56.0319 40.6534C55.5953 41.0027 55.1586 41.2866 55.0931 41.2866C55.0276 41.2866 54.198 41.8542 53.2592 42.531C52.2986 43.2296 51.3161 43.9501 51.0541 44.1248C50.7703 44.2994 49.9844 44.8671 49.2639 45.391L47.9976 46.3517L47.7356 46.177L47.4736 46.0242L47.6046 42.2472L47.7356 38.4702L47.299 37.9244C46.7095 37.1602 46.3602 37.2039 45.0502 38.1864C44.4389 38.623 43.3473 39.3871 42.6268 39.8674C41.9064 40.3478 41.2077 40.8281 41.0767 40.9591C40.9458 41.0682 40.6401 41.3084 40.4218 41.4612C39.5048 42.0725 36.8413 43.9501 35.2693 45.1072C34.3306 45.784 33.4573 46.308 33.3044 46.2643L33.0424 46.177L33.1079 42.4655L33.1516 38.7758L32.9333 38.1864C32.8241 37.8807 32.5185 37.5532 32.2783 37.4659L31.8417 37.3349L31.2304 37.7279C30.9029 37.9462 30.5754 38.1645 30.5099 38.23C30.4444 38.2955 29.8113 38.7322 29.0908 39.2125C28.3703 39.6928 26.9075 40.7189 25.8159 41.5049C24.7243 42.2908 23.2615 43.317 22.5411 43.7973C21.8206 44.2776 20.6853 45.0635 20.0085 45.5439C19.3317 46.0242 18.5458 46.57 18.2838 46.7446C17.9999 46.9193 17.4541 47.3778 17.0393 47.7708L16.297 48.4694L16.3407 60.8702L16.3625 73.271L15.3582 73.3801C13.699 73.5548 12.913 74.7556 13.8736 75.6288L14.2884 76H50.7485H87.2085L87.5578 75.607C87.7762 75.3887 87.929 74.952 87.929 74.6464V74.0788L87.3832 73.7294L86.8592 73.3801H84.3267H81.8159L81.6194 72.878C81.5103 72.616 81.3793 70.7166 81.292 68.6862C81.2265 66.6339 81.0518 63.8394 80.9426 62.4639C80.8116 61.0885 80.6152 58.1848 80.4842 56.0234C80.3532 53.862 80.113 49.9322 79.9602 47.2904C79.7855 44.6487 79.5672 40.7626 79.4362 38.6667C79.3052 36.5708 79.0869 33.6234 78.9777 32.117C78.8467 30.6105 78.6502 27.5758 78.5192 25.3489C78.3882 23.122 78.2136 20.5458 78.1263 19.607L77.9953 17.9041L77.6678 17.7076L77.3403 17.4893H72.6245H67.8869L67.6031 17.8386ZM75.7247 20.131C75.8339 20.3057 75.9212 21.4628 75.9212 22.729C75.9212 23.9953 76.0304 25.8511 76.1395 26.8772C76.2487 27.9033 76.4452 30.6542 76.5762 32.9903C76.7072 35.3263 76.9473 39.4526 77.122 42.1598C77.2748 44.8671 77.515 48.8842 77.6459 51.1111C77.7769 53.338 77.9734 56.2199 78.1044 57.5517C78.2354 58.8616 78.4319 61.7216 78.5629 63.883C78.6721 66.0444 78.8686 68.4897 78.9777 69.3411C79.2179 71.2405 79.2397 73.3801 79.0432 73.3801C78.9341 73.3801 76.0304 73.4019 72.5372 73.4019L66.2058 73.4238L66.2495 71.83C66.2713 70.9349 66.3805 69.1228 66.5114 67.8129C66.7734 65.0183 67.1228 59.8222 67.4066 54.386C67.5157 52.2901 67.6904 49.4737 67.8214 48.1637C68.0397 45.9368 68.1707 43.6663 68.7165 34.4094C68.8257 32.4881 69.0222 29.5844 69.1532 27.9688C69.2623 26.3532 69.437 23.8643 69.5025 22.4671L69.6335 19.9127L70.092 19.8472C70.3539 19.8035 71.6857 19.7817 73.0393 19.8035H75.5282L75.7247 20.131ZM30.7282 45.4347V49.561L31.143 49.8012C31.8853 50.1942 32.3875 50.0413 33.8502 48.9715C34.6362 48.4039 36.1208 47.3559 37.1688 46.6355C38.1949 45.915 39.221 45.1727 39.4612 44.9981C39.7013 44.8234 40.3781 44.3212 40.9894 43.9064C41.6007 43.4916 42.6487 42.7275 43.3255 42.2035C43.9805 41.7014 44.6791 41.2866 44.8319 41.2866H45.1376V45.26V49.2117L45.5087 49.6265C46.0545 50.216 47.7138 49.823 48.4124 48.9279C48.5216 48.775 49.0456 48.4039 52.5606 45.9805C53.5867 45.2819 54.6346 44.5396 54.8748 44.3649C55.1368 44.1684 55.5734 43.8628 55.8354 43.6881C56.0974 43.5135 56.9489 42.8803 57.7348 42.3127C58.499 41.7232 59.2413 41.2866 59.3504 41.3302L59.5906 41.4175V57.3115V73.2055L59.3941 73.3583C59.3068 73.4238 50.159 73.4674 39.09 73.4238L18.9387 73.3801V61.3723V49.3864L19.9212 48.6659C20.4452 48.2729 21.7333 47.3559 22.7594 46.6355C23.7855 45.915 25.8814 44.4086 27.4097 43.2951C28.9161 42.2035 30.2916 41.2866 30.4444 41.2866H30.7282V45.4347Z" fill="black"/>
</g>
<defs>
<clipPath id="clip0_348_211">
<rect width="100" height="100" fill="white"/>
</clipPath>
</defs>
</svg>
