<svg width="88" height="88" viewBox="0 0 88 88" fill="none" xmlns="http://www.w3.org/2000/svg">
<g clip-path="url(#clip0_348_275)">
<path d="M38.415 9.87141C32.7314 13.5978 26.6714 15.9691 19.2939 17.3994C17.0732 17.8135 14.89 18.2275 14.4384 18.3404C12.8575 18.6415 12.4058 19.9966 12.0294 25.3415C11.8412 28.5409 11.8412 32.2672 12.1047 35.6172C13.4597 54.0231 19.1057 64.9011 32.3926 74.6499C35.0274 76.6071 40.4852 79.4678 41.5015 79.4678C44.3622 79.4678 52.6806 73.9347 58.1761 68.364C65.8923 60.5725 69.4304 52.4799 71.0113 39.0048C71.7265 32.7565 71.5759 21.9162 70.7478 20.1471C70.0327 18.7168 69.0917 18.3028 64.0103 17.3618C56.7081 16.0067 51.6267 14.0495 45.1902 10.0596C43.647 9.11861 42.0285 8.32817 41.6144 8.32817C41.1628 8.32817 39.7324 9.04333 38.415 9.87141ZM44.2869 17.3618C48.352 19.7331 53.3205 21.7657 58.1008 23.0078C60.5474 23.61 62.8811 24.137 63.2575 24.137C64.6501 24.137 64.876 25.4167 64.6501 32.1919C64.1985 44.0862 61.8648 52.7434 57.3856 59.0293C54.0733 63.6966 48.0509 68.9286 43.2706 71.3752L41.5392 72.2785L38.7914 70.5847C30.8494 65.6915 25.0152 59.1422 22.3051 52.0659C19.8585 45.7047 18.1271 34.0739 18.654 27.6375C18.8422 25.2285 19.0304 24.5134 19.5198 24.3628C19.8962 24.2499 21.7029 23.8359 23.5849 23.4218C29.118 22.1797 36.8718 19.0932 39.9206 16.8348C40.6358 16.3079 41.351 15.8938 41.4639 15.8562C41.6144 15.8562 42.8566 16.5337 44.2869 17.3618Z" fill="#161F4D"/>
<path d="M37.8875 22.6689C33.5965 24.8521 29.6067 26.3953 25.6545 27.3363L22.8691 28.0138L23.095 33.6975C23.4337 42.4299 25.1275 49.2428 28.3646 54.7759C30.3219 58.2011 34.8763 62.9061 38.565 65.3903L41.5386 67.3853L42.9313 66.6701C43.7217 66.2561 45.6037 64.9387 47.1093 63.7342C55.7289 56.8837 59.7187 47.8125 60.5091 33.1705C60.6973 29.3689 60.6597 28.729 60.0951 28.1644C59.7187 27.8256 59.1541 27.5245 58.7777 27.5245C56.6699 27.5245 49.7817 24.8144 41.8021 20.8999C41.6891 20.8246 39.9577 21.6527 37.8875 22.6689Z" fill="#2E418E"/>
</g>
<defs>
<clipPath id="clip0_348_275">
<rect width="88" height="88" fill="white"/>
</clipPath>
</defs>
</svg>
