<svg width="100" height="100" viewBox="0 0 100 100" fill="none" xmlns="http://www.w3.org/2000/svg">
<g clip-path="url(#clip0_348_192)">
<path d="M43.9899 16.2455L43.5751 16.5511L43.3786 17.5991C43.2912 18.1886 43.0948 19.3239 42.9856 20.1753C42.8546 21.005 42.6581 22.1184 42.5271 22.6424L42.2651 23.5593L41.6975 23.6903C40.191 24.0396 36.6324 25.5461 36.0429 26.1137C35.5626 26.5722 35.3006 26.463 33.0519 24.8038C30.1263 22.686 29.777 22.4677 29.1657 22.4677H28.6636L24.9084 26.2447L21.1532 30.0217V30.4802C21.1532 30.7203 21.6335 31.55 22.2012 32.3141C22.7907 33.0782 23.7294 34.3882 24.2971 35.2178L25.345 36.7024L24.3408 38.6455C23.7949 39.7153 23.3365 40.7632 23.3365 40.9816C23.3365 41.178 23.14 41.6802 22.8998 42.0732L22.4632 42.7936L20.3236 42.7281L18.2059 42.6626L18.1404 41.4619L18.0749 40.2611L17.7255 39.8899L17.3762 39.497H14.8218H12.2893L11.8526 39.8026L11.4378 40.1083V41.3964V42.6626L9.69124 42.5971C7.85732 42.5317 7.61717 42.5971 7.24602 43.3176L7.00586 43.7324L7.31151 44.3656L7.639 44.9769L9.32009 44.955C10.237 44.9332 11.1322 44.9332 11.285 44.9332L11.547 44.955V50.3913V55.8494L11.285 56.024C11.1322 56.1114 10.4335 56.155 9.75674 56.1114C8.18481 56.024 7.68266 56.1987 7.31151 56.941L7.00586 57.5305L7.39884 58.0545L7.79182 58.5784L9.62574 58.6003H11.4378V59.8447V61.0892L11.8745 61.4166L12.3111 61.7441L14.7127 61.766H17.1361L17.5946 61.4385L18.0749 61.111L18.1404 59.8447L18.2059 58.6003H20.4764H22.747L23.2491 60.0194C23.533 60.8053 24.1224 62.1371 24.5591 63.0104L25.345 64.5605L25.1267 64.9753C24.9957 65.1936 24.0569 66.4817 23.0308 67.8572C22.0047 69.2326 21.1532 70.5426 21.1532 70.7609V71.1975L24.9302 74.9964L28.7072 78.7952H29.1875C29.777 78.7952 30.2573 78.5114 32.9864 76.4591C35.4753 74.5816 35.2351 74.6252 37.5493 75.8042C39.3396 76.7211 40.9552 77.3761 41.7411 77.5289L42.156 77.5944L42.4398 78.4459C42.6144 78.9262 42.7891 79.9523 42.8764 80.7383C43.0729 82.9215 43.4659 84.6681 43.8589 85.0174L44.2082 85.3231L49.6008 85.3449C52.57 85.3667 55.0807 85.3231 55.1899 85.2576C55.5174 85.0393 56.085 83.1398 56.085 82.201C56.1068 81.6989 56.1942 80.8693 56.3252 80.3235C56.4343 79.7777 56.5871 78.9917 56.6526 78.5332L56.7836 77.7472L58.2464 77.2669C59.8183 76.743 62.7875 75.3675 62.984 75.0619C63.1587 74.778 64.0975 74.8217 64.425 75.1492C64.5778 75.302 65.1673 75.7387 65.7349 76.1317C66.2807 76.5246 66.892 76.9613 67.0448 77.0923C67.8526 77.8564 69.4246 78.7952 69.8831 78.7952H70.3852L74.1622 75.0182L77.9174 71.263V70.7827V70.3242L76.5419 68.4903C75.7996 67.486 74.8608 66.1979 74.446 65.6085L73.7256 64.5387L74.5333 62.9667C74.97 62.0934 75.5376 60.7617 75.7996 59.9975L76.2799 58.6003H78.5723H80.8647L80.9302 59.8447L80.9957 61.111L81.476 61.4385L81.9345 61.766H84.3579L86.7595 61.7441L87.1961 61.4166L87.6328 61.0892V59.8447V58.6003L89.2702 58.5784C91.4753 58.5348 91.3661 58.5566 91.7591 57.9453L92.1302 57.3777L91.6499 56.7227L91.1696 56.0459L89.6195 56.1114C88.768 56.155 87.9384 56.1114 87.8074 56.024L87.5236 55.8494V50.3913V44.955L87.8074 44.9332C87.9384 44.9332 88.8335 44.9332 89.7505 44.955L91.4316 44.9769L91.7372 44.3874L92.0647 43.7761L91.8246 43.274C91.5408 42.619 90.9076 42.4662 89.161 42.5971L87.7638 42.7281L87.6546 42.4225C87.5891 42.2697 87.6109 41.7894 87.6764 41.3745L87.8074 40.5886L87.4363 40.0428L87.087 39.497H84.4016L81.738 39.5188L81.3669 39.8026L80.9957 40.0646L80.9302 41.3745L80.8647 42.6626L78.8125 42.7281L76.7821 42.7936L76.4764 42.5317C76.3018 42.4007 76.0179 41.7894 75.8433 41.1999C75.6686 40.6104 75.1447 39.3441 74.6643 38.3835L73.791 36.6588L74.4679 35.6108C74.8608 35.0432 75.7778 33.7769 76.5419 32.7726C77.3061 31.7683 77.9174 30.7422 77.9174 30.502V30.0435L74.9045 26.9652C73.2234 25.2623 71.6951 23.6903 71.455 23.4283C71.2367 23.1664 70.7564 22.7952 70.4289 22.5769L69.8176 22.1839L68.5731 23.0354C67.8963 23.4938 67.2413 23.9742 67.1103 24.0615C66.1061 24.8474 63.8355 26.3975 63.6608 26.3975C63.5517 26.3975 62.984 26.1137 62.4382 25.7644C61.8706 25.4369 61.1719 25.0658 60.8663 24.9784C60.5825 24.8911 60.255 24.7383 60.124 24.651C59.8402 24.4763 58.1154 23.865 57.3949 23.6903L56.8491 23.5812L56.5871 22.6424C56.4343 22.1184 56.216 20.9613 56.1068 20.0662C55.9758 19.171 55.7794 18.0139 55.6702 17.4899L55.4955 16.5511L55.0807 16.2455L54.6659 15.9398H49.5353H44.4047L43.9899 16.2455ZM53.5088 19.5203C53.6179 20.0007 53.8363 21.3543 54.0109 22.5332C54.1856 23.7122 54.4912 24.8911 54.6877 25.1968L55.0152 25.6989L55.9322 25.8517C56.4343 25.9391 56.9583 26.0919 57.0675 26.1792C57.1985 26.2665 57.5914 26.4194 57.9844 26.5067C58.3774 26.5722 59.1852 26.8779 59.7965 27.1835C60.386 27.4673 60.9318 27.7075 60.9973 27.7075C61.041 27.7075 61.5868 27.9913 62.1981 28.3625C62.8094 28.7118 63.5517 29.0174 63.8573 29.0174H64.4031L65.5384 28.1878C66.1716 27.7293 67.3505 26.8779 68.1801 26.2884L69.6647 25.2623L72.2628 27.8385C75.1665 30.7203 75.0573 30.5675 74.315 31.55C74.0094 31.943 73.7692 32.3141 73.7692 32.3796C73.7692 32.4451 73.1579 33.2966 72.4374 34.279L71.1057 36.0474V36.5714C71.1057 36.8552 71.2367 37.2482 71.3895 37.4447C72.0881 38.2962 73.8129 41.8767 73.7256 42.3133L73.6601 42.6626H70.7127C69.0971 42.6626 67.5688 42.6408 67.3068 42.5971L66.8702 42.5317L66.3244 41.5055C59.3599 28.1223 39.7107 28.1223 32.7244 41.5055C32.4406 42.095 32.0912 42.5535 31.9602 42.5753C31.8511 42.5753 30.3447 42.619 28.6417 42.6626L25.5415 42.75L25.3887 42.5317C25.1704 42.1605 25.4542 41.4619 26.7423 39.1695C27.3973 37.9687 27.9649 36.7679 27.9649 36.5278L27.9868 36.0693L26.4585 34.017C25.6289 32.8818 24.7556 31.6373 24.5154 31.2443L24.1006 30.5457L26.7641 27.904L29.4059 25.2623L31.2179 26.5285C32.2222 27.2272 33.3575 27.9913 33.7068 28.2315C34.078 28.4934 34.4055 28.7554 34.4273 28.8428C34.6238 29.2794 35.8901 28.9083 38.2698 27.7075C39.7107 26.987 41.108 26.3975 41.37 26.3975C41.6538 26.3975 41.9158 26.3102 42.0031 26.2011C42.0686 26.0701 42.5708 25.9172 43.1166 25.8299L44.099 25.6989L44.4484 25.1531C44.6448 24.8693 44.9287 23.7122 45.1033 22.6205C45.4526 20.1535 45.6055 19.171 45.7365 18.7999L45.8238 18.5379L49.579 18.5816L53.356 18.6471L53.5088 19.5203ZM52.0242 34.0607C55.692 34.7375 58.5084 36.0911 60.9318 38.3617C62.1981 39.5406 64.2066 42.095 64.0975 42.4007L64.032 42.619L49.5353 42.5971L35.0168 42.5753L35.0823 42.2915C35.4971 40.4794 39.8417 36.5496 42.7673 35.3488C43.4222 35.0868 44.1645 34.7812 44.4047 34.672C46.0203 33.9515 49.7755 33.6459 52.0242 34.0607ZM15.6515 41.8548L15.9135 42.0295L15.9353 50.5005L15.9571 58.9714L15.6733 59.1679C15.2803 59.4081 14.3634 59.4081 13.9704 59.1679L13.6429 58.9714L13.6647 50.5005L13.6866 42.0513L13.9704 41.8767C14.3415 41.6365 15.2803 41.6365 15.6515 41.8548ZM85.3185 42.0295C85.384 42.095 85.4714 45.9375 85.4932 50.5441L85.515 58.9278L85.0784 59.1679L84.6417 59.4081L83.8994 59.2552L83.1571 59.1242V57.989C83.1353 57.3558 83.1571 53.557 83.1571 49.5398V42.226L83.5501 41.9422L83.9213 41.6584L84.5544 41.7675C84.9037 41.8548 85.253 41.964 85.3185 42.0295ZM80.9302 50.1293C80.9521 52.9894 80.9302 55.5219 80.8866 55.7621L80.7774 56.1987L49.4916 56.155L18.2059 56.1114L18.1404 50.697C18.1185 47.7278 18.1185 45.1952 18.184 45.0642L18.2495 44.8459L49.5571 44.8895L80.8647 44.955L80.9302 50.1293ZM32.7244 59.4081C33.5322 60.9582 34.602 62.4646 35.7154 63.6217C38.3135 66.3071 39.4924 67.1149 43.3131 68.7523C44.2082 69.1235 45.7801 69.4509 47.7232 69.6693L49.7318 69.8876L51.5439 69.6693C53.3341 69.4509 54.9061 69.1016 55.7575 68.7523C55.9977 68.6432 56.74 68.3375 57.3949 68.0755C58.0499 67.7917 58.6394 67.5079 58.7049 67.4424C58.7704 67.3769 59.2507 67.0494 59.7965 66.7437C62.0234 65.4556 65.0581 62.0934 66.3025 59.5172L66.8047 58.4911H70.2979H73.7692V58.8404C73.7692 59.3207 71.5641 63.7309 71.324 63.7309C71.2367 63.7309 71.1493 64.0802 71.1493 64.495V65.2591L73.0051 67.748C74.0312 69.1235 74.8608 70.3679 74.8608 70.5426C74.8608 70.6954 73.6819 72.0053 72.2628 73.4244L69.6429 76.0225L66.9794 74.0357L64.294 72.0272L63.8573 72.049C63.5953 72.049 62.9185 72.3328 62.3072 72.6821C61.2593 73.2934 59.7528 74.0576 58.814 74.4506C58.0499 74.778 55.6047 75.5203 55.2772 75.5203C54.7969 75.5203 54.3602 76.8303 54.0328 79.2755C53.8799 80.52 53.6179 81.7862 53.487 82.1356L53.2468 82.725L49.5135 82.6814L45.7583 82.6159L45.4745 81.5242C45.3217 80.9129 45.1252 79.6248 45.0378 78.6424L44.885 76.8521L44.492 76.1753C44.2737 75.826 43.9462 75.5203 43.7497 75.5203C42.8328 75.5203 39.3178 74.1012 37.3965 72.966C36.545 72.442 35.5844 72.0272 35.3006 72.0272H34.7548L33.2702 73.1625C32.4406 73.7956 31.2398 74.6907 30.5848 75.171L29.3622 76.0225L26.786 73.3371C25.3669 71.8743 24.2098 70.5862 24.2098 70.4989C24.2098 70.3897 25.0394 69.189 26.0655 67.8135L27.9213 65.3028V64.5605C27.9213 64.1457 27.8121 63.709 27.7029 63.5999C27.1571 63.0541 25.3014 59.3426 25.3014 58.7968V58.4911H28.7727H32.2441L32.7244 59.4081ZM63.9447 58.8404C63.9447 59.2116 62.0671 61.7223 61.1064 62.6174C58.3774 65.1718 55.168 66.7001 51.3474 67.224L49.3606 67.5079L47.9634 67.2677C47.2211 67.1367 46.1731 66.9621 45.671 66.8747C45.147 66.8092 44.6885 66.6564 44.6012 66.5472C44.5357 66.4381 44.3392 66.3508 44.1645 66.3508C42.0686 66.3508 35.1259 60.5433 35.1259 58.7968V58.4911H49.5353H63.9447V58.8404Z" fill="black"/>
</g>
<defs>
<clipPath id="clip0_348_192">
<rect width="100" height="100" fill="white"/>
</clipPath>
</defs>
</svg>
