<svg width="100" height="100" viewBox="0 0 100 100" fill="none" xmlns="http://www.w3.org/2000/svg">
<g clip-path="url(#clip0_348_116)">
<path d="M45.9323 28.2875C41.0419 29.0298 35.9767 32.3701 33.0949 36.7366L32.0688 38.3085H28.4664H24.8641L24.8204 38.0247C24.7986 37.8937 24.7767 37.1951 24.7767 36.5183C24.7549 35.8415 24.6458 35.1647 24.5366 35.0555L24.3183 34.8372L21.0434 34.7935L17.7904 34.7717L17.5066 35.1865L17.2009 35.5795L17.2446 36.7148C17.3101 38.2649 17.4847 38.1994 13.1183 38.1339L9.25394 38.0902L8.77363 38.505L8.27148 38.9198V39.4657C8.27148 39.7495 8.46798 40.1643 8.70813 40.3826L9.12295 40.7538L13.1838 40.7319L17.2228 40.6883V40.9284C17.3101 42.8933 17.2228 54.9448 17.1136 55.0976L16.9826 55.3159L13.2056 55.185L9.4286 55.054L8.86096 55.4688L8.29332 55.8836L8.27148 56.4512V57.0189L8.70813 57.4119L9.14478 57.8048L13.1838 57.7612L17.2228 57.7175L17.2446 58.0013C17.2446 58.1542 17.2446 58.7218 17.2228 59.2676L17.2009 60.2501L17.5284 60.6867L17.8341 61.1234L20.8688 61.1889L23.8816 61.2543L24.3183 60.9269L24.7549 60.6212V59.2239V57.8485L28.4882 57.783L32.2216 57.7393L33.1167 59.0929C35.8239 63.3066 40.8017 66.6251 45.8231 67.5639C48.2465 68.0224 52.9842 67.7604 55.3202 67.0399C57.3506 66.4286 58.0493 66.1448 58.0493 65.992C58.0493 65.8828 58.1584 65.8173 58.2894 65.8173C59.5775 65.8173 64.2933 61.7347 65.9089 59.2021L66.8477 57.7393L70.581 57.783L74.3144 57.8485V59.2239V60.6212L74.751 60.9487L75.1877 61.2543L78.2879 61.1889C81.8465 61.1234 81.7155 61.167 81.781 59.4204C81.8029 58.6781 81.8247 57.9795 81.8465 57.8922C81.8465 57.8048 83.6586 57.7393 85.8855 57.7612L89.9463 57.783L90.3612 57.4119L90.7978 57.0189V56.4294V55.8181L90.2083 55.4469L89.6189 55.054L85.8419 55.185L82.0867 55.3159L81.9557 55.1195C81.8902 54.9885 81.8247 51.7354 81.8029 47.8711V40.8193L85.8637 40.7974L89.9245 40.7756L90.3612 40.3826L90.7978 39.9896V39.422V38.8325L90.3175 38.4395L89.859 38.0247L85.951 38.1339L82.043 38.243L81.912 38.0247C81.8247 37.8937 81.8029 37.3261 81.8247 36.7366C81.8465 36.169 81.7592 35.4922 81.6282 35.252L81.3881 34.8154H78.004H74.6419L74.4017 35.4048C74.2707 35.7542 74.227 36.3873 74.2925 36.8239C74.358 37.2606 74.358 37.7846 74.2925 37.9592L74.1615 38.3085H70.7339H67.3062L66.9569 38.0247C66.7822 37.8937 66.2364 37.1733 65.7779 36.4528C61.7826 30.2742 53.9448 27.043 45.9323 28.2875ZM52.482 30.4707C52.9623 30.6017 53.7701 30.7764 54.2723 30.8855C54.7744 30.9947 55.3639 31.1694 55.5822 31.2785C55.8005 31.3877 56.6738 31.8025 57.5035 32.1955C62.1319 34.4224 65.3413 38.4832 66.7822 43.985L67.2189 45.6224V47.8711V50.1417L66.8695 51.5826C65.4941 57.1935 62.0882 61.5163 57.176 63.8742C56.6302 64.1362 56.0189 64.42 55.8224 64.5292C55.604 64.6384 54.5343 64.9222 53.4208 65.1842L51.3904 65.6427L48.7705 65.5335C46.0851 65.4243 45.845 65.3588 42.8976 64.2454C36.3916 61.7565 31.8504 55.0758 31.8504 47.9803V46.2337L32.2652 44.2906C33.1604 40.2735 34.7323 37.5007 37.6578 34.8372C38.9459 33.6582 41.8278 31.8462 42.7666 31.606C43.0723 31.5405 43.4216 31.3877 43.5526 31.3004C43.6836 31.1912 44.2294 31.0165 44.7534 30.8855C45.2773 30.7764 46.0633 30.6017 46.4781 30.4926C47.5261 30.2087 51.4122 30.1869 52.482 30.4707ZM22.5717 37.4789C22.6372 37.7627 22.659 42.6532 22.6372 48.3514L22.5717 58.7218H21.0434H19.5151L19.4497 48.2859L19.406 37.8501L19.6243 37.4352L19.8645 36.9986H21.1526H22.4625L22.5717 37.4789ZM79.5323 37.6972C79.5978 38.0902 79.6415 42.9807 79.5978 48.5697L79.5541 58.7218H78.0259H76.4976L76.4321 48.3514C76.4103 42.6532 76.4321 37.7627 76.4976 37.4789L76.6068 36.9986H78.0259H79.4231L79.5323 37.6972ZM30.9335 40.8193C30.999 40.8848 30.9553 41.1467 30.8243 41.4306C29.4707 44.2469 29.4707 53.0454 30.8243 54.3772C30.9116 54.4645 30.9771 54.7265 30.9771 54.9448V55.3378H27.9424H24.9077L24.7767 55.0103C24.7113 54.8138 24.6458 51.6044 24.6458 47.8711V41.0812L24.8422 40.8411L25.0387 40.6009L27.9206 40.6446C29.5144 40.6664 30.868 40.7538 30.9335 40.8193ZM74.1615 40.7974L74.4235 40.9503V47.8056C74.4235 51.5608 74.358 54.792 74.2925 54.9885L74.1615 55.3378H71.2578H68.3323L68.1795 55.0976C68.114 54.9666 68.1358 54.6391 68.2668 54.399C68.6816 53.5257 69.0091 51.9756 69.2493 49.836L69.4676 47.6965L69.2274 45.797C68.9873 43.7666 68.5288 41.7362 68.245 41.4524C67.9612 41.1686 68.0703 40.7538 68.4633 40.6664C69.1838 40.5354 73.8996 40.6446 74.1615 40.7974Z" fill="black"/>
<path d="M46.4779 32.8505C41.4128 33.6583 36.8499 37.8283 34.8413 43.4392L34.3828 44.7491V47.9148V51.0805L34.8631 52.4123C36.9809 58.4599 41.6312 62.346 47.7442 63.2193L49.5345 63.4595L51.3466 63.2193C57.5469 62.3242 62.0007 58.5909 64.2276 52.3905L64.6861 51.0805V47.9148V44.7491L64.2276 43.4392C61.4549 35.6232 54.5996 31.5406 46.4779 32.8505ZM53.2678 35.2302C54.0538 35.4486 54.9926 35.7979 55.3855 35.9944L56.0842 36.3655V36.7148C56.0842 36.9332 54.8397 38.3523 53.3115 39.8805L50.5169 42.6751H49.5345H48.552L45.7575 39.8369L42.9848 37.0205V36.562V36.1254H43.2904C43.4651 36.1254 43.8799 35.9944 44.2292 35.8197C44.5567 35.645 45.3427 35.3612 45.9321 35.1647L47.0237 34.8373H49.4253L51.8269 34.8154L53.2678 35.2302ZM43.4214 40.4482C44.6877 41.7363 45.8666 42.9589 46.0195 43.1772L46.3251 43.5702L45.823 44.0942C45.1243 44.8365 45.3427 44.9675 42.4171 42.0201C39.4698 39.0291 39.5352 39.1382 40.0811 38.5488C40.736 37.8283 41.0417 38.0029 43.4214 40.4482ZM58.9224 38.5269C59.5555 39.1601 59.621 39.0291 56.63 42.0201L53.9228 44.7273L53.3551 44.2033C52.591 43.4829 52.5255 43.6139 55.3419 40.7102C58.0273 37.9593 58.2237 37.8283 58.9224 38.5269ZM41.391 44.0287L44.0109 46.7141L44.1419 47.8057L44.251 48.8973L41.6093 51.6482L38.9458 54.4209L38.4436 54.3772L37.9197 54.3554L37.5267 53.3729C37.3083 52.8271 36.959 51.8228 36.7625 51.146L36.3914 49.8797L36.5006 47.5437C36.6097 45.2731 36.8935 43.8977 37.614 42.1729L37.9633 41.3651H38.3563H38.7493L41.391 44.0287ZM61.5423 42.4567C61.7606 43.0026 62.0881 43.9632 62.2846 44.6181L62.6339 45.7753V47.9803V50.1636L62.2627 51.3862C61.4986 54.0279 60.8 55.0104 60.1887 54.3772C60.0358 54.2026 58.7477 52.8926 57.3505 51.4517L54.7742 48.8318V47.893V46.9542L57.4596 44.1815L60.1232 41.4088L60.6253 41.4525L61.1493 41.4743L61.5423 42.4567ZM51.1501 45.0985C51.5649 45.3386 52.1107 45.8844 52.3508 46.2992L52.8093 47.0634V47.9585V48.8536L52.3508 49.5741C52.1107 49.9671 51.5867 50.4911 51.1937 50.7312L50.4733 51.1897H49.5345H48.5957L47.8752 50.753C47.4822 50.4911 46.9583 49.9452 46.7181 49.5304L46.2596 48.7663V47.8493V46.9324L46.6963 46.2774C46.9364 45.9063 47.4386 45.4041 47.8315 45.1421L48.552 44.6618H49.469L50.3859 44.64L51.1501 45.0985ZM45.8448 51.67C46.0631 51.9538 46.2378 52.2158 46.2596 52.2813C46.2596 52.5433 41.0635 57.7394 40.7797 57.7394C40.605 57.7394 40.2994 57.4774 40.0811 57.1936L39.6881 56.6478L39.9064 56.233C40.1902 55.709 44.9497 51.1897 45.2117 51.1897C45.3208 51.1897 45.6046 51.408 45.8448 51.67ZM56.7828 53.8532C59.621 56.8224 59.5337 56.6914 58.9224 57.3027C58.1583 58.0669 58.2456 58.1542 53.9228 53.5257L52.7438 52.2813L53.246 51.7355C53.9883 50.9495 53.9883 50.9495 56.7828 53.8532ZM53.4425 56.102C55.0144 57.6957 56.3025 59.093 56.3025 59.224C56.3025 59.5078 54.8834 60.1628 53.2241 60.6431L52.0015 61.0142H49.4035H46.7836L45.6046 60.5994C44.9497 60.3593 44.0764 60.01 43.7052 59.8135L42.9848 59.4642V59.0712V58.7L45.7793 55.971L48.552 53.2419H49.5781L50.5824 53.2201L53.4425 56.102Z" fill="black"/>
</g>
<defs>
<clipPath id="clip0_348_116">
<rect width="100" height="100" fill="white"/>
</clipPath>
</defs>
</svg>
