<svg width="88" height="88" viewBox="0 0 88 88" fill="none" xmlns="http://www.w3.org/2000/svg">
<g clip-path="url(#clip0_348_230)">
<path d="M38.3105 9.51828C33.2668 10.4593 27.8843 12.8306 23.8944 15.8418C6.39182 29.0158 4.5851 54.4228 20.0551 70.0058C33.4926 83.5562 54.6463 83.8573 68.5731 70.7209C79.6016 60.3699 82.9516 44.5611 77.1174 30.559C72.977 20.6597 64.0939 12.9059 53.63 10.0829C49.6778 9.02896 42.3757 8.76548 38.3105 9.51828ZM52.3126 16.1429C57.1682 17.4603 60.7063 19.6058 64.7338 23.6333C68.7613 27.6608 70.3422 30.1074 71.9231 34.6994C74.1438 41.1359 74.2191 47.8734 72.0736 54.084C68.0085 66.0159 57.0929 74.0709 44.8975 74.0709C31.7235 74.0709 20.5821 65.4513 16.8557 52.3526C15.7642 48.5133 15.6889 40.91 16.7052 37.1837C18.8883 29.0534 24.3837 22.1653 31.6106 18.4013C38.1223 15.0137 45.3869 14.2233 52.3126 16.1429Z" fill="#161F4D"/>
<path d="M42.9034 19.7189C37.2951 20.3587 30.708 23.8969 27.8474 27.8491C26.5676 29.6182 26.4171 30.785 27.3957 31.6507C28.7508 32.8552 30.0305 32.4412 32.3266 30.1075C36.0153 26.2682 41.9248 24.0098 46.818 24.5744C54.7977 25.4778 61.4599 31.6131 63.4172 39.8939C65.6003 49.1533 61.1588 58.7139 52.7651 62.8919L49.5281 64.4728H45.1995C40.9461 64.4728 40.7579 64.4352 37.8973 63.0801C32.7783 60.6335 29.0142 56.1167 27.3204 50.3955C26.9817 49.2663 26.7182 47.9489 26.7182 47.4595C26.7182 46.6691 26.8688 46.5938 28.6002 46.5938C30.0305 46.5938 30.4822 46.4433 30.4822 46.0292C30.4822 45.6905 29.2024 43.2439 27.6216 40.5338C25.6266 37.1462 24.5727 35.6782 24.1587 35.7535C23.4435 35.9041 17.5717 45.8787 17.9857 46.2551C18.1363 46.4056 19.002 46.5938 19.9054 46.6691L21.5992 46.782L22.0508 49.2663C23.0295 54.6864 25.6266 59.3914 29.6165 63.1178C42.7529 75.4637 62.6268 69.3284 67.9717 51.2988C68.875 48.2876 68.875 41.7006 68.0093 38.313C65.2616 27.8867 56.7173 20.434 46.6674 19.7565C45.3124 19.6812 43.6186 19.6436 42.9034 19.7189Z" fill="#2E418E"/>
<path d="M43.5428 28.7899C43.3922 28.9028 43.2793 31.8011 43.2793 35.2263C43.2793 41.2487 43.2416 41.4369 42.3383 42.5285C41.0585 44.0341 41.0962 45.6149 42.4888 47.0076C43.2793 47.7604 43.9568 48.0992 44.8602 48.0992C45.8764 48.0992 46.7422 48.6638 49.6028 51.1104C51.5601 52.7665 53.3668 54.1216 53.6303 54.1216C54.3078 54.1216 55.3241 53.0677 55.3241 52.3525C55.3241 51.7503 53.028 49.4919 49.9792 47.0453C48.6618 46.029 48.2101 45.3891 48.1725 44.6363C48.1725 44.1093 47.7584 43.1307 47.2315 42.5285C46.3281 41.4369 46.2905 41.2487 46.2905 35.4145C46.2905 31.2741 46.1399 29.2792 45.8388 28.9781C45.3495 28.4887 43.9568 28.3758 43.5428 28.7899Z" fill="#2E418E"/>
</g>
<defs>
<clipPath id="clip0_348_230">
<rect width="88" height="88" fill="white"/>
</clipPath>
</defs>
</svg>
