<svg width="100" height="100" viewBox="0 0 100 100" fill="none" xmlns="http://www.w3.org/2000/svg">
<g clip-path="url(#clip0_348_173)">
<path d="M41.0141 16.3244C40.7084 16.4554 38.7653 17.7871 38.285 18.1801C38.1759 18.2893 36.6039 19.4464 34.7918 20.7563C33.0016 22.0663 31.4297 23.2234 31.2987 23.3107C30.9057 23.6382 29.0718 25.0136 28.5696 25.3411C28.3076 25.5158 27.9583 25.7559 27.8273 25.8869C27.6963 25.9961 27.2378 26.3454 26.8012 26.6511C26.3646 26.9567 25.7314 27.4152 25.3821 27.699C25.0328 27.961 23.4827 29.1181 21.9108 30.2534C20.3607 31.3887 18.8106 32.524 18.4831 32.8078L17.8718 33.3099L17.8499 37.6109C17.8281 39.9688 17.8936 41.9992 17.9809 42.1302L18.1119 42.3704H30.0542H41.9965L42.6952 42.807L43.3938 43.2218L43.5903 44.0515L43.8086 44.8811L43.7649 52.0858L43.7431 59.2904L41.9747 59.3996L40.1844 59.5088L39.6823 59.9454C38.8527 60.6222 20.5135 78.3501 19.2472 79.6819L18.7451 80.2058V82.6511C18.7451 84.0047 18.6796 85.5329 18.6141 86.0788L18.4831 87.0612L18.9852 87.5415L19.4874 88H42.6952H65.9248L66.4051 87.4979C67.0382 86.8429 69.3743 84.1793 70.1821 83.1969C70.5314 82.7821 70.9681 82.2799 71.1427 82.1053C71.6885 81.5158 74.2429 78.6121 75.8367 76.7563C76.6663 75.7957 77.4086 74.9661 77.4741 74.9006C77.5396 74.8351 78.5221 73.6998 79.6355 72.3899C80.7708 71.0581 81.8187 69.8791 81.9497 69.77C82.0807 69.639 82.8012 68.8312 83.5435 67.9361L84.8971 66.3205V63.2203V60.1419L84.6351 59.8799L84.3731 59.6179H79.8538H75.3345L74.7014 59.2468C74.3521 59.0503 73.8936 58.6136 73.6971 58.2643L73.326 57.6312V48.4179C73.326 43.3528 73.326 38.768 73.326 38.2222V37.2179L79.6137 30.9084L85.8796 24.577L85.9451 20.8655L86.0106 17.154L85.7049 16.761L85.4211 16.3462L63.3704 16.2589C51.2534 16.2152 41.1887 16.237 41.0141 16.3244ZM81.4913 18.7478C81.5568 18.8569 80.5088 19.9485 79.1552 21.2148C76.3825 23.7692 73.0203 26.9786 69.5053 30.4062L67.1037 32.7641L46.4722 32.786C26.0807 32.8078 23.0897 32.786 22.915 32.655C22.784 32.5021 25.1419 30.6901 27.9801 28.7688C28.2203 28.6378 29.3993 27.7864 30.6 26.8912C31.8226 25.9961 33.3291 24.9045 33.9404 24.4897C34.5517 24.053 35.3377 23.4854 35.687 23.2016C36.0363 22.9396 37.4991 21.8261 38.9618 20.7563L41.6035 18.7914L57.4102 18.7259C66.0994 18.7041 75.0507 18.6604 77.2994 18.6168C79.5482 18.5949 81.4258 18.6604 81.4913 18.7478ZM83.5872 21.9571V23.5945L81.2511 25.9524C79.9412 27.2405 76.71 30.5591 74.0464 33.2881L69.1996 38.2659L68.894 38.1567L68.5665 38.0476L68.632 36.8686C68.6538 36.2355 68.6757 35.4058 68.6975 35.0347L68.7412 34.3579L70.4004 32.7423C71.3174 31.8472 72.5618 30.6246 73.195 30.0351C73.8063 29.4238 76.317 27.0004 78.7622 24.6207C81.2074 22.2628 83.3033 20.3197 83.3907 20.3197C83.4998 20.3197 83.5872 21.062 83.5872 21.9571ZM66.4488 37.5673V40.078H59.7899H53.131L52.2141 40.6893C51.6901 41.0168 51.0133 41.6936 50.6858 42.1957L50.0745 43.1127L50.009 56.6487C49.9653 64.1154 50.009 72.1934 50.0745 74.6386L50.2273 79.0706L50.926 79.9657C51.2971 80.4678 51.9739 81.0573 52.4542 81.2975L53.3057 81.7341L58.7201 81.6904L64.1345 81.6468L64.3529 82.0834C64.4839 82.3236 64.593 83.1096 64.593 83.83V85.14L64.3529 85.2928C64.0909 85.4456 21.3868 85.4238 21.103 85.2491C21.0156 85.1836 20.9283 84.4413 20.9283 83.6117V82.1053L21.4741 81.8869L22.0199 81.6686L31.6916 81.8214L41.3416 81.9524L42.5642 81.6904L43.7649 81.4285L44.5727 80.7735L45.3805 80.1185L45.8172 79.1142L46.2538 78.1099V60.9934V43.8768L45.708 42.7197L45.1622 41.5626L44.3326 40.9731C43.8523 40.6456 43.1536 40.2963 42.7388 40.1653L41.9965 39.947L31.2987 39.9688C25.4258 39.9906 20.4698 39.9906 20.3388 39.9906L20.055 39.9688V37.6109C20.055 36.301 20.1205 35.1657 20.186 35.1002C20.2733 35.0129 30.7092 34.991 43.3938 35.0129L66.4488 35.0565V37.5673ZM70.9681 49.3131L70.9244 58.8538L61.6675 68.1762C56.5805 73.3068 52.3669 77.455 52.3232 77.4113C52.2577 77.3458 52.2577 69.8136 52.3014 60.6659L52.3887 44.0078L52.6507 43.5057C52.7817 43.2218 53.2402 42.8507 53.6332 42.676L54.3755 42.3704H61.1435H67.9115L69.3525 40.9731C70.1603 40.1871 70.8589 39.5977 70.9026 39.6632C70.9681 39.7287 70.9899 44.0733 70.9681 49.3131ZM73.7626 61.3645L74.6141 61.8012H77.6706C79.3517 61.8012 80.7708 61.8885 80.8363 61.9758C80.88 62.0632 80.0722 63.0238 79.046 64.1154C77.9981 65.1852 76.1642 67.1501 74.9634 68.46C73.7626 69.7918 72.3217 71.3419 71.7759 71.9532C71.2301 72.5427 70.2039 73.6998 69.4835 74.4858C68.7848 75.2717 67.4749 76.7127 66.6016 77.6951L64.986 79.4854H59.5934C56.6242 79.4854 54.1353 79.4199 54.0698 79.3544C53.8733 79.1797 72.0815 61.0152 72.5182 60.9715C72.7365 60.9497 73.2823 61.1244 73.7626 61.3645ZM43.8086 69.4425C43.8304 73.5906 43.8086 77.3021 43.7431 77.6951L43.6121 78.3938L43.0226 78.9396L42.4332 79.4854H32.7833H23.1115V79.1797C23.1115 79.0051 23.1989 78.8304 23.308 78.7867C23.7883 78.6121 30.8402 71.9314 37.6082 65.2289L41.1014 61.7793L42.4113 61.8448L43.7431 61.9103L43.8086 69.4425ZM82.5829 64.9014L82.4519 65.7092L80.7926 67.6304C79.2644 69.4207 76.6881 72.3462 75.9458 73.154C75.7712 73.3505 75.3782 73.809 75.0725 74.1583C74.6141 74.7041 70.2258 79.7692 68.5228 81.7559C67.3876 83.0441 67.0164 83.4152 66.7762 83.4152H66.5579V82.1708V80.9481L67.9334 79.4854C70.3131 76.9528 73.6098 73.3287 76.1642 70.4468C76.579 69.9665 77.2776 69.2023 77.7143 68.7439C78.1509 68.2854 79.1989 67.1501 80.0067 66.2331C80.8363 65.3162 81.6878 64.3774 81.9279 64.1372L82.3209 63.7224L82.5174 63.9189C82.6265 64.0281 82.6484 64.4647 82.5829 64.9014Z" fill="black"/>
</g>
<defs>
<clipPath id="clip0_348_173">
<rect width="100" height="100" fill="white"/>
</clipPath>
</defs>
</svg>
