<svg width="88" height="88" viewBox="0 0 88 88" fill="none" xmlns="http://www.w3.org/2000/svg">
<g clip-path="url(#clip0_348_260)">
<path d="M8.78386 20.3996L7.76758 21.19L7.84286 37.9774L7.95578 54.8025L30.0881 54.9154L52.1828 54.9907V38.2786C52.1828 22.3945 52.1451 21.5288 51.4676 20.7007L50.7525 19.7973L30.2763 19.6844C9.91306 19.6091 9.7625 19.6091 8.78386 20.3996ZM45.8593 47.2745C46.1604 47.9897 46.1604 48.3284 45.784 48.7801C45.3699 49.2694 43.2997 49.3447 30.1634 49.3447C21.8073 49.3447 14.731 49.2318 14.3922 49.1189C13.6771 48.8554 13.6018 47.4251 14.2417 46.7852C14.5804 46.4464 18.6079 46.3335 30.0505 46.3335H45.4076L45.8593 47.2745Z" fill="#161F4D"/>
<path d="M54.667 29.2447C54.5164 29.5834 54.4411 35.9069 54.4411 43.2844C54.4411 50.6618 54.4411 56.9101 54.4411 57.1735C54.4411 57.5499 50.1502 57.6252 32.9111 57.5876C21.0545 57.5876 11.1175 57.5876 10.8917 57.5876C10.5153 57.6252 10.4023 58.7168 10.4023 61.7656C10.4023 66.847 10.7411 67.4116 13.9405 67.4116H15.9731L16.4247 65.5296C17.4034 61.5398 20.9415 58.6791 25.0067 58.6791C29.674 58.6791 32.7981 61.3892 33.8897 66.3577L34.1155 67.4116H45.9345H57.7158L58.3557 65.1532C59.1838 62.1044 61.2916 59.9589 64.3405 58.9803C66.9376 58.1522 68.6314 58.378 71.3039 59.8836C73.4117 61.1257 75.1055 63.5347 75.4819 65.8684L75.7077 67.2234L79.0577 67.3363C83.2734 67.4869 83.8003 67.1105 83.8003 64.0617C83.8003 61.5774 83.5745 61.1257 82.2947 60.9752C81.3914 60.8246 81.3537 60.6741 81.2408 58.1145L81.1279 55.4045L78.7942 55.2915L76.4605 55.1786V53.1084V51.0382L78.8695 50.9253L81.2408 50.8124L81.0903 48.2905C80.9397 45.8439 80.8268 45.5804 76.2723 37.9771C72.4331 31.616 71.3415 30.0727 70.2123 29.4329C68.9702 28.7177 68.2174 28.6424 61.8562 28.6424C55.7585 28.6424 54.8552 28.7177 54.667 29.2447ZM68.5185 32.971C69.7606 34.2508 75.2184 43.7737 74.8797 44.1125C74.6915 44.3007 71.1909 44.4136 66.6365 44.3759L58.7697 44.263L58.6568 38.8052C58.6192 35.8317 58.6568 33.1592 58.7321 32.8957C59.0332 32.1429 67.7281 32.2182 68.5185 32.971ZM64.0393 49.3444C64.0393 50.2478 63.9264 50.2854 61.5927 50.3983C59.6731 50.4736 59.0709 50.3983 58.6945 49.909C57.7911 48.6293 58.5063 48.1776 61.3669 48.2905C63.9264 48.4034 64.0393 48.4411 64.0393 49.3444Z" fill="#2E418E"/>
<path d="M23.0512 61.1637C20.1153 62.2552 17.9698 65.5675 18.4215 68.3905C18.7602 70.3855 20.3411 72.5309 22.1478 73.4719C27.154 76.0315 32.9505 71.3641 31.4826 65.9439C30.4663 62.1799 26.5141 59.9215 23.0512 61.1637ZM26.8905 65.5299C27.9821 66.5462 27.9821 68.5411 26.9658 69.4821C25.2343 71.063 22.449 69.8585 22.449 67.5625C22.449 66.0569 23.6534 64.7771 25.0838 64.7771C25.6107 64.7771 26.4388 65.1159 26.8905 65.5299Z" fill="#161F4D"/>
<path d="M64.7924 61.2009C62.8351 61.8785 60.5767 64.2874 60.2756 66.0565C59.7486 68.7289 60.9154 71.4767 63.2115 73.2081C64.0396 73.8103 64.83 73.9985 66.8249 73.9985C69.0457 73.9985 69.535 73.848 70.7395 72.9446C75.1434 69.5947 73.826 62.5183 68.4811 61.0504C66.712 60.5611 66.6367 60.5611 64.7924 61.2009ZM68.6316 65.6048C70.3631 67.2233 69.2339 70.1593 66.9378 70.1593C65.3193 70.1593 64.2278 69.1053 64.2278 67.5245C64.2278 65.0779 66.8249 63.911 68.6316 65.6048Z" fill="#161F4D"/>
</g>
<defs>
<clipPath id="clip0_348_260">
<rect width="88" height="88" fill="white"/>
</clipPath>
</defs>
</svg>
