<svg width="80" height="80" viewBox="0 0 80 80" fill="none" xmlns="http://www.w3.org/2000/svg">
<g clip-path="url(#clip0_195_11257)">
<path d="M37.5998 13.0292C37.4607 13.1217 37.1824 13.5071 36.9814 13.8925C36.7959 14.2934 36.363 14.8792 36.0383 15.203L35.4508 15.7888L34.5695 16.1434L33.6883 16.498L32.606 16.4825L31.5238 16.4671L30.3642 16.0355C29.7303 15.8042 28.6481 15.4188 27.9678 15.1721L26.7309 14.725H25.0148H23.2987L22.2783 15.095C20.3921 15.7734 19.0315 17.0684 18.042 19.1342L17.5164 20.2288L17.671 20.5988C17.7483 20.8146 17.9183 21.0767 18.042 21.1846L18.2894 21.3696L18.846 21.3234L19.418 21.2771L19.6963 20.7375C19.8509 20.4446 20.1292 19.8588 20.3302 19.458C21.0414 18.0396 22.3246 17.1455 24.0717 16.8525L25.0612 16.6984L26.2517 16.9296C26.901 17.0684 27.875 17.3767 28.4007 17.6234C28.9264 17.87 29.7767 18.1938 30.2869 18.348L31.2146 18.6255H32.4514L33.6883 18.6409L34.6777 18.3634C36.8113 17.7775 39.3314 15.465 39.3314 14.0775V13.6305L38.9449 13.2605C38.5584 12.8596 38.0482 12.7825 37.5998 13.0292Z" fill="#2E3887"/>
<path d="M13.719 24.3566L13.4252 24.7266L13.317 26.8541C13.2552 28.0258 13.1006 30.292 12.9769 31.9108C12.8687 33.5141 12.6522 36.397 12.5285 38.3087C12.4048 40.2203 12.2348 42.7178 12.142 43.8587C12.0647 44.9995 11.9565 46.8803 11.9101 48.0212C11.8637 49.162 11.7555 50.8578 11.6627 51.7983C11.5854 52.7233 11.4463 54.5733 11.369 55.8837C11.1525 59.152 10.766 65.0103 10.6114 67.0608L10.5032 68.7566L10.6269 69.142C10.7042 69.3424 10.8588 69.5737 10.9515 69.6353C11.0598 69.697 23.6448 69.7587 38.92 69.7587H66.7029L66.9348 69.4195L67.1822 69.0803V53.1703V37.2449L66.7802 36.9366C66.1772 36.4587 65.9917 36.5203 64.2601 37.6149C63.3788 38.1699 62.6522 38.617 62.6212 38.617C62.5903 38.617 61.74 39.1103 60.735 39.7116C59.7301 40.3283 58.4623 41.0528 57.9057 41.3612C57.3491 41.6541 56.5606 42.1166 56.1277 42.3941C54.5198 43.4424 53.252 44.167 53.0356 44.167H52.8037V40.8524V37.5224L52.5563 37.1678C52.4326 36.9674 52.1389 36.7516 51.9224 36.6899L51.5204 36.5974L50.732 37.1216C49.8816 37.6766 48.8457 38.2933 46.774 39.4649C44.826 40.5595 41.7802 42.3787 40.2805 43.3191C39.5539 43.7816 38.8427 44.1516 38.7035 44.167H38.4252V40.7908V37.4145L38.1469 37.0908L37.8841 36.7516L37.4203 36.7362L36.9565 36.7208L35.6268 37.5841C34.9002 38.062 33.787 38.7249 33.1531 39.0795C32.5192 39.4187 31.9008 39.7733 31.7771 39.8503C31.6534 39.9274 30.5712 40.5749 29.3807 41.2841C28.1902 41.9933 26.6751 42.9337 26.0103 43.3653C24.1086 44.6295 24.2168 44.7837 24.0468 40.4208C23.9695 38.5399 23.8303 36.0578 23.7375 34.917C23.6448 33.7762 23.4747 31.5716 23.351 30.0299C23.2273 28.4728 23.1191 26.7308 23.1191 26.1295V25.0349L22.8872 24.6033C22.5625 23.9712 22.5625 23.9712 18.0944 23.9712H14.0128L13.719 24.3566ZM21.0474 26.1603C21.1247 26.2683 21.202 27.1778 21.2329 28.1645L21.2948 29.9837H21.0938C19.3622 30.0453 15.4351 29.9374 15.3269 29.8295C15.2651 29.7678 15.2032 28.9508 15.2187 28.0412L15.2496 26.3762L15.4197 26.1758L15.5743 25.9753H18.2645H20.9392L21.0474 26.1603ZM21.3875 32.0187L21.5421 32.2191L21.7122 35.3024C21.9132 38.9408 22.1142 42.1474 22.3461 45.2462C22.4388 46.4795 22.578 48.6533 22.6553 50.1024C22.8872 54.2341 23.3201 60.7553 23.6139 64.517C23.7066 65.7503 23.7994 66.9528 23.7994 67.2149L23.8148 67.6774L18.4036 67.7083C15.4351 67.7391 12.915 67.7083 12.8223 67.6312L12.6368 67.5233L12.7759 65.9816C12.8377 65.1337 13.0387 62.3278 13.2243 59.7378C13.3943 57.1478 13.6108 54.0645 13.6881 52.8774C13.7808 51.6903 13.92 49.5783 13.9973 48.1753C14.0746 46.7724 14.2137 44.6295 14.291 43.3962C14.5693 39.5112 14.7549 36.4587 14.8631 34.2541L14.9559 32.142L15.2187 31.9878L15.4661 31.8491L18.3418 31.8337H21.2329L21.3875 32.0187ZM50.8247 43.0416L50.7629 46.4487L51.0875 46.7724C51.6751 47.3583 51.7214 47.3428 55.7567 45.0149C57.4419 44.0283 59.8074 42.6408 61.6936 41.4999C61.8637 41.392 62.5749 40.9449 63.2706 40.4978C63.9818 40.0662 64.693 39.6962 64.863 39.6962H65.1723L65.1413 53.6791L65.095 67.6774L45.6299 67.7237L26.1494 67.7545L26.0103 67.6158C25.933 67.5387 25.7784 65.9662 25.6547 64.1162C25.5464 62.2508 25.3455 59.3216 25.2218 57.5795C25.0826 55.8374 24.8662 52.6616 24.727 50.5187L24.4642 46.6183L24.6806 46.4178C24.8043 46.3099 25.3918 45.9553 25.9793 45.6316C26.5823 45.3078 27.309 44.8916 27.6027 44.7066C27.8965 44.5216 28.6386 44.1053 29.2261 43.7816C29.8291 43.4733 30.4166 43.1033 30.5557 42.9953C30.6794 42.872 30.834 42.7795 30.8959 42.7795C30.9422 42.7795 31.5143 42.4558 32.1327 42.0395C35.4568 39.9274 35.9979 39.6191 36.338 39.7578L36.5699 39.8349L36.4772 43.1341L36.3689 46.4333L36.7245 46.7878L37.0647 47.127L37.4976 47.0499C38.0387 46.942 44.7641 43.1033 47.9645 41.0837C49.3096 40.2358 50.5155 39.5728 50.6392 39.5883L50.8711 39.6191L50.8247 43.0416Z" fill="#2E3887"/>
<path d="M34.9945 67.4007L34.6853 67.9094V70.6228V73.3361L35.0873 73.7061L35.4738 74.0761L39.138 74.0915L42.8022 74.1069L43.1114 73.9528C43.6216 73.6907 43.6525 73.5674 43.6525 70.5611V67.6628L43.266 67.2928L42.8949 66.9073H39.0916H35.3037L34.9945 67.4007ZM41.6581 69.2507L41.8436 69.5898L41.7354 70.7307C41.689 71.3782 41.6117 71.9178 41.5808 71.9486C41.4726 72.0565 37.0353 72.0257 36.8653 71.9178L36.6952 71.8253V70.5457V69.2815L36.8807 69.0965L37.0663 68.9115H39.2771H41.4726L41.6581 69.2507Z" fill="#2E3887"/>
<path d="M63.7076 24.5078L63.3365 24.8007L63.2901 27.7453L63.2283 30.6744L63.5993 31.0444L63.9704 31.4144L67.8201 31.3836L71.6698 31.3528L71.9327 31.0136L72.2109 30.6744V27.884V25.0936L71.7626 24.6465L71.3297 24.2148H67.6964H64.0632L63.7076 24.5078ZM69.83 26.3732L70.232 26.5273L70.1856 27.8686L70.1392 29.2253H67.7428H65.3464L65.3 27.9457L65.2536 26.6507L65.4392 26.4348L65.6092 26.219H67.5264C68.5622 26.219 69.5981 26.2807 69.83 26.3732Z" fill="#2E3887"/>
<path d="M53.4316 51.2779L53.1379 51.5862L53.0297 52.2954C52.9833 52.6808 52.9369 53.9296 52.9369 55.055V57.1054L53.1224 57.4908C53.3853 58.0767 53.6172 58.1075 57.6524 58.0767L61.363 58.0458L61.6413 57.7221L61.9041 57.3983V54.5462V51.7096L61.5021 51.3396L61.0847 50.9542H57.405H53.7254L53.4316 51.2779ZM59.7241 53.1742L59.9097 53.39L59.8633 54.685L59.8169 55.9646H57.4205H55.0241L54.9777 54.6696C54.9468 53.9604 54.9622 53.2821 55.0086 53.1587L55.0859 52.9583H57.3123H59.5541L59.7241 53.1742Z" fill="#2E3887"/>
</g>
<defs>
<clipPath id="clip0_195_11257">
<rect width="80" height="80" fill="white"/>
</clipPath>
</defs>
</svg>
