<svg width="80" height="80" viewBox="0 0 80 80" fill="none" xmlns="http://www.w3.org/2000/svg">
<g clip-path="url(#clip0_195_11272)">
<g clip-path="url(#clip1_195_11272)">
<path d="M37.0919 13.3695C36.7134 13.6484 35.9731 14.239 35.4466 14.6492C32.5179 16.9789 25.1469 20.4898 20.4248 21.8351C18.105 22.4914 17.3152 22.6718 15.5712 23.0164L13.5968 23.3937L13.2348 23.7547L12.8893 24.0992L12.7577 25.2312C12.6919 25.8547 12.6919 28.939 12.7412 32.1054L12.84 37.8476L13.0868 39.8164C13.4323 42.425 13.8271 44.7218 14.0904 45.6406C14.2056 46.0507 14.4359 46.8218 14.584 47.3632C15.0447 48.9711 16.2622 52.482 16.4926 52.7773C16.5584 52.8593 16.8052 53.4172 17.052 54.0078C17.6114 55.3531 18.8783 57.6172 20.0793 59.4054L21.0007 60.8L23.4687 63.3265C27.5161 67.4937 30.2309 69.5117 35.0352 71.8906C37.9968 73.3672 38.112 73.3836 39.3953 72.8422C42.0936 71.6773 45.9766 69.4461 48.3129 67.6906L50.1392 66.3289L52.4591 63.9828C58.7277 57.5843 61.969 50.4804 63.3181 40.0625L63.5649 38.1757L63.6472 31.2687L63.7295 24.3781L63.3017 23.8859L62.8904 23.3773L61.4425 23.0984C59.6326 22.7539 57.4444 22.2289 56.3749 21.9007C54.7625 21.4086 52.7388 20.7195 52.0971 20.457C51.3896 20.1781 51.3732 20.1617 49.6621 19.407C49.0368 19.1281 48.4939 18.8984 48.461 18.8984C48.3293 18.8984 46.6347 18.0453 45.5159 17.4218C44.9894 17.1265 44.1996 16.7 43.7883 16.4867C42.5049 15.814 41.09 14.8461 39.7244 13.6976L38.8524 12.9757L38.3258 12.9101L37.7829 12.8281L37.0919 13.3695ZM39.7573 17.2086C42.2417 18.964 45.4336 20.7195 48.8065 22.1797C52.3275 23.7054 55.5852 24.7554 59.0403 25.4609C59.9288 25.6414 60.7021 25.8875 60.7679 26.0023C61.097 26.5273 60.8173 38.2414 60.4224 40.4726C60.0604 42.4742 59.8794 43.4586 59.6491 44.4922C59.5175 45.0828 59.3365 45.8539 59.2542 46.2312C59.172 46.5922 59.0403 47.0679 58.9581 47.2976C58.8758 47.5109 58.6784 48.1015 58.5138 48.5937C55.7662 57.4531 49.2507 64.8687 40.4319 69.1672C38.112 70.2992 38.1284 70.2992 35.7756 69.0851C29.7702 65.9679 25.0153 61.7023 21.4778 56.3047C18.2366 51.3664 16.2458 44.4757 15.6534 36.207C15.4725 33.5984 15.4231 26.7734 15.5876 26.1664L15.6863 25.8054L16.2128 25.6414C16.4926 25.5593 17.0849 25.4445 17.5291 25.3789C18.2859 25.2804 19.0263 25.1 21.593 24.4273C23.1725 24.0007 25.3772 23.2132 27.0884 22.4257C30.6093 20.8343 31.613 20.3422 32.7811 19.6695C34.9201 18.4554 35.5453 18.0617 36.7134 17.1922C38.2271 16.0601 38.1449 16.0601 39.7573 17.2086Z" fill="#2E3887"/>
<path d="M49.3003 33.6475C48.9383 33.7952 48.2308 34.5171 45.1705 37.8475C42.0938 41.1944 41.7977 41.5225 40.2346 43.1796C39.4284 44.0491 37.997 45.6077 37.0427 46.6741L35.3316 48.5936H35.0519H34.7722L32.7484 46.3296C29.7211 42.9663 29.1452 42.3921 28.5364 42.1132L27.977 41.8507L27.4176 42.1952C26.6937 42.6382 26.4469 43.0811 26.5785 43.6882L26.6608 44.1639L30.7741 48.2655L34.8709 52.3671H35.1835C35.5619 52.3671 35.6935 52.2522 37.7831 49.9882C38.688 49.0202 39.5107 48.1343 39.5929 48.0358C39.6917 47.9374 40.7611 46.7889 41.9786 45.4764C43.1962 44.1639 44.644 42.6218 45.187 42.0311C45.7464 41.4405 46.6349 40.4889 47.1778 39.8983C47.7043 39.3241 48.7738 38.1921 49.5471 37.3882C50.3204 36.5843 51.0443 35.7639 51.1595 35.5343L51.3569 35.1405L51.143 34.6155C50.7811 33.746 50.0242 33.3522 49.3003 33.6475Z" fill="#2E3887"/>
</g>
</g>
<defs>
<clipPath id="clip0_195_11272">
<rect width="80" height="80" fill="white"/>
</clipPath>
<clipPath id="clip1_195_11272">
<rect width="216" height="196.875" fill="white" transform="translate(-19 -5.9375)"/>
</clipPath>
</defs>
</svg>
