<svg width="80" height="80" viewBox="0 0 80 80" fill="none" xmlns="http://www.w3.org/2000/svg">
<g clip-path="url(#clip0_195_11287)">
<path d="M7.07009 21.7039C6.34615 22.0812 5.85256 22.5734 5.49059 23.2789L5.17798 23.8859L5.21088 37.3883L5.26024 50.8742L5.73738 51.4976C6.00063 51.8422 6.49423 52.2687 6.83974 52.4492L7.46496 52.7609H8.87993H10.2784V56.2719V59.7828L10.8214 60.5047C11.1176 60.882 11.6605 61.3742 12.006 61.5711L12.6642 61.9484H15.0828H17.5014L17.6001 62.5554C17.6659 62.9 17.814 63.4086 17.9456 63.7039C18.0772 63.9828 18.1759 64.2617 18.1759 64.3109C18.1759 64.3765 18.4721 64.8195 18.8176 65.2953C19.9529 66.8211 21.3679 67.7398 23.0954 68.0515L24.0991 68.2484L25.3331 68.0515C28.2124 67.6086 31.0094 64.8687 31.0094 62.4898C31.0094 62.2929 31.0752 62.0797 31.1739 62.0304C31.2562 61.9812 36.225 61.932 42.214 61.9484H53.1059L53.3034 62.1125C53.4185 62.2109 53.5502 62.6211 53.616 63.0476C53.8957 65.0984 55.903 67.264 58.157 67.9203C61.8919 69.0359 65.8242 66.8211 66.8772 63.0148L67.1569 62.0304L69.4439 61.9484L71.7309 61.8664L72.2738 61.5383C72.57 61.3578 72.9978 60.9476 73.2281 60.6195L73.6394 60.0289L73.5901 52.5804L73.5407 45.132L72.9155 43.9836C72.5864 43.3437 72.208 42.6875 72.0928 42.507C71.9941 42.3265 71.5828 41.6867 71.2044 41.0797C70.8095 40.4562 70.1843 39.4719 69.7894 38.8484C68.9668 37.5687 68.539 36.8633 68.0289 35.9445C66.8278 33.7625 65.5445 31.7609 64.8535 31.0062L64.0637 30.1367L63.2904 29.7594L62.5171 29.382L56.6763 29.3L50.8354 29.2179V26.4289L50.819 23.6234L50.3254 22.9015L49.8318 22.1633L49.1901 21.8023L48.532 21.425L28.0478 21.4414H7.56368L7.07009 21.7039ZM47.9726 24.3289L48.1042 24.4601L48.1206 37.1422C48.1371 44.1312 48.1042 49.8734 48.0548 49.9226C48.0055 49.9719 39.055 50.0375 28.1794 50.0703L8.38634 50.1359L8.13954 49.9883L7.9092 49.8242L7.89274 37.175V24.5094L8.15599 24.3125L8.41924 24.132L28.1301 24.1648L47.8245 24.1812L47.9726 24.3289ZM61.7603 32.089C62.5171 32.3023 63.0601 32.8437 63.1917 33.5164L63.2904 34.0742L64.146 35.1734C64.6231 35.7804 65.4293 36.9781 65.9558 37.8312C66.4988 38.6844 67.5024 40.2594 68.2264 41.3094C68.9338 42.3758 69.5097 43.3437 69.5097 43.475V43.7211L63.5866 43.6719C60.3453 43.6226 57.6141 43.557 57.5318 43.5078L57.3837 43.4258L57.466 39.9312L57.5318 36.4367L57.6964 36.2234L57.8609 36.0265H59.5227H61.168L61.0692 35.1078C60.9541 33.9265 61.1351 34.0086 58.519 33.8609L56.2649 33.7297L55.7549 33.8937C55.4587 33.9922 55.1297 34.1726 55.031 34.3039L54.8335 34.5336L54.7842 39.6687L54.7183 44.7875L54.9487 45.3125L55.1626 45.8539L55.6891 46.1164L56.2156 46.3789L63.5537 46.3461L70.9082 46.3133L70.9576 52.5969L70.9905 58.8804L70.8095 59.1101L70.6121 59.3398L68.7858 59.2906L66.9595 59.2414L66.3343 58.0929C65.9887 57.4531 65.3635 56.6 64.9522 56.1734L64.1953 55.4023L63.1094 54.8609L62.0235 54.3195H60.1972H58.3709L57.2686 54.8773L56.1498 55.4351L55.3765 56.2062L54.6032 56.9773L54.0602 58.1094C53.7641 58.7328 53.435 59.2906 53.3363 59.3562C53.1059 59.5039 51.3784 59.5203 51.0164 59.389L50.7531 59.2906V45.7226C50.7531 38.2578 50.8025 32.089 50.8683 32.0398C50.9177 31.9742 53.2705 31.925 56.084 31.925H61.2009L61.7603 32.089ZM39.1043 52.8265H48.1042L48.17 52.9906C48.2029 53.089 48.1865 54.5328 48.1371 56.2062L48.0384 59.2414L39.5486 59.2906L31.0587 59.3234L30.4335 58.1422C29.5122 56.3375 28.4098 55.3695 26.5341 54.664L25.7608 54.3851H24.313H22.8651L22.1247 54.6476C20.3149 55.2875 19.1302 56.3375 18.1595 58.1422L17.5672 59.2414L15.4941 59.2906L13.421 59.3398L13.1742 58.9625L12.9274 58.5851L12.8945 55.8289L12.8616 53.0726L13.0261 52.9086L13.1742 52.7609L18.0114 52.7117C20.6768 52.6789 24.4939 52.6953 26.4848 52.7445C28.4756 52.7937 34.1519 52.8265 39.1043 52.8265ZM25.9254 57.1742C27.1923 57.7484 28.0478 58.8804 28.3933 60.4554L28.5743 61.2922L28.3111 62.1617C27.9985 63.2609 27.2581 64.2617 26.3696 64.8523L25.6786 65.3117H24.3623H23.0296L22.4538 64.9508C21.6147 64.4258 20.8743 63.6054 20.4958 62.7687L20.1503 62.0304V61.0789V60.1437L20.4794 59.4383C20.8907 58.5687 21.8779 57.5679 22.7335 57.1742L23.3587 56.8953L24.2801 56.8789L25.2014 56.8625L25.9254 57.1742ZM61.6451 57.207C63.1094 57.7812 64.1789 59.1429 64.475 60.8656L64.5902 61.489L64.2941 62.3422L63.9979 63.1789L63.0765 64.114L62.1552 65.0328L61.4312 65.2297L60.7073 65.4265L59.6543 65.3445L58.6177 65.2625L57.9432 64.7867C57.5647 64.5242 57.0382 64.0156 56.7421 63.6383L56.232 62.982L56.0346 61.9976L55.8536 61.0133L56.0675 60.2094C56.7585 57.6008 59.2265 56.2554 61.6451 57.207Z" fill="#2E3887"/>
</g>
<defs>
<clipPath id="clip0_195_11287">
<rect width="80" height="80" fill="white"/>
</clipPath>
</defs>
</svg>
