<svg width="80" height="80" viewBox="0 0 80 80" fill="none" xmlns="http://www.w3.org/2000/svg">
<g clip-path="url(#clip0_195_11302)">
<path d="M15.9497 24.9977C15.7194 25.2603 14.6664 27.1962 13.5969 29.3126C11.2277 34.0212 7.57508 41.1907 6.53854 43.1267C4.74514 46.5392 4.35027 47.2938 4.25155 47.6712L4.15283 48.0649L4.38318 48.5079C4.62997 48.9837 4.92613 49.2134 6.39046 50.0009C8.99005 51.4118 11.9681 52.8228 12.511 52.8884L13.1362 52.9704L13.4818 52.7899C13.6627 52.6915 13.9753 52.2813 14.1728 51.8712C14.6499 50.8868 14.6828 50.9032 16.5256 52.6423C18.3519 54.3813 18.2696 54.2009 17.6115 55.1196L17.1179 55.8251L17.0192 56.7274L16.9369 57.6134L17.1179 58.2696L17.2989 58.9423L17.8254 59.4837C18.4835 60.1563 19.4378 60.6485 20.0795 60.6485C20.7211 60.6485 21.0173 60.9603 21.1489 61.8298L21.2641 62.5353L21.7906 63.3228L22.3171 64.1103L22.9752 64.4548L23.6169 64.7993L24.5547 64.8321C25.69 64.8813 25.8051 64.9306 26.0355 65.7345C26.2658 66.4892 26.9898 67.2767 27.8618 67.7196L28.4706 68.0313H29.6881H30.9056L31.4157 68.8353L31.9093 69.6556L32.6167 70.0985L33.3242 70.5415L34.3279 70.6235L35.348 70.6892L35.9567 70.4103C36.2858 70.2462 36.8287 69.8196 37.1743 69.4423C37.5033 69.0649 37.8653 68.704 37.9805 68.6384L38.1779 68.5235L39.56 69.2454C40.3333 69.6392 41.4521 70.1313 42.0444 70.3282L43.1303 70.7056L44.1668 70.6235L45.1869 70.5415L45.8122 70.1642C46.1577 69.9673 46.7335 69.4095 47.079 68.9501L47.7207 68.1134H49.4318H51.1265L51.8175 67.654C52.5086 67.211 53.1832 66.3251 53.4135 65.5704C53.4793 65.3407 53.6438 65.029 53.7919 64.8649L54.0387 64.586H54.9601H55.8815L56.5396 64.2087L57.1977 63.8313L57.7242 62.9618C58.0204 62.4696 58.3001 61.7642 58.3659 61.3704L58.4646 60.6485H58.8595C59.0734 60.6485 59.6657 60.5173 60.1757 60.3696L61.1136 60.0743L61.8375 59.4345C62.2324 59.0899 62.7095 58.4993 62.8905 58.1384L63.236 57.4821L63.1538 56.3993C63.1044 55.8087 63.0221 55.136 62.9563 54.9063L62.8576 54.4962L63.4005 53.9056C63.6967 53.5938 64.5194 52.8228 65.2104 52.2157L66.4773 51.1001L66.6747 51.2149C66.7734 51.2806 66.9544 51.5923 67.086 51.8876C67.2177 52.1829 67.4974 52.5603 67.7277 52.7079L68.1555 52.9868L68.9288 52.8884L69.7021 52.7899L71.5119 51.8384C72.5156 51.297 73.9635 50.5423 74.7697 50.1485C75.5594 49.7384 76.415 49.2462 76.6618 49.0657L77.106 48.7048L77.0895 48.0485L77.0731 47.3759L76.4479 46.2603C76.1024 45.6532 75.4278 44.3735 74.9177 43.422C74.4241 42.4704 73.947 41.6173 73.8647 41.5188C73.7989 41.4204 72.5156 38.9431 71.0348 36.0228C64.8978 23.9149 65.3914 24.7681 64.6181 24.6204L64.0751 24.522L62.6931 25.2931C60.1922 26.6876 57.4116 28.1642 57.28 28.1642C57.1977 28.1642 56.8687 28.4103 56.556 28.722L55.9637 29.2634V29.6571C55.9637 29.8704 56.1118 30.379 56.2928 30.7728C56.4738 31.1665 56.6219 31.6095 56.6219 31.7571V32.0196L55.9144 32.2985C55.536 32.4626 55.0753 32.5938 54.9107 32.5938C54.5981 32.5938 50.3203 31.6095 49.3002 31.2978C49.037 31.2157 48.2143 31.0188 47.4904 30.8712C46.7664 30.7235 45.7463 30.4938 45.2198 30.3626C43.4264 29.936 41.6166 30.1329 38.9347 31.0681C35.6935 32.1837 35.677 32.1837 29.8033 32.7743L27.7466 32.9712L26.8581 32.7743C25.69 32.5282 24.5383 32.0032 24.5383 31.7407C24.5383 31.6259 24.6863 31.1993 24.8673 30.8056C25.0483 30.4118 25.1964 29.8868 25.1964 29.6407V29.1813L24.6699 28.7384C24.3737 28.4923 23.6498 28.0493 23.0575 27.754C22.4652 27.4587 20.9186 26.622 19.6023 25.8837L17.2331 24.5548H16.8053H16.3775L15.9497 24.9977ZM18.6974 28.0001C19.2897 28.361 20.3427 28.9352 21.0502 29.2962C21.7577 29.6571 22.4323 30.0509 22.5474 30.1985L22.7613 30.4446L21.3957 33.0368C20.6389 34.4642 18.3519 38.9431 16.3117 43.0118L12.5933 50.3946L12.3465 50.4438C12.1984 50.4603 11.6061 50.2142 11.0302 49.886C10.4544 49.5579 9.31911 48.9673 8.52936 48.5571C6.58789 47.5728 6.58789 47.7368 8.29902 44.6524C8.61163 44.111 9.08877 43.2251 9.40138 42.6837C9.69754 42.1423 11.5238 38.5165 13.4818 34.6446C15.4232 30.7563 17.1014 27.5407 17.2002 27.4751C17.4799 27.2782 17.5621 27.311 18.6974 28.0001ZM64.1574 27.7868C64.3384 28.0493 65.0459 29.3946 65.7533 30.7892C66.4444 32.1837 67.4809 34.2181 68.0568 35.3009C68.6162 36.3837 69.7515 38.5657 70.5741 40.1407C71.3968 41.7157 72.2523 43.3399 72.4827 43.7501C72.6966 44.1603 73.2395 45.1446 73.6673 45.9485L74.4406 47.4251L74.2925 47.6548C74.1609 47.8517 72.0878 49.0329 70.0147 50.0993L69.1591 50.5259L68.8959 50.4274C68.7643 50.3782 68.4681 49.9681 68.2542 49.5415C68.0403 49.1149 66.938 46.9493 65.8192 44.7345C64.7003 42.5196 63.3841 39.8946 62.907 38.9103C62.4298 37.9095 61.7881 36.6298 61.4591 36.0392C61.13 35.4485 60.6529 34.5954 60.4061 34.1524C60.1593 33.6931 59.6163 32.7087 59.1885 31.954C58.7608 31.1829 58.4482 30.4446 58.4646 30.3134L58.514 30.0509L60.4225 29.0665C61.4591 28.5251 62.5779 27.9181 62.8905 27.7212C63.6309 27.2618 63.779 27.2618 64.1574 27.7868ZM45.8451 32.8399C48.3295 33.3978 49.909 33.7751 51.2746 34.1524C52.0972 34.3821 53.43 34.6118 54.2362 34.661L55.7334 34.7759L56.5231 34.4149C56.9674 34.2345 57.461 34.0704 57.642 34.0704H57.9546L58.2014 34.6774C58.4975 35.3829 59.9289 38.254 62.6273 43.5204C63.6638 45.5056 64.7332 47.5892 65.013 48.1634L65.5395 49.1806L65.3091 49.4595C65.013 49.8368 64.6674 50.1321 62.907 51.4774L61.3933 52.6587L61.0148 52.4782C60.8174 52.3798 60.1428 51.8548 59.5012 51.3134C58.8759 50.772 57.1319 49.3774 55.6347 48.229C54.1374 47.0806 52.7718 46.0142 52.5908 45.8501C52.2618 45.5876 51.5543 45.0298 47.4739 41.8634C46.3057 40.9774 44.9566 39.911 44.463 39.5173L43.5581 38.7954L41.3369 38.861L39.0993 38.9431L38.4412 39.3204C38.0792 39.5337 36.9768 40.4853 35.9896 41.4204L34.1798 43.1267L33.4559 43.4384L32.7319 43.7501H31.8599C30.8892 43.7501 29.8362 43.3892 29.6881 42.979L29.5894 42.7165L29.902 42.1259C30.5766 40.8134 33.9824 35.8587 34.5253 35.3665C35.3315 34.661 36.1542 34.3329 40.6459 32.8892C42.1431 32.4134 43.8707 32.397 45.8451 32.8399ZM24.7028 34.4149C25.0977 34.6118 25.8874 34.8415 26.4633 34.9399L27.4834 35.1204L29.5071 34.9399L31.5308 34.7595L31.7447 34.9563L31.9586 35.1532L31.4321 35.8095C29.8197 37.7946 27.1708 42.1915 27.1708 42.897C27.1708 43.7009 28.0592 44.7673 29.3919 45.5548L30.0501 45.9485L31.7776 45.9649H33.5052L34.6405 45.3907L35.7593 44.8165L37.4375 43.1923C38.3424 42.3063 39.3132 41.4696 39.5929 41.322L40.0865 41.0759L41.3204 40.9938L42.5544 40.9282L44.4959 42.454C45.5489 43.3071 46.931 44.3571 47.5397 44.8165C48.1485 45.2595 49.3825 46.2274 50.2874 46.9493C51.1923 47.6876 52.8541 48.9673 53.9894 49.8204C55.1246 50.6571 56.7206 51.8876 57.5268 52.5274C58.3494 53.1509 59.205 53.8071 59.4518 53.9712C60.8832 54.8735 61.4262 56.3665 60.7351 57.4821L60.4225 58.0071L59.8138 58.2696C59.4847 58.4009 59.0076 58.5157 58.7608 58.5157H58.3001L57.4281 57.9087C56.9345 57.5806 56.2434 57.072 55.8815 56.7931C55.5195 56.4978 54.5159 55.7923 53.6438 55.2017C52.7718 54.5946 51.2088 53.479 50.1722 52.7079L48.2801 51.297H47.8523H47.4246L47.0955 51.7235C46.4209 52.5767 46.6842 53.1017 48.313 54.1845C48.7737 54.4798 49.8103 55.2017 50.6165 55.7923C51.4391 56.3829 52.9199 57.4165 53.9071 58.0892C54.9107 58.7618 55.865 59.4673 56.046 59.6642L56.3586 60.0087L56.3257 60.7798L56.3092 61.5509L55.7169 62.0759L55.1411 62.6173H54.5652C53.8413 62.6173 53.1338 62.2728 51.5214 61.1243C50.8468 60.6321 49.7774 59.8774 49.1357 59.4509C48.5105 59.0079 47.4246 58.2532 46.75 57.761C46.0754 57.2688 45.2857 56.7603 44.9895 56.629L44.463 56.3829L44.1668 56.4978C44.0023 56.547 43.7391 56.711 43.591 56.8423L43.2948 57.0884V57.5642V58.0399L43.6732 58.3681C43.8707 58.5649 45.1869 59.4673 46.5854 60.386C51.9821 63.897 52.2289 64.2087 50.8962 65.6032L50.4684 66.0626H49.5964H48.7244L47.6385 65.3899C47.0297 65.029 45.6476 64.1267 44.5617 63.4048C43.4923 62.6829 42.3899 62.0267 42.1267 61.9282L41.6495 61.7642L41.2382 62.0267L40.8269 62.2892V62.8634V63.4212L41.5343 63.979C41.9128 64.2907 42.4722 64.6681 42.7848 64.8321C43.8707 65.3735 45.6147 66.5548 45.7134 66.8173C45.7628 66.9485 45.697 67.2603 45.5818 67.4899L45.3515 67.9165L44.644 68.2282L43.9365 68.5563L43.2455 68.4415C42.6367 68.3431 42.0773 68.097 40.0207 67.0634C39.7739 66.9485 39.4942 66.7188 39.3954 66.5712L39.2309 66.3087L39.3625 65.3571L39.4777 64.4056L39.2474 63.7165C38.8689 62.6665 37.9805 61.797 37.0097 61.5509C36.5161 61.4196 36.3352 61.0915 36.4668 60.6321C36.8781 59.3524 34.8873 56.711 33.5217 56.711C32.9787 56.711 32.6003 56.3009 32.6003 55.7267C32.6003 54.6438 31.8105 53.4462 30.5766 52.6423L29.8855 52.1993H28.7338L27.5656 52.2157L26.9569 52.6751L26.3481 53.1509L25.5584 52.2813L24.7851 51.4118L24.0776 51.1165C22.7449 50.5423 21.5273 50.8048 20.2934 51.9368C19.9972 52.2157 19.6352 52.4454 19.5201 52.4454C19.191 52.4454 15.9826 49.1642 15.9826 48.8524C15.9826 48.7048 16.3611 47.8845 16.8053 47.0313C17.266 46.1782 18.8948 42.9626 20.425 39.8782C21.9716 36.7938 23.2714 34.2345 23.3372 34.1688C23.5182 33.9884 23.9789 34.0704 24.7028 34.4149ZM23.5675 53.1837C23.8308 53.3313 24.1927 53.6759 24.3737 53.9548L24.6863 54.4634L24.4395 55.0376C24.1763 55.6938 23.3701 56.7438 22.2513 57.8923L21.5109 58.6798H20.8857C20.1124 58.6798 19.5365 58.3353 19.2733 57.6954L19.0758 57.2032L19.1745 56.7767C19.3555 56.0876 21.4286 53.561 22.169 53.1345C22.5968 52.872 22.9917 52.8884 23.5675 53.1837ZM29.6716 54.6603L30.2804 55.0704L30.4778 55.6938L30.6588 56.3337L30.2969 57.0556C29.6058 58.4009 26.2329 62.3876 25.5419 62.6501C24.6699 62.9782 23.5675 62.4696 23.2385 61.6001L23.0904 61.1899L23.222 60.5829C23.2878 60.2548 23.6662 59.5985 24.0282 59.1228C24.4066 58.647 25.3116 57.5149 26.019 56.6126C27.8947 54.2173 28.5364 53.8892 29.6716 54.6603ZM33.4723 58.9751C34.3608 59.5657 34.624 60.2712 34.2292 61.0259C33.9165 61.6001 30.9879 65.1931 30.5272 65.554L30.083 65.8985H29.4742H28.8654L28.4376 65.5048C28.2073 65.2915 27.9605 64.9142 27.8947 64.6681L27.7795 64.2251L28.0263 63.7001C28.4212 62.8962 31.3499 59.2868 31.8928 58.9751C32.4851 58.6142 32.8964 58.6142 33.4723 58.9751ZM36.7136 63.6017C37.0755 63.7985 37.3717 64.6024 37.3717 65.3899V65.9806L36.9768 66.5712C36.7629 66.8829 36.1706 67.4571 35.6935 67.8345L34.7886 68.5235H34.3772C33.8343 68.5235 33.1762 67.9985 32.9623 67.4079L32.7977 66.9485L33.0116 66.3415C33.242 65.6688 34.443 64.0446 34.9695 63.6673C35.3644 63.4048 36.2693 63.3556 36.7136 63.6017Z" fill="#2E3887"/>
</g>
<defs>
<clipPath id="clip0_195_11302">
<rect width="80" height="80" fill="white"/>
</clipPath>
</defs>
</svg>
