<svg width="64" height="64" viewBox="0 0 64 64" fill="none" xmlns="http://www.w3.org/2000/svg">
<path d="M23.564 6.0894C23.4745 6.10729 23.0273 6.23251 22.5801 6.35773C18.7877 7.39529 15.7823 10.5616 14.1544 15.1591L13.9219 15.8388L14.4764 16.5007L15.0131 17.1805L15.7287 17.2342L16.4621 17.2878L16.8735 16.7333C17.9469 15.338 18.3941 14.8907 19.0739 14.533L19.8073 14.1573H21.0595H22.3118L23.2957 14.4793C23.8323 14.6761 24.8699 15.0875 25.5854 15.4274C26.945 16.0535 27.7858 16.3755 29.2884 16.8585L30.1829 17.1447L32.258 17.2163L34.3331 17.2878L35.2991 16.9658C35.8358 16.787 36.7302 16.3755 37.2848 16.0535L38.3044 15.4632L39.2704 14.4077C40.5048 13.0482 41.4887 10.991 41.9717 8.8264L42.079 8.32551L41.8464 7.73518C41.5602 7.07329 40.8625 6.53662 40.2543 6.53662H39.8608L38.7874 7.3774L37.6962 8.23606H35.5495L33.4029 8.21817L32.2401 7.80673C31.614 7.59206 31.0058 7.35951 30.8984 7.28795C30.5407 7.0554 29.4494 6.69762 28.072 6.33984L26.6767 5.99995L25.2098 6.01784C24.4048 6.01784 23.6713 6.05362 23.564 6.0894ZM26.7303 9.41673C27.2491 9.52406 28.8591 10.0071 30.3081 10.4901L32.9199 11.3666H35.0844H37.249V11.635C37.249 11.7781 36.8912 12.2253 36.4619 12.6546L35.6927 13.4238L34.8161 13.7458L33.9395 14.05H32.58H31.2025L30.2544 13.7637C29.2884 13.4775 26.8734 12.5473 26.301 12.2432C25.4065 11.7781 23.9754 11.3666 22.3118 11.0804C20.6839 10.8121 20.5944 10.669 21.7214 10.0965C23.3135 9.27362 24.9951 9.05895 26.7303 9.41673Z" fill="white"/>
<path d="M10.4526 19.7744C9.91589 20.2931 9.70122 21.2234 9.70122 23.2627C9.68333 24.2466 9.61178 25.6061 9.52233 26.3038C9.415 26.9836 9.27189 28.9514 9.16456 30.6508C9.07511 32.3502 8.94989 33.835 8.87833 33.9245C8.82467 34.0139 8.69944 35.3556 8.61 36.9119C8.53844 38.4504 8.37744 40.1498 8.27011 40.6865C8.18067 41.2052 8.09122 42.2249 8.09122 42.9226C8.09122 43.6202 7.98389 45.3197 7.82289 46.6971C7.67978 48.0746 7.44722 50.8652 7.28622 52.8867L7 56.5718L7.21467 57.0369C7.33989 57.3052 7.60822 57.6451 7.84078 57.7882L8.25222 58.0566H32.3307L56.3912 58.0745L56.7311 57.8777C56.9279 57.7882 57.2141 57.5199 57.3572 57.3052L57.6434 56.9117V45.0514V33.2089L57.4467 32.7796C57.232 32.3145 56.427 31.7599 55.9619 31.7599C55.8009 31.7599 54.9243 32.2071 54.012 32.7617C53.0997 33.3162 52.2052 33.835 52.0084 33.9245C51.8117 34.0139 51.5254 34.157 51.3823 34.2644C50.7026 34.7116 48.6096 35.928 48.2697 36.0711C48.055 36.1606 47.6614 36.3931 47.3573 36.5899C46.7133 37.0192 45.7831 37.3949 45.6579 37.2876C45.6042 37.2518 45.5684 36.2142 45.5684 34.9978V32.7975L44.9423 32.2787C44.191 31.6526 43.9584 31.6347 42.9567 32.2071C42.5273 32.4397 42.0086 32.7259 41.8118 32.8332C41.615 32.9406 41.2214 33.1731 40.9173 33.3699C40.6311 33.5667 40.2554 33.7814 40.1123 33.8529C39.9692 33.9066 39.5578 34.1391 39.2179 34.3538C38.878 34.5685 37.9478 35.0872 37.1607 35.5166C36.3736 35.928 35.497 36.4468 35.1929 36.6615C34.6026 37.0729 33.7618 37.4844 33.4756 37.4844H33.2788L33.4219 35.2482L33.5471 33.03L32.9031 32.386C32.116 31.5989 31.8834 31.5989 30.3629 32.4934C29.6652 32.8869 28.7171 33.4415 28.2162 33.7098C27.7332 33.996 26.4094 34.7474 25.3003 35.4092C24.1912 36.0532 23.2431 36.5899 23.1894 36.5899C23.1537 36.5899 22.7959 36.8225 22.3844 37.1087C21.9909 37.4128 21.5616 37.6096 21.4363 37.5559L21.2038 37.4665L21.0786 34.9262C21.007 33.5309 20.8818 31.4558 20.7923 30.3288C20.7029 29.2018 20.5419 27.1446 20.4346 25.7671C20.3451 24.3897 20.202 22.6366 20.1483 21.8674L20.041 20.472L19.5938 19.9354L19.1466 19.4166H14.9963H10.8461L10.4526 19.7744ZM16.8389 22.9765C16.9462 23.1554 17.0714 24.3718 17.1251 25.6956C17.1967 27.0194 17.3577 29.005 17.5008 30.1141C17.6439 31.2232 17.7512 32.7975 17.7512 33.6204C17.7512 34.4432 17.8407 35.5524 17.948 36.0711C18.0374 36.6078 18.1984 38.3609 18.2879 39.9888C18.5026 43.978 18.9498 49.613 19.2539 52.3321C19.397 53.5665 19.4507 54.6219 19.3791 54.7114C19.3076 54.7829 17.3219 54.8187 14.9606 54.8008L10.6851 54.7471L10.7388 53.2266C10.7746 52.3858 10.864 51.0978 10.9713 50.3644C11.0608 49.6309 11.2039 47.8957 11.3112 46.5182C11.4007 45.1408 11.6332 41.8314 11.83 39.1838C12.0268 36.5184 12.2772 33.0658 12.3846 31.4916C12.4919 29.9174 12.6529 27.7886 12.7423 26.751C12.8497 25.7135 12.9212 24.4612 12.9212 23.9604V23.0659L13.1359 22.8512L13.3506 22.6366H15.0142H16.66L16.8389 22.9765ZM30.184 38.6114V40.7044L30.6849 41.3305L31.1858 41.9566H31.7761H32.3664L33.4219 41.402C33.9943 41.08 34.7457 40.6507 35.1034 40.436C35.4433 40.2214 36.302 39.7384 36.9818 39.3627C37.6794 38.987 38.556 38.4682 38.9496 38.2178C40.3986 37.2876 41.9907 36.411 42.259 36.411H42.4379V38.7366V41.0442L42.9209 41.5094L43.4218 41.9566H43.9942H44.5488L46.0514 41.08C46.8743 40.6149 48.3412 39.7562 49.3251 39.2017C50.309 38.6471 51.2392 38.1105 51.3823 38.021C51.5254 37.9316 52.1694 37.538 52.8134 37.1445L53.9762 36.4468L54.1551 36.6078L54.334 36.7867L54.2803 45.7669L54.2267 54.7471H38.4487H22.6707L22.5633 52.2427C22.4918 50.8652 22.4023 49.613 22.3308 49.4699C22.2771 49.3268 22.1519 48.0388 22.0624 46.6077C21.9551 45.1766 21.7941 43.4235 21.6868 42.69L21.49 41.3662L21.7226 41.1516C21.8478 41.0264 22.7601 40.5076 23.744 39.9888C26.1769 38.7008 26.4989 38.5219 27.8942 37.6096C28.3236 37.3412 28.6992 37.1266 28.7708 37.1266C28.8244 37.1266 29.0749 36.9656 29.3432 36.7688C29.5937 36.572 29.8799 36.4289 29.9872 36.4647L30.184 36.5362V38.6114Z" fill="white"/>
</svg>
