<svg width="64" height="64" viewBox="0 0 64 64" fill="none" xmlns="http://www.w3.org/2000/svg">
<path d="M6.9739 12.8514C6.72346 13.0661 6.41935 13.4238 6.31201 13.6385L6.11523 14.0321V29.8101V45.5881L6.47301 46.1784L6.84868 46.7687L7.4569 46.9655L8.06512 47.1623L9.76457 47.1265L11.464 47.0728L11.7323 47.3054C11.8933 47.4485 12.0186 47.6632 12.0186 47.8242C12.0186 48.2356 13.3245 49.8635 14.0579 50.3644C14.4157 50.6148 14.7019 50.8653 14.7019 50.9368C14.7019 51.0263 14.8092 51.0799 14.9345 51.0799C15.0418 51.0799 15.3996 51.2231 15.6858 51.3841L16.2225 51.6882H17.9219L19.6213 51.7061L20.8199 51.0263C22.1079 50.3107 23.0739 49.3089 23.6642 48.0925C23.861 47.6811 24.0936 47.2875 24.183 47.2338C24.4156 47.0907 40.1936 47.0549 40.4261 47.2159C40.5335 47.2875 40.8376 47.7705 41.088 48.2714C41.6247 49.4163 42.5549 50.3286 43.9502 51.0978L45.0236 51.6882H46.6336H48.2436L49.3706 51.1336C50.7659 50.4181 52.8052 48.1641 52.8052 47.3233C52.8052 47.1086 52.8589 47.1086 54.7193 47.1444C55.5422 47.1623 56.4725 47.0907 56.8123 46.9655L57.4385 46.7687L57.7783 46.1963L58.1182 45.6238L58.0467 39.0944L57.9751 32.5649L57.5637 31.7599C56.8481 30.3825 56.4725 29.7027 56.3651 29.6133C56.3115 29.5596 56.1505 29.2734 56.0073 28.9872C55.6317 28.2537 54.2542 25.7135 53.8428 25.0516C53.6639 24.7475 53.4671 24.3897 53.3956 24.2466C53.324 24.1035 52.9841 23.4953 52.6085 22.8871C52.2507 22.2967 51.8929 21.6348 51.8392 21.4202C51.7677 21.2055 51.4636 20.7941 51.1773 20.4899L50.6228 19.9533H44.6658C41.3742 19.9533 38.6551 19.8996 38.6193 19.8102C38.5836 19.7386 38.6015 18.4685 38.673 17.0016L38.7803 14.3183L38.6372 13.7458L38.4762 13.1734L37.9753 12.7977L37.4566 12.4399H22.4478H7.4569L6.9739 12.8514ZM35.3815 15.8746C35.4888 15.9998 35.4709 43.6024 35.3636 43.7097C35.3099 43.7634 32.8055 43.7992 29.7822 43.7813L24.2725 43.7634L24.0578 43.4414C23.9326 43.2804 23.8252 43.0299 23.8252 42.9047C23.8252 41.6167 21.2671 39.4343 19.2457 39.0228L17.9935 38.7545L16.6518 39.0228L15.328 39.3091L14.3978 40.0246C13.3423 40.8296 12.6805 41.6525 12.0186 42.9405L11.5713 43.8349L10.6411 43.8886L9.7109 43.9423L9.56779 43.6203C9.49623 43.4414 9.44257 37.1266 9.47835 29.5775L9.53201 15.8567L9.81823 15.8031C10.2297 15.7315 35.292 15.8031 35.3815 15.8746ZM41.6605 23.3879C41.732 23.5132 41.8036 25.8387 41.8036 28.5757V33.5131L42.2329 33.9782L42.6622 34.4433L48.6729 34.4791L54.6836 34.5327L54.7193 39.0407L54.7551 43.5308L54.5047 43.7455C54.3795 43.8528 53.968 43.9244 53.6102 43.8886L52.9483 43.8349L52.5369 42.8689C51.6961 40.8475 50.0146 39.4701 47.9931 39.0944L46.8661 38.8976L45.8643 39.0049C43.6461 39.2733 41.4995 40.9369 40.9091 42.8511C40.8376 43.1015 40.6587 43.4414 40.4977 43.6024L40.2293 43.9244H39.5496C39.1739 43.9244 38.8161 43.8349 38.7446 43.7276C38.6015 43.4772 38.6015 23.6205 38.7625 23.3701L38.8698 23.1733H40.1936H41.5173L41.6605 23.3879ZM49.138 23.6205C49.3885 23.8531 49.5852 24.1393 49.5852 24.2287C49.5852 24.3897 50.8553 26.6795 51.3741 27.4666C51.4815 27.6097 51.6425 27.8959 51.7319 28.0927C51.8392 28.2895 52.0718 28.6831 52.2686 28.9872C52.4653 29.2734 52.6979 29.7027 52.7873 29.9174C52.8768 30.1142 53.0557 30.3467 53.1451 30.4183C53.2525 30.4719 53.3419 30.6866 53.3419 30.8834V31.2233L49.1917 31.1875L45.0236 31.1338L44.9699 27.3772C44.952 25.3199 44.9699 23.5311 45.0057 23.4058L45.0951 23.1733H46.9019H48.7087L49.138 23.6205ZM19.0131 42.4038C20.1759 42.9047 20.802 43.7276 21.0525 45.0156L21.1777 45.6596L20.8736 46.3573C20.5158 47.2338 20.1401 47.6274 19.3172 48.0567L18.6553 48.3966H17.7788H16.9022L16.1688 47.8599C15.2922 47.2338 14.7019 46.1605 14.7019 45.2303L14.7198 44.5505L15.1133 43.8886C16.0436 42.4038 17.6357 41.7956 19.0131 42.4038ZM47.8321 42.3859C48.172 42.5291 48.7087 42.9047 49.0128 43.2267L49.5673 43.7992L49.782 44.7115L49.9788 45.6417L49.5852 46.4825L49.1738 47.3412L48.5656 47.8063L47.9395 48.2893L46.9019 48.3608L45.8643 48.4324L45.1667 48.0388C44.791 47.8242 44.2901 47.3948 44.0397 47.0907L43.6103 46.5541V45.3555V44.1391L44.1112 43.4772L44.6121 42.8153L45.3635 42.4933C46.2579 42.0818 47.0271 42.0639 47.8321 42.3859Z" fill="white"/>
</svg>
