<svg width="64" height="64" viewBox="0 0 64 64" fill="none" xmlns="http://www.w3.org/2000/svg">
<path d="M10.144 6.46501C9.66101 6.69756 8.90967 7.23423 8.49823 7.64567C7.81845 8.30756 7.5859 8.68323 7.01345 10.0249C6.92401 10.2217 6.81667 13.1554 6.74512 16.5543C6.69145 19.9532 6.56623 24.4612 6.49467 26.5721L6.35156 30.4182L6.65567 31.0443L6.97767 31.6705L20.0902 44.8546L33.2207 58.0208L33.6321 58.146C33.8647 58.2176 34.2403 58.2176 34.455 58.1639L34.8665 58.0566L46.3332 46.5719C52.648 40.2392 57.9252 34.9083 58.0683 34.7116C58.7481 33.8171 58.4082 33.2089 55.868 30.6866C54.8305 29.649 48.8735 23.6562 42.6302 17.3951L31.3066 5.99989L21.1636 6.01778H11.0385L10.144 6.46501ZM42.0041 21.6169C48.6409 28.2537 54.0612 33.7635 54.0612 33.8529C54.0612 34.0139 34.2761 53.9421 34.0972 53.9421C33.9541 53.9421 10.1977 30.0247 9.98301 29.6669L9.8399 29.3986L10.0367 21.6884C10.144 17.4309 10.2335 13.2628 10.2335 12.4041V10.8657L10.6986 10.3111C11.3783 9.48823 11.4857 9.48823 21.092 9.50612L29.9649 9.54189L42.0041 21.6169Z" fill="white"/>
<path d="M18.3378 14.2647L17.2287 14.6761L16.4952 15.3559C12.7922 18.8263 14.3128 24.4077 19.2859 25.5168L20.234 25.7314L21.361 25.4989C23.3288 25.1232 24.903 23.8889 25.7796 22.1L26.1552 21.3129V19.846V18.397L25.7975 17.5741C25.6007 17.1269 24.9924 16.304 24.4558 15.7494L23.4719 14.7477L22.6132 14.372L21.7724 13.9963L20.6097 13.9248L19.4469 13.8532L18.3378 14.2647ZM21.7009 17.6636C23.5077 19.0052 23.132 21.4381 21.0032 22.2789L20.4129 22.5114L19.6973 22.2789L18.9818 22.0284L18.463 21.456C17.8369 20.7404 17.6759 20.007 17.9263 19.0768L18.1052 18.3612L18.785 17.8246L19.4469 17.27H20.3056H21.1642L21.7009 17.6636Z" fill="white"/>
</svg>
