<svg width="170" height="65" viewBox="0 0 170 65" fill="none" xmlns="http://www.w3.org/2000/svg">
<path d="M35.7196 3.83696C33.2892 4.68479 32.5544 6.01305 32.2718 9.96957L32.074 12.7391H44.3109H56.5761L57.5653 11.1283C58.1022 10.2522 59.487 8.2174 60.6175 6.60653C61.7196 4.99566 62.6522 3.61088 62.6522 3.52609C62.6522 3.18696 36.737 3.46957 35.7196 3.83696Z" fill="#151C50"/>
<path d="M65.4783 21.6412V39.8695H69.887H74.3239L74.1261 28.4804C73.9565 18.0521 73.9848 17.176 74.4087 17.6847C74.6348 17.9956 75.9065 19.8325 77.1783 21.7825L79.4957 25.3152L83.65 25.3999C86.2218 25.4282 87.8044 25.3717 87.8044 25.2021C87.8044 25.0325 87.2391 24.1282 86.5609 23.1391C85.4304 21.5282 77.7152 9.46081 75.0022 5.13689L73.9565 3.41298H69.7174H65.4783V21.6412Z" fill="#151C50"/>
<path d="M92.4956 4.74124C91.5913 6.35211 90.5174 8.04777 88.2 11.6369C87.2391 13.1065 85.9956 15.0282 85.4304 15.9043L84.3848 17.5434H88.7935H93.1739V28.7065V39.8695H97.413H101.652V21.6412V3.41298H97.4695H93.2587L92.4956 4.74124Z" fill="#2E3887"/>
<path d="M105.891 21.6413V39.8978L118.694 39.813C131.383 39.7283 131.467 39.7283 132.683 39.0783C139.211 35.6022 139.578 25.4 133.304 21.4435L132.598 21.0196L134.067 20.2848C140.2 17.1478 139.239 7.48261 132.457 4.28913L130.902 3.55435L118.411 3.46957L105.891 3.38478V21.6413ZM128.67 10.5348C130.309 11.4391 130.987 14.1804 129.998 15.8478C128.924 17.6848 128.217 17.8261 120.05 17.8261H112.674V13.8413V9.88478L120.248 9.96957C126.72 10.0543 127.907 10.1109 128.67 10.5348ZM116.32 23.9022L119.654 26.3043H123.583C127.03 26.3043 127.624 26.3891 128.444 26.8696C130.394 28.0565 130.733 31.1087 129.065 32.5783L128.217 33.3696L121.294 33.4261C117.478 33.4543 114.03 33.4826 113.607 33.4826L112.815 33.5109L112.759 27.4913C112.73 24.213 112.759 21.5 112.844 21.5C112.928 21.5 114.483 22.5739 116.32 23.9022Z" fill="#151C50"/>
<path d="M32.4131 15.9326C32.4131 16.0456 33.2044 16.8934 34.1935 17.7695C35.1544 18.6456 37.4153 20.7934 39.1957 22.5173C43.35 26.5021 46.374 29.3847 47.8153 30.6565L48.9457 31.6739H44.3957H39.874L38.6022 30.7695C37.924 30.2891 36.3696 29.1304 35.1827 28.226C33.9674 27.3217 32.8935 26.5869 32.7522 26.5869C32.6392 26.5869 32.5261 29.5826 32.5261 33.2282L32.5544 39.8695H44.7348H56.887L58.3566 39.1347C60.4761 38.0891 61.0696 36.9869 61.0696 34.1043C61.0979 30.5717 60.7022 29.9782 54.0327 23.3934C50.924 20.313 47.8718 17.3456 47.25 16.8369L46.0913 15.876L39.2522 15.7912C35.4935 15.7347 32.4131 15.8195 32.4131 15.9326Z" fill="#151C50"/>
<path d="M63.924 45.6347C59.2892 47.0761 58.5544 52.9826 62.737 55.1869C64.5174 56.1478 67.9653 56.1195 69.7174 55.1304L70.9892 54.4239V52.163V49.9021L68.3892 49.8174L65.7609 49.7326V50.75V51.7674L67.1174 51.7108C69.0957 51.6261 69.1522 51.6543 69.1522 52.5587C69.1522 55.0174 63.7261 54.7065 62.5392 52.163C60.9566 48.8565 64.8001 45.9456 68.4174 47.6413C69.4631 48.15 69.4914 48.1217 70.0566 47.5565C71.5544 46.0869 67.0327 44.6456 63.924 45.6347Z" fill="#2E3887"/>
<path d="M123.47 45.5782C121.944 46.0869 121.152 47.0195 121.152 48.3478C121.152 50.1847 121.944 50.6934 126.013 51.4565C128.33 51.9086 128.98 52.6152 127.935 53.576C126.974 54.4521 125.052 54.4521 123.244 53.576L121.661 52.813L121.096 53.3782C120.389 54.0847 120.559 54.3956 122.085 55.1586C125.561 56.9391 130.478 55.6673 130.478 53.0108C130.478 50.976 129.63 50.326 126.126 49.676C123.696 49.1956 122.82 48.6304 123.3 47.8673C123.922 46.8782 126.72 46.7934 128.161 47.6978C128.867 48.1499 129.913 47.5847 129.913 46.7934C129.913 45.8325 125.307 44.9565 123.47 45.5782Z" fill="#2E3887"/>
<path d="M5.05652 50.6652L5.1413 55.8369H6.13043H7.11957L7.20435 53.7739L7.28913 51.7391H10.3978H13.5065L13.4217 50.8065L13.337 49.9021L10.313 49.9869L7.26087 50.0717V48.6304V47.1608L10.313 47.2173C11.9804 47.2456 13.5065 47.2456 13.7043 47.2456C13.9022 47.2173 14.0435 46.85 14.0435 46.3695V45.5217H9.52174H5L5.05652 50.6652Z" fill="#2E3887"/>
<path d="M16.0217 45.5782C16.0217 45.6347 15.9935 47.8956 15.9652 50.6087L15.9087 55.5543L17.1239 55.6391L18.3674 55.7239L18.1978 54.65C18.0848 54.0565 18 51.7674 18 49.5347V45.5217H17.0109C16.4739 45.5217 16.0217 45.55 16.0217 45.5782Z" fill="#2E3887"/>
<path d="M19.8936 45.7196C19.5544 46.0305 19.6675 47.1609 20.0631 47.3022C20.2327 47.3587 21.137 47.3587 22.0414 47.2739L23.6523 47.1326V51.4283V55.6957H24.7827H25.9131V51.4283V47.1609L27.8349 47.2457L29.7283 47.3587L29.8131 46.4261L29.8979 45.5218H24.9805C22.2957 45.5218 19.9783 45.6065 19.8936 45.7196Z" fill="#2E3887"/>
<path d="M30.774 46.4261L30.8588 47.3587L32.7805 47.2739L34.674 47.1609V51.4283V55.6957H35.8044H36.9349V51.4283V47.1892L38.7153 47.2457L40.4675 47.3305L40.5523 46.4261L40.637 45.5218H35.6631H30.6892L30.774 46.4261Z" fill="#2E3887"/>
<path d="M42.587 50.6087V55.6957H43.7175H44.8479V50.6087V45.5218H43.7175H42.587V50.6087Z" fill="#2E3887"/>
<path d="M47.3914 50.5805V55.6957H48.5501H49.737L49.5674 52.3044C49.4827 50.4392 49.4827 48.9131 49.5957 48.9131C49.7087 48.9131 51.1783 50.4392 52.874 52.3044C55.6435 55.3565 56.0392 55.6957 56.887 55.6957H57.8479V50.6087V45.5218H56.6892H55.5305L55.7283 48.9413C55.8414 51.1739 55.8131 52.3326 55.6435 52.2761C55.474 52.2196 54.0327 50.6935 52.4218 48.9131C49.7935 46.0022 49.3696 45.6631 48.437 45.5783L47.3914 45.4935V50.5805Z" fill="#2E3887"/>
<path d="M77.6305 50.6087V55.6957H78.7609H79.8914V50.6087V45.5218H78.7609H77.6305V50.6087Z" fill="#2E3887"/>
<path d="M82.7174 50.6087V55.6957H83.8761H85.0631L84.837 52.3044C84.6391 48.8565 84.7805 48.2913 85.6283 49.4783C85.8261 49.7892 87.1826 51.3152 88.6239 52.8696C90.9696 55.3848 91.3652 55.6957 92.2131 55.6957H93.1739V50.6087V45.5218H92.0435H90.9413L90.8565 48.9131L90.7718 52.2761L87.6913 48.9131C84.9218 45.8609 84.4978 45.5218 83.65 45.5218H82.7174V50.6087Z" fill="#2E3887"/>
<path d="M95.7174 50.5805V55.6957H98.8544C102.585 55.6957 103.857 55.3565 105.185 54.0848C107.53 51.7957 107.022 48.0087 104.139 46.3696C103.065 45.7479 102.528 45.6631 99.3348 45.5783L95.7174 45.4652V50.5805ZM101.793 47.5C103.291 47.8392 104.478 49.1674 104.478 50.4957C104.478 52.8131 102.839 54 99.6739 54H97.9783V50.6087V47.2174H99.3348C100.07 47.2174 101.172 47.3587 101.793 47.5Z" fill="#2E3887"/>
<path d="M108.463 49.1108C108.633 54.5369 109.65 55.8369 113.861 55.8369C117.789 55.8369 118.722 54.6217 118.835 49.3087L118.948 45.5217H117.789H116.63V49.0543C116.63 52.2195 116.574 52.6434 116.065 53.1521C114.652 54.5652 112.617 54.5369 111.43 53.1239C110.724 52.3043 110.696 52.1065 110.696 48.8847V45.5217H109.537H108.378L108.463 49.1108Z" fill="#2E3887"/>
<path d="M131.383 46.4261L131.467 47.3587L133.389 47.2457L135.283 47.1609V51.4283V55.6957H136.413H137.544V51.4283V47.1609L139.267 47.2739C141.133 47.3587 141.783 46.9631 141.415 45.9739C141.246 45.5783 140.596 45.5218 136.272 45.5218H131.298L131.383 46.4261Z" fill="#2E3887"/>
<path d="M143.167 45.5782C143.139 45.6065 143.083 47.9239 143.054 50.6652L142.998 55.6956H144.072H145.146L145.23 53.9152L145.315 52.163L146.417 52.0782C147.463 51.9934 147.633 52.0782 149.243 53.8304C150.967 55.6956 151.363 55.8652 153.37 55.7239C153.596 55.6956 153.03 54.9608 152.013 53.9152L150.233 52.1347L151.306 51.4282C152.833 50.4391 153.285 49.3934 152.776 47.9521C152.07 45.9739 151.335 45.6913 146.983 45.5782C144.891 45.5217 143.167 45.5217 143.167 45.5782ZM149.978 47.5847C150.515 47.8673 150.685 48.15 150.685 48.913C150.685 50.213 149.865 50.6087 147.237 50.6087H145.174V48.913V47.2173H147.237C148.339 47.2173 149.583 47.3869 149.978 47.5847Z" fill="#2E3887"/>
<path d="M153.652 45.6913C153.652 45.7761 154.189 46.5108 154.839 47.3021C158.683 52.05 158.315 51.3717 158.23 53.6043L158.174 55.6391L159.135 55.7521C160.548 55.9217 160.604 55.8369 160.491 53.7739L160.378 51.8521L162.95 48.6869L165.522 45.5217H164.109H162.696L161.339 47.3869C160.604 48.4326 159.87 49.45 159.728 49.6761C159.474 49.9869 159.107 49.6195 157.807 47.8108C156.167 45.55 156.167 45.5217 154.896 45.5217C154.217 45.5217 153.652 45.6065 153.652 45.6913Z" fill="#2E3887"/>
<path d="M5 59.6522V60.5L85.2044 60.4435L165.38 60.3587V59.6522V58.9457L85.2044 58.8609L5 58.8043V59.6522Z" fill="#2E3887"/>
</svg>
