<svg width="108" height="108" viewBox="0 0 108 108" fill="none" xmlns="http://www.w3.org/2000/svg">
<g clip-path="url(#clip0_325_134)">
<path d="M23.7008 26.6354C23.3452 27.0799 22.2785 28.8132 21.3452 30.5465C20.4119 32.2354 19.3008 34.2354 18.9008 34.991C18.5008 35.7021 16.2785 39.7021 14.0119 43.8799C11.7452 48.0132 9.52297 52.1021 9.03409 52.9021C7.61186 55.4354 7.87853 55.791 12.5896 58.4577C18.2341 61.6577 18.5896 61.7465 19.6119 60.3688C20.5452 59.1688 20.8119 59.2577 22.8119 61.5243L23.8341 62.6354L22.723 64.3243C22.0563 65.3021 21.5674 66.6354 21.5674 67.4799C21.5674 69.3021 23.3008 71.4354 25.3452 72.1021C26.4563 72.4577 26.9008 72.9021 26.9008 73.5243C26.9008 74.0132 27.5674 75.0799 28.4119 75.9243C29.523 77.0354 30.323 77.4354 31.4341 77.4354C32.723 77.4354 33.0785 77.6577 33.7008 79.0354C34.5008 80.6799 37.0341 82.1465 38.4563 81.7465C38.9452 81.6132 39.4785 82.0577 40.0119 83.0799C40.9008 84.7243 42.6785 85.8799 44.2341 85.8799C45.4785 85.8799 46.8119 85.1688 48.5008 83.5688L49.923 82.2354L52.323 83.6132C53.6563 84.3688 55.3452 84.991 56.0563 84.991C57.7896 84.991 60.0119 83.5688 60.723 81.9688C61.2563 80.7688 61.3896 80.7243 62.723 81.1243C63.4785 81.3465 64.6785 81.4354 65.3452 81.2577C66.8119 80.9021 69.123 78.5465 69.123 77.4354C69.123 76.8577 69.6119 76.591 70.9896 76.4132C73.123 76.1465 74.8563 74.6354 75.523 72.4577C75.8785 71.4354 76.323 70.9465 77.0785 70.8577C80.323 70.3688 82.5897 66.3688 81.123 63.6577C80.7674 62.991 80.9452 62.6354 82.1452 61.7021L83.5674 60.5465L84.4563 61.6577C84.9897 62.2799 85.7897 62.7688 86.2785 62.7688C87.0785 62.7688 95.5674 58.6799 96.4119 57.8799C96.6341 57.6577 93.5674 51.0354 89.3452 42.591C82.6341 29.1688 81.7452 27.6577 80.7674 27.6577C79.7452 27.6577 74.2341 30.4132 71.6563 32.191C70.723 32.8577 70.5008 33.3021 70.723 34.1465C70.9452 35.0354 70.8563 35.2132 69.9674 35.2132C69.3896 35.2132 68.1008 34.991 67.123 34.7688C58.3674 32.6354 55.1674 32.5021 50.6341 34.0577C47.2119 35.2132 39.923 35.9243 36.4563 35.4354L34.4119 35.1243L34.6785 33.4799C34.9008 32.2354 34.7674 31.6577 34.1452 31.1243C32.9896 30.1021 25.6119 25.8799 24.9452 25.8799C24.6341 25.8799 24.0563 26.2354 23.7008 26.6354ZM28.723 31.3021C30.1896 32.1021 31.3452 32.9021 31.3452 33.1243C31.3452 33.3465 30.5008 34.9465 29.4785 36.6799C27.123 40.7243 20.3674 52.991 18.9452 55.7465C17.7896 58.1021 17.7452 58.1021 14.1008 55.791L11.7452 54.2799L12.5896 52.8577C14.0563 50.4577 22.2341 35.6132 23.7452 32.6354C24.5008 31.1243 25.3452 29.8799 25.6119 29.8799C25.8785 29.8799 27.3008 30.5465 28.723 31.3021ZM86.2785 43.6577C89.7008 50.3688 92.5008 55.9688 92.5897 56.191C92.723 56.5021 87.7008 59.2132 86.9452 59.2132C86.6785 59.2132 83.8785 53.9688 80.6785 47.5243C77.4341 41.1243 74.5897 35.6132 74.3674 35.3021C74.0119 34.9021 74.0119 34.591 74.4119 34.191C75.0341 33.5688 79.4341 31.2577 79.8341 31.3465C80.0119 31.391 82.9008 36.9465 86.2785 43.6577ZM63.5674 37.2132C66.5008 37.791 69.6119 38.3243 70.4563 38.3243C71.3008 38.3243 72.2341 38.5021 72.4563 38.6799C72.723 38.8577 75.0341 43.2132 77.6563 48.4132L82.4119 57.8354L80.7674 59.2132C79.8785 59.9243 78.9897 60.5465 78.7674 60.5465C78.5452 60.5465 77.2563 59.5688 75.8785 58.3688C73.3452 56.2354 72.3674 55.4799 61.923 47.5243C56.5896 43.5243 56.1896 43.2577 54.5896 43.5243C50.9452 44.0132 49.6563 44.6354 46.9008 46.991C43.923 49.5688 41.8785 50.3243 40.2341 49.4354C38.9008 48.7243 39.1674 47.9688 42.5008 43.5243C45.6563 39.3021 46.4119 38.7243 50.9896 37.2132C55.1674 35.8799 57.0785 35.8799 63.5674 37.2132ZM37.7896 38.191C39.7452 38.2799 41.6119 38.4577 41.923 38.5465C42.2785 38.6799 41.523 39.9688 39.7896 42.1465C35.8785 47.0354 35.523 47.8799 36.4119 49.7021C37.2119 51.391 39.923 52.991 42.0119 52.991C43.7896 52.991 47.2119 51.2132 48.9008 49.4354C51.8341 46.2799 54.9008 45.9688 57.9674 48.4577C59.0785 49.391 62.5008 52.0577 65.5674 54.3243C77.3452 63.1688 78.4563 64.1465 78.4563 65.4799C78.4563 66.9021 76.723 68.3688 75.6119 67.9688C75.2563 67.8354 72.323 65.8799 69.1674 63.6577C63.0341 59.3465 61.3452 58.7688 61.3452 60.991C61.3452 61.8799 62.2341 62.6354 66.1896 65.3021C72.2341 69.3465 72.6785 69.7465 72.6785 71.2577C72.6785 72.5465 71.6563 73.4354 70.1896 73.4354C69.7452 73.4354 67.0341 71.7021 64.1452 69.6132C60.1896 66.7688 58.6341 65.8799 57.9674 66.1021C57.3008 66.3243 57.123 66.7243 57.2119 67.5688C57.3008 68.5021 58.1896 69.3021 61.5674 71.5243C66.2341 74.591 67.1674 75.8799 65.7896 77.4354C64.5008 78.8577 63.3008 78.5021 59.2119 75.6577C55.123 72.8577 54.4563 72.591 53.5674 73.6132C52.8563 74.5465 53.3896 75.3465 56.0119 77.0799C58.4119 78.6799 58.9896 79.9688 57.7896 81.1688C56.8119 82.1465 55.4341 82.0577 53.3452 80.8577C51.7008 79.9243 51.5674 79.7021 51.7008 78.1021C51.8341 75.9688 50.6341 73.791 48.8119 72.9021C48.0119 72.5465 47.523 71.9243 47.4341 71.2132C47.1674 68.6799 46.8119 68.1465 44.6785 66.8132C42.9452 65.7465 42.4563 65.2132 42.4563 64.2799C42.4563 62.4577 40.1008 60.5465 37.8341 60.5465C36.8563 60.5465 35.7008 60.7688 35.3452 60.991C34.8563 61.3021 34.323 61.0354 33.3008 60.0577C31.4341 58.2354 29.0341 57.8799 27.3452 59.1688C26.6341 59.6577 25.8785 60.1021 25.6563 60.1021C25.4341 60.1021 24.5452 59.1688 23.6563 58.0577L22.0563 56.0132L23.123 54.3243C24.1452 52.6799 27.0341 47.5688 30.2341 41.6577C32.4119 37.6577 32.6785 37.3465 33.523 37.7021C33.923 37.8799 35.8341 38.1021 37.7896 38.191ZM31.2563 61.9688C32.2785 62.991 31.7896 64.6354 29.7452 67.0354C27.5674 69.6132 26.5896 69.9243 25.3452 68.5465C24.2785 67.391 24.723 66.0577 26.9452 63.5243C28.7674 61.391 30.1896 60.9021 31.2563 61.9688ZM38.8119 63.9243C39.3452 64.2799 39.7896 65.0354 39.7896 65.5688C39.7896 66.7243 33.8785 74.1465 32.6341 74.5465C31.5674 74.9021 30.1452 74.1021 29.7896 72.991C29.4785 72.0132 31.3896 69.1688 35.0785 65.2132C37.1674 62.991 37.3896 62.9021 38.8119 63.9243ZM43.7896 69.8799C45.0341 71.1243 44.9008 71.7021 43.0785 74.191C39.4785 78.9465 38.1008 79.7021 36.4563 77.8354C35.6563 76.991 35.6563 76.9021 36.4119 75.4799C37.3896 73.6577 41.6563 68.991 42.3674 68.991C42.6785 68.991 43.3008 69.391 43.7896 69.8799ZM48.6785 76.7243C49.0785 77.9243 48.8563 78.591 47.1674 80.6799C45.5674 82.6799 44.1008 83.1688 42.9008 82.1021C41.5674 80.9021 41.8341 79.9688 44.1452 77.4799C45.8341 75.6577 46.4563 75.3021 47.3008 75.5243C47.8341 75.6577 48.4563 76.191 48.6785 76.7243Z" fill="#151C50"/>
</g>
<defs>
<clipPath id="clip0_325_134">
<rect width="108" height="108" fill="white"/>
</clipPath>
</defs>
</svg>
