<svg width="108" height="108" viewBox="0 0 108 108" fill="none" xmlns="http://www.w3.org/2000/svg">
<g clip-path="url(#clip0_325_104)">
<path d="M35.3336 20.1555C26.3113 23.7999 18.6669 26.7777 18.4002 26.7777C18.1336 26.7777 17.5558 27.1777 17.1113 27.6666C16.3558 28.4666 16.3113 29.1777 16.6225 36.0221C16.978 45.1777 17.8225 50.6443 19.9558 57.8888C24.578 73.6666 34.2225 86.0666 47.778 93.711C53.6002 96.9999 52.978 96.8221 55.8669 95.4443C60.4447 93.1777 67.6447 88.0221 71.3336 84.3777C76.2225 79.4443 79.0669 75.4888 82.178 69.2221C84.5336 64.5555 85.4225 62.1555 87.1114 56.7777C88.6669 51.6221 90.2225 39.7555 90.2225 32.7332C90.2225 28.9555 90.0891 28.1555 89.4225 27.5332C88.978 27.0888 88.4002 26.7777 88.1336 26.7777C87.7336 26.7777 83.8669 25.311 80.6669 23.8888C79.9558 23.5777 74.1336 21.2666 67.778 18.7777C61.4225 16.2888 55.8669 14.0666 55.4669 13.8443C55.0225 13.6221 54.0447 13.4443 53.2447 13.4888C52.4447 13.4888 44.4002 16.511 35.3336 20.1555ZM70.3558 23.2666L87.1114 29.9777V32.2888C87.1114 38.0221 85.8225 48.1555 84.4002 54.111C80.4447 70.1555 72.2225 81.711 58.8002 89.9777C53.2447 93.4443 53.4669 93.3999 49.378 90.9999C37.6891 84.0221 30.0002 75.2221 25.3336 63.4443C21.9113 54.911 20.0891 45.711 19.9113 35.9777L19.778 29.8888L36.2225 23.2666C45.2891 19.6221 52.8891 16.5999 53.1113 16.5999C53.378 16.5555 61.1114 19.5777 70.3558 23.2666Z" fill="#151C50"/>
<path d="M48.8891 25C46.578 25.9334 40.7557 28.2445 36.0002 30.1111C31.2446 31.9778 27.0668 33.7556 26.7113 34.0222C26.2224 34.4667 26.1335 35.7111 26.4002 41C27.2891 61.3111 35.778 76.2 51.2891 84.7333L53.4224 85.9333L56.8446 83.9333C68.1335 77.2667 75.8669 66.3334 78.8446 52.7334C80.4446 45.4445 81.0224 34.9111 79.9113 33.9778C79.2002 33.4 59.5113 25.5334 53.778 23.5334C53.4224 23.4 51.2002 24.0667 48.8891 25ZM51.6446 54.2445C51.6446 69 51.5557 81.1333 51.4224 81.2667C51.0224 81.6667 45.8668 77.5334 42.4891 74.1556C34.6224 66.2 30.2668 55.2222 29.5113 41.2222C29.2002 36.1556 29.2002 36.1556 30.2668 35.7111C30.8446 35.4889 35.0224 33.8445 39.5557 32.1111C44.0891 30.3334 48.4891 28.5111 49.3335 28.0667C50.178 27.6222 51.0668 27.3111 51.2446 27.3556C51.4224 27.4 51.6002 39.5334 51.6446 54.2445ZM66.6668 31.8445L77.1113 36.1111L77.2446 38.4222C77.4224 41.1334 76.6669 47.9778 75.7335 52.0667C72.978 63.9778 67.778 72.1556 58.3113 79.4C56.7557 80.5556 55.378 81.4445 55.2891 81.3111C55.1557 81.1778 55.0224 68.9556 54.978 54.1111C54.8891 30.3334 54.978 27.2222 55.5557 27.4C55.9113 27.5334 60.9335 29.5334 66.6668 31.8445Z" fill="#151C50"/>
</g>
<defs>
<clipPath id="clip0_325_104">
<rect width="108" height="108" fill="white"/>
</clipPath>
</defs>
</svg>
