<svg width="256" height="256" viewBox="0 0 256 256" fill="none" xmlns="http://www.w3.org/2000/svg">
<path d="M185.012 57.2909L176.057 66.2464L176.47 72.3776C176.677 75.7531 177.021 79.2665 177.228 80.162C177.503 81.5398 174.679 84.5709 158.146 100.829C147.468 111.3 138.237 119.773 137.617 119.704C136.997 119.704 135.137 119.084 133.414 118.464C129.419 116.949 125.423 117.431 121.428 119.773C112.059 125.215 112.059 139.269 121.428 144.711C133.897 152.013 148.019 139.82 142.646 126.318L141.474 123.493L160.695 104.204C179.639 85.2598 179.983 84.9842 182.326 85.3287C183.635 85.5354 187.286 85.8798 190.386 86.1554L196.035 86.6376L205.197 77.6131C216.357 66.5909 216.357 66.5909 205.541 65.1442L198.239 64.1798L197.826 59.6331C197.068 51.1598 196.517 48.8864 195.208 48.6797C194.381 48.4731 191.075 51.2975 185.012 57.2909Z" fill="#151C50"/>
<path d="M116.537 64.7308C103.379 67.1419 91.7367 73.1353 81.6789 82.7797C72.3789 91.6664 65.9033 102.758 62.3211 115.915C60.1166 123.975 60.1166 140.302 62.39 148.775C68.7278 173.162 87.6033 192.175 112.059 198.858C117.088 200.235 119.499 200.442 129.281 200.373C142.646 200.304 147.675 199.271 158.146 194.173C188.181 179.775 203.268 148.5 195.759 116.26C193.83 107.924 188.457 96.4886 184.048 91.4597L181.981 89.1175L177.366 93.802L172.75 98.4864L175.092 102.275C177.917 106.753 181.155 114.675 182.67 120.6C184.186 126.869 184.048 138.649 182.326 145.4C177.021 166.067 159.937 182.255 139.063 186.32C132.795 187.56 119.843 186.871 113.781 184.942C93.5278 178.535 78.9922 162.553 75.1344 142.438C69.6922 113.918 87.6033 86.0864 116.054 78.7842C123.15 76.9931 134.792 76.9931 141.888 78.7842C148.088 80.3686 156.286 84.0886 160.626 87.1886L163.795 89.462L168.203 85.0531C170.683 82.5731 172.681 80.2308 172.681 79.7486C172.681 78.3708 161.383 71.3442 155.046 68.7264C143.472 64.0419 128.661 62.4575 116.537 64.7308Z" fill="#2E3887"/>
<path d="M118.948 91.5974C107.375 94.7663 97.248 102.964 92.1502 113.297C88.4991 120.737 86.9835 127.764 87.5346 134.791C89.3946 160.211 113.024 178.122 137.755 172.886C152.91 169.717 165.792 157.18 169.512 142.162C170.89 136.513 170.959 127.902 169.581 122.597C168.479 118.257 164.001 108.475 163.175 108.475C162.899 108.475 160.557 110.611 158.008 113.16L153.324 117.844L154.908 121.289C156.286 124.182 156.492 125.835 156.492 132.242C156.492 139.062 156.286 140.233 154.632 143.815C152.015 149.326 146.572 154.837 141.061 157.593C136.79 159.66 136.101 159.797 128.937 159.797C121.91 159.797 121.084 159.591 117.226 157.731C111.508 154.837 106.341 149.533 103.586 143.815C101.588 139.475 101.381 138.58 101.381 132.173C101.381 125.56 101.519 125.077 103.999 120.049C106.961 113.986 111.37 109.577 117.432 106.615C121.015 104.824 122.048 104.686 128.937 104.686C135.826 104.686 136.928 104.893 140.648 106.615L144.781 108.544L149.535 103.584L154.288 98.6241L150.224 96.3507C143.266 92.3552 138.719 91.1152 130.315 90.8396C125.01 90.633 121.635 90.9085 118.948 91.5974Z" fill="#2E3887"/>
</svg>
