<svg width="108" height="108" viewBox="0 0 108 108" fill="none" xmlns="http://www.w3.org/2000/svg">
<g clip-path="url(#clip0_325_114)">
<path d="M49.2063 13.8443C48.4952 14.0666 46.8063 14.4666 45.4729 14.7777C34.5396 17.3555 23.8285 26.2443 18.6285 37.0443C8.80626 57.4888 17.4285 81.8443 38.2729 92.3332C43.1174 94.7332 50.7174 96.511 56.3174 96.5554C68.0952 96.5999 81.5174 89.8888 88.8507 80.3332C91.8729 76.4221 95.2507 69.4443 96.5396 64.5554C97.7396 59.9777 97.8729 50.9999 96.8507 46.3332C93.9618 33.5777 86.184 23.5332 74.6285 17.7555C68.584 14.7332 63.0729 13.4443 56.0952 13.4888C53.0285 13.4888 49.9618 13.6666 49.2063 13.8443ZM65.2063 17.6221C72.4952 19.5777 77.5618 22.5555 82.984 27.8888C90.6285 35.5332 94.3174 44.3332 94.3174 55.0443C94.3174 65.711 89.9618 75.3999 81.784 82.9554C69.9174 93.9777 52.8952 96.2443 38.5396 88.7332C29.0285 83.7554 22.4507 75.5777 19.1174 64.5554C18.3174 61.8443 18.1396 60.1554 18.0952 55.2221C18.0952 48.6888 18.4952 46.2888 20.6285 40.8666C25.384 28.6888 35.8729 19.9777 48.984 17.2221C52.6729 16.4221 61.6063 16.6443 65.2063 17.6221Z" fill="#151C50"/>
<path d="M74.5396 41.0889C73.0729 42.6445 67.6951 48.2889 62.5396 53.6667C57.384 59.0445 52.3173 64.3334 51.2951 65.4445L49.4729 67.4445L42.4507 60.4667C38.584 56.6 35.2951 53.3556 35.1173 53.1778C34.984 53.0445 34.4062 53.0445 33.8729 53.2223C31.6951 53.8889 32.8951 55.5778 41.3396 63.8445L49.5173 71.8445L54.4951 66.7334C67.9173 52.9556 79.4285 40.8223 79.5618 40.2445C79.784 39.4 78.8507 38.3334 77.8729 38.3334C77.4729 38.3334 75.9618 39.5778 74.5396 41.0889Z" fill="#151C50"/>
</g>
<defs>
<clipPath id="clip0_325_114">
<rect width="108" height="108" fill="white"/>
</clipPath>
</defs>
</svg>
