<svg width="108" height="108" viewBox="0 0 108 108" fill="none" xmlns="http://www.w3.org/2000/svg">
<g clip-path="url(#clip0_325_124)">
<path d="M47.1113 11.241C37.2446 13.241 27.6446 19.3299 22.0891 27.1521C16.1779 35.4632 14.0002 42.1743 14.0446 52.1299C14.0891 60.9299 15.4668 65.9077 19.9557 73.5966C23.5113 79.6855 31.6002 86.9743 38.2224 89.9966C53.9557 97.241 72.0891 93.8188 84.4446 81.2855C88.8002 76.841 91.4668 72.9743 90.8002 71.9966C89.8224 70.3966 88.3557 71.1077 86.2668 74.1299C78.3113 85.5966 63.5113 92.2188 50.3557 90.1743C37.2446 88.1299 26.2224 79.9521 20.7557 68.2188C18.3113 62.9743 17.2891 58.3966 17.2002 52.5743C17.1557 47.1521 17.5557 44.5299 19.2002 39.6854C23.0668 28.1743 32.0891 19.3743 43.8668 15.5077C58.3113 10.841 74.7113 15.7743 84.7113 27.8188C87.6446 31.3743 91.1113 38.2632 92.4002 43.2854C93.9557 49.1966 93.5113 50.3077 91.1113 46.7966C90.3557 45.6854 89.6446 44.7966 89.5113 44.7966C88.8446 44.7966 87.5557 45.7743 87.5557 46.2632C87.6002 47.2854 94.0446 55.241 94.9335 55.3743C95.6002 55.4632 96.3557 54.7521 97.8668 52.4855C99.0224 50.841 100.445 48.7521 101.111 47.8188C102.534 45.9077 102.311 44.3521 100.622 44.3521C99.8224 44.3521 99.2002 44.8854 98.1779 46.5743C97.4224 47.7743 96.6224 48.7966 96.4002 48.7966C96.1779 48.7966 96.0002 48.0854 96.0002 47.241C96.0002 43.2854 93.7779 35.9521 91.1113 31.241C88.7113 26.8854 82.2224 19.9966 78.1335 17.3743C75.4224 15.6854 70.8446 13.4632 68.2668 12.5743C62.2668 10.6188 53.2002 10.041 47.1113 11.241Z" fill="#151C50"/>
<path d="M49.3335 21.2411C38.1335 23.1966 28.1779 32.4411 25.0668 43.73C24.089 47.3744 23.7779 53.9522 24.4001 57.33C26.7112 69.33 34.9335 78.6633 46.3112 82.2188C51.0224 83.6855 59.7779 83.6855 64.1779 82.2188C74.3113 78.8411 81.5557 71.7744 84.9335 61.9077C85.8668 59.1966 86.0001 57.9966 86.0001 52.3522C86.0001 46.8855 85.8224 45.4188 84.9779 42.6633C82.3557 34.2188 75.3779 26.3522 68.0001 23.4633C67.1557 23.1522 66.2668 22.7077 66.0001 22.53C64.2224 21.1966 54.089 20.4411 49.3335 21.2411ZM53.4224 26.2633C53.2446 28.7077 53.8224 29.6855 55.3779 29.6855C56.5779 29.6855 57.0224 28.5744 56.8001 25.9077C56.6224 23.73 57.2446 23.5522 61.3779 24.5744C70.8446 26.8411 78.2224 33.5077 81.6446 42.7522C82.6224 45.3744 83.5557 49.8633 83.2001 50.2188C83.0224 50.3966 81.689 50.5744 80.2224 50.6633C77.6001 50.7966 77.5557 50.7966 77.5557 52.13C77.5557 53.4633 77.5557 53.4633 80.4001 53.5966L83.2446 53.73L82.9335 56.2188C82.3112 61.4633 78.889 68.0855 74.6668 72.1744C70.5335 76.1744 66.6224 78.3077 61.0224 79.6855C56.9779 80.6633 56.3113 80.4411 56.7113 78.3522C56.8446 77.5077 56.8446 76.3077 56.7113 75.6411C56.4446 74.7077 56.2224 74.53 54.9779 74.6633L53.5557 74.7966V77.4633V80.13L51.4224 80.0411C48.4446 79.8633 42.8446 77.5966 39.2001 75.0188C33.0224 70.7077 28.4446 63.2411 27.3779 55.8188L27.0668 53.73L29.8224 53.5966C31.8224 53.5077 32.7112 53.2411 33.0224 52.7077C33.8668 51.3744 32.6668 50.5744 29.7335 50.5744C26.6668 50.5744 26.6668 50.6633 28.0001 45.5077C30.5779 35.33 38.4446 27.3744 48.6668 24.5744C49.9113 24.2188 51.5113 23.9966 52.2224 24.0411C53.5113 24.13 53.5557 24.1744 53.4224 26.2633Z" fill="#151C50"/>
<path d="M53.8668 34.2187C53.4668 34.6187 53.3335 37.3298 53.3335 43.6854V52.5743L59.0668 58.3076C64.5779 63.8187 64.8891 64.0409 65.9557 63.552C66.6224 63.2854 67.1113 62.752 67.1113 62.4409C67.1113 62.0854 64.8002 59.552 62.0002 56.7965L56.8891 51.7298V43.552C56.8891 38.7965 56.7113 35.0632 56.4446 34.5298C55.9113 33.5965 54.6668 33.4187 53.8668 34.2187Z" fill="#151C50"/>
</g>
<defs>
<clipPath id="clip0_325_124">
<rect width="108" height="108" fill="white"/>
</clipPath>
</defs>
</svg>
