<svg width="256" height="256" viewBox="0 0 256 256" fill="none" xmlns="http://www.w3.org/2000/svg">
<path d="M132.038 55.3115C131.411 55.8757 131.474 115.175 132.101 114.925C132.352 114.799 138.808 108.405 146.456 100.632L160.372 86.5284L160.497 71.3588C160.497 63.0217 160.372 55.8757 160.121 55.5623C159.682 54.8101 132.728 54.5593 132.038 55.3115Z" fill="#151C50"/>
<path d="M180.681 68.0363C174.413 69.6661 168.959 71.1706 168.52 71.2959C168.019 71.484 168.771 72.7377 170.652 74.7436C172.282 76.4361 173.598 78.1285 173.598 78.442C173.598 78.6927 162.628 89.9759 149.214 103.39C135.799 116.868 123.388 129.53 121.57 131.473C119.752 133.479 117.809 135.109 117.245 135.109C116.68 135.109 112.543 131.41 108.093 126.96C103.642 122.446 99.6929 118.811 99.3168 118.811C99.0033 118.811 89.0365 128.59 77.2518 140.562L55.8137 162.377V169.585V176.794L77.2518 154.98C89.0365 143.007 99.1287 133.166 99.6302 133.166C100.132 133.166 104.332 137.052 108.845 141.816L117.182 150.466L124.203 143.258C138.871 128.151 181.308 85.588 181.684 85.588C181.872 85.588 183.502 87.0297 185.32 88.8476C187.138 90.6028 188.768 91.9191 189.018 91.7311C189.457 91.2296 195.475 67.5349 195.537 65.9678C195.537 64.4006 193.594 64.6514 180.681 68.0363Z" fill="#2E3887"/>
<path d="M93.7378 85.3373C93.2363 86.7163 93.2363 118.184 93.8004 118.184C94.0512 118.184 95.4302 116.993 96.9347 115.551L99.6301 112.918L108.406 121.632L117.182 130.345L120.003 127.587L122.823 124.828L122.698 104.707L122.51 84.6477L108.343 84.4597C95.8063 84.3343 94.1139 84.4597 93.7378 85.3373Z" fill="#151C50"/>
<path d="M186.699 99.692L182.687 102.45L178.738 100.632C176.607 99.5666 174.475 98.7517 173.974 98.7517C172.407 98.7517 164.822 107.402 164.759 109.283C164.508 115.05 164.696 116.303 165.95 116.742C172.532 118.936 176.983 122.509 179.741 127.9C182.06 132.413 182.373 139.685 180.493 144.699C178.55 149.84 173.848 154.541 168.708 156.421L164.822 157.863V172.531V187.262L168.458 186.823C170.401 186.573 172.156 186.322 172.219 186.197C172.344 186.071 172.783 183.689 173.096 180.868C173.598 177.107 174.036 175.666 174.789 175.415C175.353 175.227 177.421 174.349 179.365 173.472L183 171.905L186.448 174.537C188.329 175.979 190.334 177.295 190.836 177.483C192.09 177.985 203.059 167.329 203.059 165.636C203.059 165.009 201.806 162.878 200.239 160.872C198.671 158.929 197.418 156.986 197.418 156.672C197.418 156.108 200.427 148.21 200.803 147.771C200.928 147.708 202.621 147.332 204.689 147.019C212.023 145.765 211.208 146.956 211.208 137.052C211.208 130.407 211.02 128.276 210.393 128.025C209.892 127.837 207.698 127.524 205.379 127.273C203.059 127.022 200.991 126.521 200.677 126.082C200.364 125.706 199.424 123.512 198.671 121.255L197.167 117.118L200.113 113.294C201.743 111.226 203.059 109.157 203.059 108.656C203.059 107.59 192.591 96.8712 191.525 96.8712C191.087 96.8712 188.955 98.1248 186.699 99.692Z" fill="#2E3887"/>
<path d="M145.891 126.646L131.599 141.126V163.442C131.599 175.728 131.787 186.197 131.975 186.761C132.289 187.638 134.169 187.764 146.079 187.764C156.548 187.764 159.933 187.576 160.121 186.949C160.309 186.573 160.371 169.522 160.309 149.213L160.121 112.229L145.891 126.646Z" fill="#151C50"/>
<path d="M56.5032 113.295C55.939 113.859 55.751 119.438 55.751 135.359V156.735L70.1684 142.317L84.5858 127.9L84.4605 120.378L84.2724 112.856L70.7953 112.668C60.8284 112.542 57.0674 112.73 56.5032 113.295Z" fill="#151C50"/>
<path d="M96.3077 141.252L93.3616 144.261V165.323C93.3616 182.436 93.5496 186.51 94.2392 187.074C94.8033 187.576 99.1912 187.764 108.782 187.638L122.51 187.45L122.698 169.084C122.761 159.054 122.635 150.78 122.322 150.78C122.008 150.78 121.005 151.595 120.002 152.66C119 153.663 117.746 154.541 117.182 154.541C116.68 154.541 112.543 150.843 108.092 146.392C103.642 141.879 99.8181 138.243 99.63 138.243C99.442 138.243 97.9375 139.622 96.3077 141.252Z" fill="#151C50"/>
<path d="M69.9803 167.705L55.6882 182.31L55.8763 184.88L56.0643 187.45L70.043 187.638C80.9501 187.764 84.0843 187.638 84.2724 187.012C84.4604 186.51 84.5231 178.737 84.4604 169.648L84.2724 153.099L69.9803 167.705Z" fill="#151C50"/>
</svg>
