<svg width="239" height="239" viewBox="0 0 239 239" fill="none" xmlns="http://www.w3.org/2000/svg">
<g clip-path="url(#clip0_348_102)">
<path d="M38.7172 62.6554C37.0974 63.7133 36.1717 64.7711 35.7751 65.9943C35.4775 66.9199 35.4114 75.1183 35.4775 98.6224L35.5767 130.027H85.6594H135.742L135.841 98.5563C135.907 68.0108 135.907 67.0852 135.279 65.5976C134.849 64.6389 134.122 63.7464 133.23 63.0852L131.841 62.0935L85.6924 62.1265C43.5436 62.1265 39.4775 62.1596 38.7172 62.6554Z" fill="#2B3D88"/>
<path d="M145.858 78.2261C144.701 78.3914 143.61 79.1848 142.85 80.441C142.188 81.4989 142.188 81.9286 142.188 108.871C142.188 123.912 142.155 136.276 142.089 136.342C142.023 136.408 127.511 136.507 109.825 136.54C92.1388 136.606 77.5272 136.739 77.3289 136.838C77.1306 136.97 77.4611 137.234 78.0892 137.4C85.0975 139.515 90.552 144.441 93.0314 150.854C93.8909 153.069 94.5851 155.846 94.5851 157.102C94.5851 158.094 94.7504 158.358 95.4446 158.623C96.7669 159.152 149.23 159.053 149.726 158.557C149.957 158.325 150.122 157.565 150.122 156.805C150.122 155.416 150.982 152.077 151.907 149.929C153.659 145.896 157.99 141.4 162.056 139.416C165.164 137.896 166.023 137.565 168.436 137.135C175.048 135.978 182.056 137.995 186.883 142.391C191.147 146.325 193.296 150.193 194.221 155.615C194.486 157.135 194.883 158.524 195.147 158.656C195.775 159.086 200.767 159.02 202.056 158.59C203.841 157.995 205.263 156.739 205.99 155.119C206.651 153.697 206.684 153.168 206.585 134.557C206.453 114.59 206.519 115.251 204.998 112.011C204.304 110.491 203.775 109.631 195.775 97.6311C192.04 92.0113 188.899 87.2509 188.8 87.0526C188.701 86.8873 188.073 85.8625 187.378 84.8046C184.866 81.003 183.015 79.4162 180.205 78.6889C178.817 78.3253 148.04 77.9286 145.858 78.2261ZM176.569 87.7468C177.759 88.0113 178.982 89.4327 181.659 93.7303C182.552 95.1518 184.436 97.9947 185.792 100.044C187.18 102.127 188.469 104.044 188.635 104.342C188.833 104.639 189.593 105.73 190.387 106.788C191.147 107.813 191.775 108.739 191.775 108.871C191.775 109.003 192.073 109.466 192.436 109.929C193.263 111.02 193.296 112.21 192.469 112.672C192.04 112.871 185.759 113.003 174.321 113.003C157.131 113.003 156.8 113.003 155.94 112.309L155.081 111.648V100.276V88.9038L155.94 88.2427C156.8 87.5815 157.23 87.5485 166.155 87.5485C171.279 87.5485 175.974 87.6476 176.569 87.7468Z" fill="#162350"/>
<path d="M37.5604 136.738C36.4695 136.804 35.4777 137.035 35.3455 137.234C35.2133 137.465 35.0811 141.167 35.0811 145.498C35.0811 152.639 35.1472 153.498 35.7422 154.82C36.5025 156.506 38.3538 158.06 40.205 158.589C42.0893 159.118 49.1306 159.085 49.5273 158.523C49.6926 158.324 50.0893 156.705 50.4199 154.986C51.3125 150.391 53.2959 146.688 56.7339 143.25C59.4116 140.572 61.2298 139.448 65.5604 137.762C66.6182 137.366 67.3786 136.936 67.2794 136.837C67.1141 136.639 40.9654 136.572 37.5604 136.738Z" fill="#162350"/>
<path d="M68.9324 143.416C66.1886 143.978 63.1142 145.73 61.0315 147.846C56.9654 152.011 55.4448 157.333 56.734 162.887C58.3208 169.532 64.2712 174.457 71.3786 175.052C77.7919 175.581 84.6679 171.317 87.0481 165.399C91.2464 154.788 84.3043 143.747 73.0976 143.251C71.5439 143.185 69.6596 143.251 68.9324 143.416ZM75.9737 153.3C78.0563 154.788 78.7836 156.044 78.9819 158.457C79.1142 160.176 79.015 160.837 78.42 162.028C77.5605 163.813 75.9076 165.135 73.8249 165.763C71.5439 166.457 69.2629 165.664 67.3456 163.548C64.8993 160.804 64.8332 157.201 67.2134 154.59C68.8001 152.871 69.9572 152.375 72.4695 152.342C74.3538 152.342 74.8167 152.474 75.9737 153.3Z" fill="#162350"/>
<path d="M169.428 143.383C164.8 144.11 159.478 148.375 157.66 152.837C156.569 155.449 156.271 156.837 156.304 159.118C156.37 169.664 166.354 177.399 176.238 174.523C179.114 173.697 180.073 173.234 182.023 171.779C189.66 166.094 190.288 154.259 183.312 147.746C181.164 145.73 180.172 145.102 177.395 144.077C175.445 143.35 171.775 143.019 169.428 143.383ZM175.18 152.97C178.089 154.457 179.709 157.862 178.916 160.837C178.188 163.548 174.817 166.226 172.205 166.226C168.734 166.193 165.329 162.622 165.329 159.019C165.329 156.771 167.114 154.127 169.461 152.903C170.85 152.143 173.66 152.209 175.18 152.97Z" fill="#162350"/>
</g>
<defs>
<clipPath id="clip0_348_102">
<rect width="239" height="239" fill="white"/>
</clipPath>
</defs>
</svg>
