<svg width="239" height="239" viewBox="0 0 239 239" fill="none" xmlns="http://www.w3.org/2000/svg">
<g clip-path="url(#clip0_348_88)">
<path d="M100.403 42.8758C99.5768 42.9419 98.7173 43.1733 98.552 43.4047C98.3536 43.6361 97.99 44.9254 97.6925 46.2808C97.3949 47.6361 96.9321 49.7849 96.6677 51.0742C96.3701 52.3304 95.9404 54.413 95.6429 55.7023C94.9487 58.9089 94.4528 59.4709 91.3454 60.5287C87.3784 61.851 86.5189 62.1816 82.9487 63.9337C81.5933 64.5948 80.2049 65.1238 79.8412 65.1238C79.5106 65.1238 78.2214 64.4957 77.0313 63.7023C75.147 62.4461 73.4611 61.3882 71.1139 59.9998C70.8164 59.8014 69.6263 59.0411 68.4693 58.2477C67.3123 57.4874 66.023 56.8593 65.5933 56.8593C65.0313 56.8593 63.1139 58.5452 58.552 63.0411C55.114 66.4791 51.742 69.9502 51.0809 70.8097L49.8578 72.3634L50.7173 73.7849C51.2131 74.5783 51.9404 75.7353 52.3701 76.3634C56.0396 82.0494 58.4859 86.1155 58.4859 86.5452C58.4859 86.8428 57.99 88.132 57.3619 89.3882C56.1387 91.8676 55.6098 93.2229 54.3206 97.1568C52.9982 101.124 53.2627 100.925 47.9073 102.115C46.1883 102.512 44.2379 102.942 43.6098 103.107C42.9817 103.273 41.2958 103.669 39.8743 104C38.4859 104.297 37.1635 104.76 36.9652 104.992C36.4693 105.62 36.0726 114.744 36.304 120.76C36.5354 126.909 36.2049 126.446 41.2958 127.603C53.3619 130.314 53.1635 130.215 53.8908 133.058C54.0561 133.785 54.3536 134.677 54.5189 135.041C54.6511 135.405 55.147 136.595 55.5437 137.686C55.9735 138.777 56.866 140.76 57.5602 142.082C58.2544 143.405 58.8164 144.595 58.8164 144.76C58.8164 144.892 57.2958 147.306 55.4115 150.115C53.5272 152.925 51.9073 155.438 51.7751 155.702C51.6429 155.967 51.2462 156.628 50.9156 157.19C50.552 157.719 50.2544 158.446 50.2544 158.744C50.1883 159.901 64.4032 174.215 65.5933 174.215C65.9569 174.215 74.2875 169.223 77.5602 167.074C78.4859 166.446 79.5437 165.95 79.8412 165.95C80.1718 165.95 81.7916 166.611 83.4445 167.405C87.2792 169.289 88.3371 169.752 90.552 170.413C93.5933 171.339 94.2214 171.636 94.7173 172.396C94.9817 172.793 95.6429 175.273 96.1718 177.884C97.9239 186.281 98.1553 187.273 98.6511 187.735C99.6429 188.727 118.618 188.992 120.37 188.066C120.668 187.901 121.031 187.206 121.13 186.512C121.23 185.851 121.527 184.396 121.792 183.306C122.056 182.215 122.486 180.198 122.783 178.843C123.081 177.487 123.577 175.405 123.874 174.215C124.502 171.768 124.8 171.57 129.064 170.215C132.106 169.256 135.577 167.669 135.445 167.273C135.147 166.446 120.734 152.066 120.205 152.066C119.841 152.066 118.75 152.33 117.726 152.628C116.205 153.124 114.618 153.223 109.23 153.223C102.387 153.223 101.99 153.157 97.1635 151.504C90.552 149.256 83.4115 144.099 79.1801 138.545C78.4197 137.52 77.6594 136.463 77.5272 136.198C77.1966 135.471 76.5354 134.347 76.1387 133.851C75.9404 133.587 75.4445 132.562 75.0148 131.57C72.3701 125.322 71.709 122.049 71.709 115.372C71.709 111.801 71.8743 109.554 72.2379 107.934C73.0644 104.396 74.6842 99.8345 75.742 98.1485C76.2379 97.3221 76.6677 96.5287 76.6677 96.4295C76.6677 96.3304 77.3619 95.2064 78.2214 93.9833C80.1387 91.2395 85.4611 85.9171 88.1057 84.132C98.1553 77.3552 109.692 75.6362 121.296 79.2395C123.907 80.0659 130.254 83.3717 132.502 85.0907C134.916 86.9419 139.411 91.7353 140.998 94.1155C144.734 99.7353 146.75 105.554 147.445 112.595C147.808 116.496 147.445 122.016 146.684 123.405C146.453 123.868 146.651 124.297 147.808 125.421C148.602 126.215 149.858 127.405 150.651 128.066C152.172 129.322 158.387 135.041 160.998 137.587C161.891 138.446 162.783 139.074 163.015 138.975C163.246 138.909 163.808 137.686 164.271 136.264C164.701 134.876 165.164 133.487 165.296 133.223C165.428 132.958 165.726 132.231 165.957 131.636C166.42 130.347 166.949 130.082 171.048 129.223C178.684 127.537 181.726 126.744 182.287 126.281C182.949 125.719 183.015 105.884 182.387 105.058C182.155 104.76 180.833 104.297 179.478 104C178.122 103.702 176.469 103.306 175.841 103.107C175.213 102.942 174.023 102.644 173.197 102.512C169.494 101.785 167.312 101.223 166.684 100.826C166.254 100.562 165.726 99.537 165.329 98.2147C164.205 94.6775 163.643 93.2229 162.089 89.9502C161.296 88.2642 160.635 86.6444 160.635 86.3469C160.635 86.0824 161.13 85.0907 161.759 84.1651C163.015 82.2477 164.602 79.7684 165.097 78.9419C165.626 78.0824 168.238 73.9502 168.635 73.3552C168.833 73.0576 168.899 72.4626 168.8 71.9998C168.668 71.57 165.924 68.4957 162.717 65.2229C155.147 57.5866 153.891 56.4626 153.13 56.7932C152.568 57.0246 146.651 60.7932 144.701 62.1816C144.205 62.5122 143.742 62.8097 143.643 62.8097C143.577 62.8097 142.717 63.3386 141.759 63.9667C139.676 65.3221 138.916 65.3882 137.064 64.3304C135.114 63.2064 130.519 61.256 127.544 60.2973C126.155 59.8676 124.866 59.3056 124.668 59.0742C124.205 58.5122 123.246 54.7105 121.659 46.975C121.296 45.256 120.767 43.6361 120.469 43.3386C120.04 42.8758 118.684 42.8097 110.949 42.7766C105.99 42.7436 101.263 42.7766 100.403 42.8758Z" fill="#2B3D88"/>
<path d="M104.866 89.917C102.882 90.3137 101.494 91.1401 101.461 91.9335C101.461 92.198 104.403 95.1401 109.858 100.33C116.139 106.281 116.205 106.38 115.676 108.363C115.477 109.223 115.081 110.446 114.849 111.074C114.618 111.702 114.122 113.223 113.725 114.479C112.601 118.148 112.469 118.248 106.75 120.264C101.13 122.248 101.527 122.181 100.634 121.653C99.9403 121.223 95.4444 117.091 88.5353 110.512C84.8328 106.975 83.9403 107.702 83.7088 114.38C83.5436 118.611 83.9403 121.256 85.3948 125.157C87.246 130.215 92.4692 136.099 97.1634 138.413C102.287 140.958 103.61 141.256 109.395 141.256C113.362 141.256 114.849 141.157 115.973 140.727C116.767 140.396 117.725 140.165 118.089 140.165C118.783 140.165 124.039 145.355 139.147 161.024C143.411 165.454 148.106 170.281 149.56 171.768C151.015 173.256 155.246 177.619 158.982 181.454C162.684 185.289 166.287 188.826 166.982 189.289C172.139 192.892 179.477 192.396 184.172 188.165C188.899 183.9 190.056 177.024 187.048 171.206C186.122 169.52 183.411 166.777 176.238 160.396C174.486 158.843 172.436 157.024 171.742 156.396C170.089 154.876 170.221 154.975 166.915 152.066C165.362 150.71 163.709 149.223 163.246 148.76C162.75 148.297 161.791 147.405 161.097 146.777C155.015 141.322 151.577 138.181 149.263 136C149.064 135.834 147.18 134.115 145.097 132.231C143.015 130.347 140.568 128.099 139.643 127.239C138.75 126.413 137.329 125.124 136.535 124.396C134.915 122.909 134.982 123.338 135.345 117.19C135.742 110.677 134.75 106.611 131.544 101.289C128.37 96.0658 122.32 91.8344 115.676 90.2145C113.031 89.5534 107.477 89.4211 104.866 89.917ZM177.461 172.496C178.717 173.256 179.61 174.38 180.172 175.967C180.899 178.049 179.907 180.76 177.858 182.347C177.196 182.81 176.469 182.975 174.849 182.975C172.998 182.975 172.535 182.843 171.477 182.049C170.023 180.925 168.899 178.909 168.899 177.421C168.932 175.735 170.023 173.686 171.444 172.76C173.031 171.702 175.973 171.57 177.461 172.496Z" fill="#162350"/>
</g>
<defs>
<clipPath id="clip0_348_88">
<rect width="239" height="239" fill="white"/>
</clipPath>
</defs>
</svg>
