<svg width="239" height="239" viewBox="0 0 239 239" fill="none" xmlns="http://www.w3.org/2000/svg">
<g clip-path="url(#clip0_348_74)">
<path d="M100.991 39.1517C97.322 39.3831 91.4377 40.6063 86.9418 42.0608C79.4377 44.474 71.2724 49.6972 65.2559 55.879C62.6773 58.5236 58.1815 64.0443 58.1815 64.5401C58.1815 64.6393 57.7848 65.2674 57.322 65.9616C56.0327 67.8459 53.355 73.598 52.3633 76.5071C49.884 84.0443 49.1236 89.0691 49.322 96.7385C49.4211 99.9451 49.6856 103.416 49.884 104.408C51.5369 111.747 52.6608 115.251 54.9418 119.78C60.3964 130.656 69.9831 140.375 80.0988 145.267C81.4212 145.896 82.7435 146.557 83.041 146.722C84.2641 147.383 89.4542 149.135 92.2311 149.796C97.7848 151.152 100.661 151.416 106.512 151.284C109.653 151.185 113.058 150.92 114.049 150.722C118.876 149.631 121.322 148.97 122.975 148.342C123.967 147.978 125.19 147.548 125.686 147.383C128.727 146.457 134.71 143.019 138.909 139.879C139.934 139.086 140.826 138.457 140.925 138.457C140.991 138.457 142.743 140.077 144.793 142.061L148.529 145.697L148.099 147.218C147.504 149.4 147.834 152.838 148.859 155.119C149.62 156.738 151.867 159.152 165.719 172.97L181.719 188.937L184.297 189.995C186.677 190.986 187.107 191.086 189.884 190.953C193.091 190.821 195.438 189.995 197.95 188.11C199.339 187.053 201.653 184.011 202.413 182.259C204.462 177.367 203.305 171.053 199.669 167.317C192.628 160.177 169.851 137.796 169.091 137.267C166.347 135.449 163.008 134.887 158.942 135.581L157.388 135.846L153.884 132.441C151.967 130.557 150.413 128.805 150.413 128.573C150.413 128.342 150.843 127.581 151.339 126.92C151.867 126.259 152.396 125.499 152.496 125.234C152.628 124.97 153.024 124.243 153.421 123.615C153.785 122.986 154.611 121.433 155.272 120.143C155.9 118.854 156.562 117.532 156.727 117.201C157.289 116.11 159.272 109.829 159.768 107.548C161.653 98.9864 161.653 91.0525 159.801 82.9203C158.479 77.0691 156.859 72.9368 153.586 66.8872C150.181 60.6393 143.14 53.003 137.024 48.9368C131.967 45.5319 125.752 42.5897 120.496 41.0691C115.471 39.6476 106.942 38.7881 100.991 39.1517ZM114.71 51.8129C116.264 52.1765 118.347 52.8046 119.339 53.2013C120.33 53.5649 121.421 53.9616 121.785 54.0608C123.735 54.6559 130.446 58.6889 132.991 60.8046C136.462 63.6806 140.991 68.8707 142.777 72.0112C146.181 77.9616 147.702 82.193 148.76 88.7054C149.586 93.6972 149.586 96.6393 148.793 101.433C147.669 108.143 146.479 111.515 143.206 117.532C140.33 122.755 132.892 130.457 128.595 132.606C128.33 132.738 127.669 133.135 127.107 133.499C121.454 137.135 112.958 139.449 105.289 139.449C97.0245 139.449 90.0823 137.499 82.6443 133.069C79.1732 131.019 74.0493 126.59 71.074 123.053C68.76 120.309 65.2889 114.226 63.9335 110.524C60.4955 101.201 60.2641 90.2591 63.3385 81.1021C64.2641 78.2922 66.8096 72.9038 67.603 72.0112C67.8674 71.7137 68.0988 71.3501 68.0988 71.2178C68.0988 70.7881 71.9335 65.9286 73.7517 64.0773C75.3055 62.4575 81.9831 57.1352 82.4459 57.1352C82.5451 57.1352 83.3385 56.7054 84.198 56.2096C88.2641 53.8625 93.4873 52.1104 99.3385 51.1517C102.413 50.6889 111.603 51.0525 114.71 51.8129Z" fill="#162350"/>
<path d="M100.429 62.1598C100.132 62.4243 99.7021 63.8127 99.3384 65.73C98.6111 69.5648 98.4459 69.9284 97.1897 70.1929C96.6607 70.3251 95.3054 70.854 94.1814 71.3829C91.9335 72.4738 91.4045 72.4408 89.5863 71.0193C87.7682 69.5978 85.6855 68.3747 85.1235 68.3747C84.4624 68.3747 78.4459 74.1598 78.1483 75.0524C78.0492 75.416 78.1814 75.9449 78.4789 76.2755C78.7764 76.6061 79.0078 76.9697 79.0078 77.0689C79.0078 77.2011 79.669 78.259 80.4954 79.4821C82.0822 81.7962 82.2475 82.4904 81.5202 83.8457C80.7599 85.2672 79.9996 87.1185 79.9996 87.5152C79.9996 88.0772 78.6111 88.8044 77.0244 89.0358C73.95 89.5317 72.264 90.0937 72.0326 90.7218C71.9004 91.0524 71.7682 93.1681 71.7682 95.3829C71.7351 99.8457 71.9004 100.242 73.7847 100.606C76.8921 101.201 79.3384 101.862 79.6029 102.193C79.7682 102.424 80.264 103.482 80.6607 104.573C81.0905 105.664 81.5863 106.689 81.7186 106.887C82.2475 107.515 81.95 108.804 80.9913 110.028C80.4624 110.722 79.9996 111.35 79.9996 111.482C79.9996 111.581 79.5368 112.309 78.9748 113.135L77.9169 114.59L78.6442 115.548C80.5616 118.028 84.3963 121.598 85.1235 121.598C85.5533 121.598 86.6773 121.102 87.6029 120.474C88.5285 119.846 89.9169 119.019 90.6773 118.623L92.0657 117.895L93.8839 118.722C94.8756 119.185 96.0987 119.647 96.5946 119.78C97.7186 120.077 98.8425 121.135 98.8425 121.928C98.8425 123.185 100.165 128.011 100.562 128.276C101.124 128.606 109.454 128.606 109.983 128.276C110.214 128.143 110.743 126.391 111.173 124.408C111.933 120.871 111.967 120.771 113.09 120.242C116.066 118.788 118.082 117.961 118.512 117.961C118.776 117.961 119.834 118.556 120.859 119.284C121.917 120.011 122.942 120.606 123.14 120.606C123.371 120.606 123.735 120.837 123.967 121.102C124.198 121.366 124.793 121.598 125.289 121.598C125.983 121.598 126.843 120.937 129.223 118.457C130.876 116.705 132.231 115.085 132.231 114.821C132.231 114.358 130.148 110.788 128.859 109.036C128.231 108.176 128.231 108.044 128.694 107.019C128.991 106.391 129.586 105.003 130.016 103.912C130.942 101.73 130.843 101.796 136.033 100.705C136.958 100.54 137.884 100.242 138.115 100.044C138.578 99.6474 138.677 91.3168 138.248 90.5896C138.016 90.259 135.305 89.4656 131.801 88.7053C131.206 88.573 130.776 88.2094 130.545 87.6143C130.148 86.4573 129.652 85.3003 129.057 84.1433C128.33 82.6887 128.495 81.7962 129.851 79.7135C130.545 78.6557 131.438 77.2672 131.834 76.6061L132.562 75.416L131.834 74.4573C130.578 72.7714 125.917 68.3747 125.421 68.3747C125.024 68.3747 123.074 69.5648 119.933 71.7135C118.743 72.54 118.413 72.5069 116.099 71.3499C114.975 70.7879 113.95 70.3581 113.785 70.3581C113.619 70.3581 113.124 70.0606 112.661 69.73C112.033 69.2342 111.735 68.4408 111.272 66.3251C110.281 61.697 110.644 61.9284 105.421 61.8292C102.214 61.7631 100.826 61.8623 100.429 62.1598ZM107.834 81.6309C112.033 82.5234 115.504 85.3003 117.52 89.3995C118.677 91.8127 118.743 92.1433 118.776 95.1185C118.776 98.0276 118.677 98.4904 117.719 100.408C115.008 105.928 110.809 108.705 105.256 108.738C99.6359 108.738 94.7103 105.433 92.3963 100.11C91.4706 98.0276 91.4706 92.3086 92.3632 90.1929C93.9169 86.6887 96.9913 83.6474 100.396 82.292C103.107 81.2342 105.057 81.0689 107.834 81.6309Z" fill="#2B3D88"/>
</g>
<defs>
<clipPath id="clip0_348_74">
<rect width="239" height="239" fill="white"/>
</clipPath>
</defs>
</svg>
