<svg width="239" height="239" viewBox="0 0 239 239" fill="none" xmlns="http://www.w3.org/2000/svg">
<g clip-path="url(#clip0_348_60)">
<path d="M115.703 60.5294C113.819 61.7856 110.744 63.7691 108.926 64.8931C107.108 66.017 104.728 67.5377 103.637 68.265C102.513 69.0253 101.422 69.7195 101.158 69.8517C100.893 69.984 99.5377 70.8104 98.1823 71.703C95.7691 73.3228 91.7691 75.8683 90.6451 76.5294C90.3476 76.7278 89.6534 77.1575 89.0914 77.4881C88.5625 77.8517 87.141 78.7443 85.9509 79.5046C84.7608 80.265 82.2484 81.9179 80.3311 83.174C78.4137 84.4302 76.5955 85.5873 76.298 85.7856C76.0005 85.9509 74.6782 86.7774 73.3559 87.6038C72.0666 88.4302 70.7443 89.2236 70.4468 89.422C70.1492 89.5873 68.6286 90.6121 67.0418 91.6369C65.455 92.6947 64.0666 93.5542 63.9344 93.5542C63.8352 93.5542 63.174 93.9509 62.5129 94.4468C61.8517 94.9757 61.0253 95.5377 60.6616 95.7691C59.4716 96.4633 55.4716 99.0088 54.579 99.5707C54.1162 99.9013 53.4881 100.265 53.2236 100.397C52.9592 100.529 51.703 101.323 50.4137 102.182C47.3724 104.199 44.298 106.215 43.6038 106.612C40.8269 108.232 40.3311 108.596 40.3311 108.893C40.3311 109.091 41.0583 109.587 41.9178 109.984C42.7773 110.414 44.4302 111.273 45.6203 111.934C49.455 114.083 51.3393 115.108 55.0418 117.025C57.0583 118.05 59.6368 119.439 60.8269 120.067C62.017 120.695 64.3311 121.951 65.9509 122.81C67.6038 123.703 69.5211 124.761 70.2484 125.158C70.9757 125.554 72.8269 126.546 74.3806 127.339C78.7112 129.587 86.017 133.521 88.9261 135.141C89.7525 135.604 92.1327 136.86 94.2154 137.951C101.091 141.521 106.546 144.43 109.422 146.05C110.248 146.513 112.992 147.967 115.538 149.29L120.166 151.67L123.538 149.422C125.389 148.199 127.108 147.108 127.339 146.976C127.934 146.678 128.959 146.05 133.918 142.81C146.281 134.711 149.786 132.463 150.248 132.232C150.645 132.034 156 128.562 157.951 127.24C158.711 126.711 159.439 126.281 159.505 126.281C159.604 126.281 160.629 125.62 161.852 124.794C163.042 123.967 164.1 123.306 164.199 123.306C164.298 123.306 164.926 122.91 165.587 122.381C166.81 121.488 166.943 121.356 169.587 119.802C170.414 119.306 173.158 117.554 175.703 115.868C178.248 114.215 180.695 112.629 181.124 112.397C181.587 112.166 182.116 111.835 182.281 111.67C182.678 111.339 186.149 109.091 189.224 107.174C190.281 106.513 191.505 105.72 191.901 105.455C192.331 105.191 194.116 104.1 195.835 103.042C197.554 102.017 199.042 101.025 199.141 100.893C199.439 100.397 198.843 99.9674 196.034 98.546C193.389 97.2236 192.1 96.5625 186.05 93.2567C184.728 92.5294 182.381 91.2732 180.827 90.4798C179.273 89.6864 176.529 88.265 174.711 87.2732C172.893 86.3145 170.149 84.86 168.596 84.0336C167.042 83.2402 165.025 82.1493 164.133 81.6534C163.207 81.1245 160.893 79.9013 159.009 78.9096C149.422 73.9179 147.141 72.7608 145.852 72.0336C142.381 70.1162 140.397 69.0583 136.199 66.8765C133.753 65.5873 130.315 63.7691 128.596 62.8435C126.877 61.9178 124.728 60.7608 123.802 60.298C122.91 59.8352 121.719 59.174 121.158 58.8435C120.629 58.5129 119.934 58.2154 119.67 58.2154C119.405 58.2154 117.62 59.2732 115.703 60.5294ZM122.744 71.141C124.761 72.298 125.554 73.6203 124.926 74.8104C123.472 77.4881 118.315 78.1493 115.835 75.9674C113.984 74.3476 114.348 72.5625 116.794 71.2071C117.753 70.6782 121.786 70.6451 122.744 71.141ZM176.463 98.579C180.463 100.463 178.381 104.463 173.389 104.463C169.455 104.463 166.91 101.918 168.629 99.703C169.389 98.7443 170.348 98.2484 172.232 97.8517C173.653 97.5542 174.612 97.7195 176.463 98.579ZM70.2154 105.224C73.8517 108 70.2815 111.439 64.6616 110.612C63.6038 110.447 62.8435 110.083 62.1492 109.389C60.8269 108.034 60.86 106.877 62.2484 105.554C63.5377 104.298 64.0335 104.166 66.8104 104.232C68.6286 104.298 69.1906 104.463 70.2154 105.224ZM122.744 132.761C124.463 133.62 124.959 134.248 124.959 135.405C124.959 137.389 122.877 138.843 120.034 138.843C116.761 138.843 114.711 137.554 114.711 135.472C114.711 134.381 114.877 134.083 116.1 133.224C117.257 132.364 117.753 132.232 119.571 132.232C120.86 132.232 122.083 132.43 122.744 132.761Z" fill="#2B3D88"/>
<path d="M185.752 116.959C184.727 117.62 183.636 118.347 183.273 118.579C182.942 118.81 181.62 119.603 180.397 120.397C179.173 121.19 177.884 121.983 177.587 122.149C177.289 122.347 175.405 123.57 173.454 124.893C171.471 126.182 169.785 127.273 169.686 127.273C169.587 127.273 168.959 127.702 168.297 128.198C167.636 128.727 166.876 129.256 166.611 129.355C166.347 129.488 164.33 130.744 162.149 132.198C159.967 133.653 157.157 135.471 155.901 136.264C154.644 137.058 153.289 137.917 152.859 138.182C152.43 138.446 151.173 139.273 150.016 139.967C148.859 140.694 146.016 142.545 143.636 144.099C139.206 147.008 138.38 147.57 137.521 148C136.992 148.298 127.669 154.38 126.215 155.405C125.719 155.736 125.223 156.033 125.091 156.033C124.992 156.033 124.33 156.43 123.669 156.926C122.413 157.917 121.421 158.545 120.76 158.876C120.33 159.074 117.421 157.752 113.388 155.504C112.198 154.843 109.686 153.488 107.768 152.463C105.851 151.471 103.405 150.149 102.314 149.554C101.223 148.992 99.3717 148 98.1817 147.372C96.9916 146.744 94.7106 145.521 93.0577 144.628C87.9668 141.917 85.5536 140.661 82.1486 138.843C80.3304 137.884 78.1155 136.694 77.1899 136.198C76.2974 135.702 74.1155 134.545 72.3965 133.62C70.6775 132.727 68.661 131.636 67.9337 131.24C67.2065 130.843 65.0577 129.653 63.1403 128.661C61.223 127.636 58.7767 126.347 57.6858 125.752C56.5949 125.157 54.8098 124.231 53.7519 123.702L51.7684 122.711L49.6197 124.066C48.4296 124.793 46.4461 126.017 45.256 126.81C44.066 127.57 42.4461 128.562 41.6858 128.926C40.2312 129.719 39.8676 130.711 40.9585 131.074C41.3222 131.174 42.9089 131.967 44.5288 132.86C49.7519 135.669 53.0246 137.422 55.6693 138.843C57.1238 139.603 59.0412 140.628 59.9668 141.124C60.8924 141.653 63.0742 142.81 64.7932 143.736C66.5122 144.661 69.1899 146.083 70.7436 146.909C72.2974 147.769 74.4461 148.893 75.537 149.455C76.6279 149.983 78.8759 151.174 80.4957 152.066C82.1486 152.926 84.5949 154.248 85.9503 154.975C87.3056 155.702 89.0246 156.628 89.7519 157.025C90.4792 157.455 92.9255 158.744 95.2065 159.934C97.4874 161.091 100.099 162.479 100.992 162.975C101.917 163.471 103.768 164.463 105.124 165.19C107.603 166.512 111.074 168.397 113.554 169.785C115.934 171.141 119.669 172.893 120.165 172.893C120.661 172.893 122.942 171.537 126.942 168.893C128.297 168 129.653 167.174 129.917 167.041C130.182 166.909 131.339 166.182 132.496 165.388C133.653 164.595 134.678 163.967 134.777 163.967C134.876 163.967 135.504 163.537 136.165 163.041C136.826 162.512 137.587 161.983 137.851 161.851C138.611 161.488 139.405 160.992 143.14 158.512C145.058 157.256 146.843 156.066 147.14 155.868C149.785 154.215 152.628 152.43 154.711 151.074C156.066 150.182 157.851 149.058 158.678 148.562C159.901 147.802 163.306 145.62 170.413 140.992C170.975 140.628 171.57 140.264 171.735 140.165C171.934 140.066 173.421 139.107 175.041 138.05C176.694 136.959 178.777 135.603 179.669 135.041C180.595 134.446 182.215 133.388 183.306 132.694C184.397 132 185.454 131.339 185.62 131.24C185.818 131.141 186.611 130.645 187.438 130.116C191.339 127.603 192.43 126.909 195.041 125.256C196.595 124.264 198.149 123.306 198.512 123.107C199.934 122.314 199.24 121.719 193.884 119.008C190.975 117.521 188.463 116.165 188.297 116C187.835 115.57 187.835 115.603 185.752 116.959Z" fill="#162350"/>
<path d="M185.454 138.809C184.43 139.471 183.405 140.132 183.14 140.264C182.479 140.595 181.719 141.09 179.339 142.644C178.248 143.371 177.223 144.033 177.025 144.132C176.859 144.231 175.438 145.123 173.884 146.148C172.33 147.173 169.752 148.859 168.099 149.95C166.479 151.008 164.992 151.966 164.793 152.066C164.628 152.165 163.57 152.826 162.479 153.553C161.388 154.28 160.363 154.942 160.165 155.041C160 155.14 158.347 156.198 156.529 157.388C154.711 158.578 152.297 160.132 151.14 160.859C150.016 161.553 147.239 163.338 145.025 164.76C142.81 166.214 139.735 168.198 138.182 169.19C136.628 170.181 134.644 171.504 133.719 172.066C132.826 172.661 129.686 174.677 126.777 176.595C123.868 178.479 121.223 180.132 120.892 180.264C120.33 180.462 117.322 179.074 113.554 176.892C113.025 176.561 110.545 175.239 108.033 173.95C105.554 172.661 102.975 171.272 102.248 170.876C101.554 170.479 99.5701 169.421 97.851 168.528C96.132 167.603 93.9833 166.446 93.0577 165.95C92.1651 165.454 90.1155 164.363 88.5287 163.504C78.7436 158.347 73.9172 155.768 71.5701 154.512C70.4791 153.917 68.8593 153.057 67.9337 152.595C67.0411 152.132 65.3221 151.206 64.132 150.545C62.942 149.884 60.4957 148.561 58.6775 147.603C56.8593 146.644 54.6775 145.487 53.818 144.991C52.9585 144.528 52.099 144.132 51.9006 144.132C51.6692 144.132 49.851 145.223 47.8345 146.545C45.7849 147.9 43.2725 149.487 42.2147 150.115C41.1568 150.743 40.3634 151.438 40.3965 151.669C40.4626 151.9 41.5535 152.661 42.8097 153.355C44.099 154.016 46.1816 155.173 47.4378 155.867C51.1403 157.917 52.9915 158.909 61.818 163.57C63.7353 164.561 65.818 165.685 66.4461 166.049C67.5701 166.677 72.8263 169.454 76.3634 171.338C82.413 174.479 88.132 177.52 91.4048 179.305C93.6196 180.495 99.7023 183.735 102.479 185.19C105.355 186.71 109.091 188.727 114.545 191.735C115.471 192.231 117.124 193.123 118.248 193.719L120.264 194.776L122.314 193.52C123.405 192.793 125.025 191.801 125.884 191.272C126.744 190.71 128.925 189.322 130.744 188.132C132.562 186.909 134.281 185.785 134.611 185.619C136.496 184.495 139.835 182.38 142.975 180.33C144.992 179.008 147.669 177.289 148.925 176.462C150.215 175.636 151.901 174.545 152.727 174.016C153.554 173.487 154.38 172.991 154.545 172.892C154.744 172.793 156.165 171.867 157.785 170.809C163.57 167.008 166.446 165.123 167.008 164.793C167.306 164.628 168.628 163.801 169.917 162.975C171.206 162.148 172.529 161.322 172.826 161.157C173.124 160.958 174.314 160.198 175.471 159.404C176.628 158.644 177.653 158.016 177.719 158.016C177.818 158.016 178.281 157.719 178.777 157.388C180.165 156.396 186.578 152.231 186.942 152.099C187.107 152.033 188.165 151.338 189.256 150.578C190.347 149.818 191.471 149.09 191.735 148.958C193.917 147.9 199.372 144.066 199.273 143.735C199.206 143.537 197.95 142.743 196.529 141.983C189.421 138.214 188.066 137.52 187.702 137.553C187.471 137.553 186.446 138.115 185.454 138.809Z" fill="#162350"/>
</g>
<defs>
<clipPath id="clip0_348_60">
<rect width="239" height="239" fill="white"/>
</clipPath>
</defs>
</svg>
